<?xml version="1.0" encoding="utf-8"?>
<!-- Generator: Adobe Illustrator 24.1.2, SVG Export Plug-In . SVG Version: 6.00 Build 0)  -->
<svg version="1.1" id="Calque_1" xmlns="http://www.w3.org/2000/svg" xmlns:xlink="http://www.w3.org/1999/xlink" x="0px" y="0px"
	 viewBox="0 0 20 20" style="enable-background:new 0 0 20 20;" xml:space="preserve">
<style type="text/css">
	.st0{fill:#12192B;}
</style>
<path class="st0" d="M9.8,19.9c-0.1,0-0.2,0-0.4,0c-0.2,0-0.4,0-0.6,0c-0.1,0-0.2,0-0.2,0c-0.3,0-0.6-0.1-0.9-0.1
	c-0.3-0.1-0.7-0.1-1-0.3c-0.1,0-0.1-0.1-0.2-0.1c-0.3-0.1-0.6-0.3-0.9-0.4c-0.2-0.1-0.5-0.2-0.7-0.4c-0.3-0.3-0.7-0.5-1-0.7
	c-0.4-0.3-0.8-0.6-1.1-0.9C2.4,16.4,2,16,1.6,15.6c-0.6-0.6-0.8-1.3-0.9-2.1c0-0.1,0-0.1,0-0.2c-0.1-0.2-0.1-0.4-0.1-0.6
	c0-0.2,0-0.3,0-0.5c0-0.2-0.1-0.4-0.2-0.6c-0.1-0.3-0.2-0.6-0.3-0.9C0,10.6,0,10.3,0,10c0.1-0.3,0.1-0.7,0.1-1c0-0.1,0-0.1,0-0.2
	c0.1-0.5,0.3-1,0.4-1.5C0.7,6.8,0.9,6.2,1,5.7c0-0.2,0.2-0.4,0.3-0.5C1.4,5,1.5,4.8,1.7,4.6c0-0.1,0.1-0.1,0.1-0.2
	C1.9,4.4,2,4.2,2.1,4.1C2.4,3.5,2.8,3,3.3,2.5c0.1-0.1,0.2-0.1,0.2-0.2C3.9,2,4.3,1.9,4.7,1.7c0.6-0.2,1.1-0.5,1.6-0.9
	c0,0,0.1-0.1,0.1-0.1C6.7,0.6,7,0.5,7.3,0.4c0.2-0.1,0.4-0.1,0.6-0.1c0.5-0.1,0.9-0.1,1.4-0.1c0.3,0,0.5,0,0.8,0
	c0.4,0,0.7,0,1.1,0.2c0.3,0.1,0.6,0.2,0.9,0.2c0.4,0.1,0.7,0.2,1.1,0.2c0.2,0,0.5,0.1,0.7,0.2C14,0.9,14.1,1,14.2,1
	c0.3,0.1,0.5,0.2,0.7,0.3c0.3,0.2,0.6,0.4,0.9,0.6c0.5,0.3,0.9,0.6,1.2,1.1c0.2,0.3,0.4,0.5,0.6,0.8c0.4,0.5,0.8,1.1,1.1,1.7
	c0,0.1,0.1,0.2,0.1,0.2c0.1,0.2,0.2,0.4,0.2,0.6c0,0.1,0.1,0.2,0.1,0.3c0.1,0.3,0.2,0.5,0.3,0.8c0.1,0.4,0.3,0.7,0.4,1.1
	c0.1,0.2,0,0.4,0,0.7c0,0.2,0,0.5,0,0.7c0,0.3,0,0.6,0,1c0,0,0,0.1,0,0.1c0.1,0.5-0.1,0.9-0.1,1.3c0,0.3-0.1,0.5-0.1,0.8
	c0,0.2-0.2,0.4-0.2,0.7c-0.1,0.2-0.1,0.4-0.3,0.6c0,0,0,0.1-0.1,0.2c-0.1,0.4-0.3,0.7-0.5,1c-0.1,0.1-0.1,0.2-0.2,0.3
	c0,0.1-0.1,0.1-0.1,0.2c0,0.2-0.1,0.3-0.2,0.5c-0.2,0.2-0.5,0.5-0.7,0.7c-0.2,0.2-0.4,0.4-0.6,0.6c-0.1,0.1-0.2,0.1-0.2,0.1
	c-0.4,0.2-0.9,0.4-1.4,0.5c-0.2,0.1-0.5,0.2-0.7,0.3c-0.2,0.1-0.5,0.2-0.8,0.3c-0.3,0.1-0.5,0.2-0.8,0.3c-0.1,0.1-0.3,0.1-0.4,0.1
	c-0.3,0.1-0.6,0.1-0.9,0.2c-0.2,0.1-0.5,0.1-0.7,0.1C10.4,19.9,10.1,19.9,9.8,19.9z M2.6,3.7C2.8,3.9,3,4.1,3.1,4.2
	c0.2,0.1,0.3,0.2,0.5,0.3c0.3,0.1,0.6,0.2,0.8,0.3c0.3,0,0.6,0,1,0c0.3,0,0.5,0,0.8,0.1c0.1,0.1,0.2,0.1,0.4,0.2
	C6.8,5,7,5.1,7.2,5.3c0.3,0.2,0.6,0.4,0.9,0.7C8.2,6,8.4,6.1,8.4,6.3c0.2,0.3,0.4,0.5,0.7,0.8c0.3,0.4,0.7,0.7,1,1
	c0.1,0.1,0.2,0.2,0.3,0.3c0.2,0.2,0.5,0.4,0.7,0.6c0.1,0.1,0.2,0.1,0.3,0.2c0.2,0.2,0.5,0.4,0.8,0.6c0.3,0.2,0.7,0.4,1,0.7
	c0.5,0.4,0.9,0.8,1.2,1.3c0.1,0.1,0.1,0.2,0.3,0.3c0.1,0.1,0.3,0.2,0.5,0.3c0.4,0.2,0.7,0.5,1.1,0.7c0.2,0.2,0.4,0.3,0.7,0.4
	c0.4,0.2,0.7,0.2,1.1,0.2c0.3,0,0.6,0.1,0.9,0.2c0.1,0,0.1,0.1,0.2,0.1c0.1-0.2,0.1-0.4,0.2-0.6c0.2-0.5,0.3-1,0.4-1.6
	c0-0.2,0-0.5,0.1-0.7c0-0.3,0-0.5,0.1-0.8c0-0.3,0-0.7,0-1c0-0.3,0-0.5,0-0.8c0-0.1-0.1-0.2-0.2-0.2c-0.1,0-0.3,0-0.4,0
	c-0.4,0-0.8,0-1.2,0c-0.4,0-0.9-0.1-1.3-0.1c-0.3,0-0.5-0.1-0.7-0.2c-0.3-0.2-0.7-0.4-1-0.7c-0.3-0.2-0.5-0.5-0.7-0.8
	c-0.1-0.3-0.3-0.5-0.5-0.8c-0.1-0.2-0.3-0.5-0.4-0.7c-0.2-0.3-0.5-0.6-0.8-0.9c-0.4-0.4-0.8-0.7-1.2-1.1c-0.2-0.2-0.5-0.4-0.7-0.5
	c-0.3-0.2-0.6-0.5-1-0.6c-0.3-0.1-0.7-0.4-1-0.5C8.1,1.2,7.7,1,7.3,0.9c-0.2,0-0.4,0-0.6,0.1C6.5,1.1,6.2,1.3,6,1.4
	C5.6,1.6,5.2,1.8,4.8,1.9C4.5,2.1,4.2,2.2,4,2.4C3.7,2.7,3.4,2.9,3.1,3.2C2.9,3.3,2.8,3.5,2.6,3.7z M0.9,7.1C0.8,7.4,0.7,7.7,0.7,8
	C0.6,8.3,0.5,8.7,0.4,9.1c0,0.3,0,0.6,0,0.9c0.2-0.1,0.2-0.2,0.3-0.3c0-0.2,0.1-0.3,0.3-0.4c0.5-0.5,1.1-0.9,1.8-1.1
	c0.5-0.2,1-0.2,1.6,0C4.6,8.2,4.8,8.3,5,8.4C5.3,8.6,5.6,8.8,5.8,9C6,9.2,6.2,9.3,6.4,9.5c0.2,0.2,0.4,0.5,0.4,0.8
	c0,0.1,0.1,0.1,0.1,0.2c0.1,0.3,0.3,0.7,0.4,1c0.2,0.5,0.4,1,0.8,1.5c0.2,0.2,0.4,0.4,0.6,0.6c0.4,0.4,0.8,0.7,1.4,0.9
	c0.1,0,0.2,0.1,0.3,0.1c0.6,0.3,1.1,0.7,1.5,1.3c0.1,0.1,0.2,0.2,0.2,0.4c0.2,0.5,0.4,1,0.5,1.5c0.1,0.2,0,0.5,0.2,0.7
	c0,0,0,0,0,0.1c0,0.2,0.1,0.3,0.1,0.5c0,0,0,0,0.1,0c0.7-0.2,1.3-0.3,1.9-0.6c0.5-0.2,1-0.4,1.4-0.6c0.1-0.1,0.3-0.1,0.4-0.3
	c0.4-0.4,0.7-0.8,1.1-1.1c0,0,0.1-0.1,0.1-0.2c-0.3-0.1-0.5-0.2-0.8-0.2c-0.1,0-0.3-0.1-0.4-0.2c-0.2-0.3-0.4-0.6-0.6-0.9
	c0-0.1-0.1-0.2-0.1-0.2c-0.2-0.3-0.4-0.5-0.6-0.8c-0.3-0.3-0.6-0.5-1-0.7c-0.3-0.2-0.7-0.3-1-0.4c-0.2-0.1-0.4-0.1-0.5-0.2
	c-0.1-0.1-0.2-0.2-0.3-0.2c-0.5-0.3-0.9-0.6-1.3-1c-0.3-0.2-0.5-0.5-0.7-0.8C10.3,10.3,10,10,9.7,9.8C9.4,9.4,9.1,9,8.7,8.7
	C8.5,8.4,8.2,8.1,7.9,7.9C7.6,7.7,7.3,7.5,7,7.3C6.7,7.1,6.4,6.9,6,6.9C5.7,6.8,5.4,6.7,5.1,6.7c-0.5-0.1-1-0.1-1.4-0.1
	c-0.1,0-0.2,0-0.2,0C3.3,6.6,3.1,6.7,3,6.7c-0.1,0-0.2,0-0.2,0c-0.1-0.1-0.2,0-0.3,0c-0.1,0-0.2,0.1-0.3,0.1C1.7,6.8,1.3,7,0.9,7.1z
	 M0.8,11.9c0.3,0.1,0.4,0.3,0.6,0.4c0.2,0.3,0.4,0.6,0.5,0.9c0.1,0.2,0.1,0.3,0.3,0.4c0.2,0.3,0.5,0.4,0.7,0.6
	c0.4,0.3,0.7,0.4,1.2,0.4c0.2,0,0.5,0,0.7,0.1c0.3,0.1,0.7,0.2,1,0.4c0.2,0.1,0.4,0.2,0.5,0.4c0.1,0.2,0.3,0.3,0.4,0.5
	c0.3,0.3,0.6,0.6,0.9,0.8c0.1,0,0.2,0.1,0.2,0.2C8,17.2,8,17.3,8.1,17.3c0.1,0.1,0.1,0.2,0.2,0.3c0.2,0.4,0.3,0.8,0.2,1.2
	c-0.1,0.2-0.1,0.4-0.3,0.5c0,0,0,0,0,0.1c0.1,0,0.3,0,0.4,0c0.4,0.1,0.8,0.1,1.2,0.2c0.3,0,0.5,0,0.8,0c0.6-0.2,1.1-0.3,1.7-0.5
	c0,0,0.1,0,0.1,0c0.1-0.3,0.2-0.6,0.1-0.8c-0.1-0.3-0.2-0.6-0.3-0.9c-0.2-0.5-0.4-1-0.8-1.4c-0.3-0.3-0.6-0.6-0.8-0.9
	c-0.2-0.2-0.3-0.3-0.6-0.4c-0.1,0-0.3-0.1-0.4-0.1c-0.1,0-0.3-0.1-0.4-0.1c-0.4-0.3-0.7-0.5-1.1-0.8c0,0-0.1-0.1-0.1-0.1
	c-0.3-0.4-0.5-0.7-0.7-1.2c-0.2-0.4-0.2-0.9-0.4-1.3c-0.1-0.3-0.3-0.7-0.5-1C6.2,9.7,6,9.4,5.6,9.2C5.2,9,4.9,8.9,4.5,8.7
	C3.9,8.4,3.3,8.5,2.8,8.6C2.4,8.7,2.2,8.9,1.9,9.1C1.6,9.3,1.3,9.5,1,9.6c-0.1,0.3-0.3,0.6-0.6,0.6C0.4,10.8,0.8,11.3,0.8,11.9z
	 M1.1,6.8c0.1,0,0.2,0,0.2,0C1.5,6.6,1.7,6.6,2,6.5c0.2,0,0.3-0.1,0.5-0.1c0.3,0,0.6-0.2,1-0.2c0.1,0,0.2,0,0.4,0c0.1,0,0.3,0,0.4,0
	c0.3,0,0.6,0,0.8,0.1c0.5,0.1,1,0.2,1.5,0.4c0.4,0.2,0.7,0.4,1,0.6c0.5,0.4,1,0.8,1.5,1.4c0.2,0.3,0.5,0.5,0.7,0.8
	c0.1,0.2,0.3,0.3,0.4,0.4c0.1,0.1,0.2,0.2,0.4,0.3c0.1,0.1,0.3,0.2,0.4,0.3c0.3,0.3,0.6,0.6,0.9,0.9c0.2,0.2,0.4,0.4,0.6,0.5
	c0.1,0,0.2,0.1,0.2,0.2c0.2,0.1,0.4,0.3,0.6,0.4c0.3,0.1,0.5,0.2,0.8,0.2c0.2,0.1,0.3,0.1,0.5,0.2c0.3,0.2,0.5,0.3,0.7,0.5
	c0.4,0.3,0.7,0.6,0.9,1c0.2,0.3,0.4,0.6,0.6,0.8c0.1,0.1,0.1,0.2,0.2,0.2c0.2,0.1,0.5,0.2,0.8,0.2c0.2,0,0.3,0,0.5,0
	c0.2-0.4,0.5-0.7,0.6-1.2C18.5,14.1,18.4,14,18,14c-0.1,0-0.1,0-0.2,0c-0.5-0.1-1-0.2-1.4-0.4c-0.2-0.1-0.3-0.2-0.5-0.4
	c-0.2-0.2-0.4-0.3-0.7-0.4c-0.3-0.2-0.5-0.3-0.8-0.4c-0.2-0.1-0.4-0.3-0.5-0.5c-0.1-0.2-0.2-0.4-0.4-0.6c-0.3-0.3-0.5-0.5-0.8-0.7
	c-0.4-0.3-0.8-0.6-1.2-0.8c-0.3-0.2-0.6-0.4-1-0.6C10.5,9.1,10.4,9,10.3,9c-0.2-0.1-0.4-0.3-0.5-0.5C9.5,8.1,9.3,7.8,9,7.5
	C8.9,7.3,8.9,7.2,8.7,7C8.3,6.6,7.9,6,7.3,5.7C7,5.5,6.7,5.3,6.3,5.2c-0.3-0.1-0.7-0.1-1-0.2C5,5,4.8,5,4.5,5C4.2,5,4,4.9,3.7,4.8
	C3.4,4.7,3.1,4.5,2.8,4.3C2.7,4.2,2.6,4.2,2.5,4C2.4,4.2,2.4,4.3,2.3,4.4C2.2,4.6,2.1,4.8,1.9,5C1.8,5.1,1.6,5.3,1.5,5.5
	C1.3,5.9,1.2,6.3,1.1,6.8z M18.7,6c-0.1,0.1-0.2,0.2-0.3,0.3c-0.2,0.2-0.4,0.2-0.6,0.3c-0.4,0-0.8,0-1.2-0.2C16.5,6.2,16.3,6,16,5.9
	c-0.2-0.1-0.4-0.2-0.5-0.5c0-0.1-0.1-0.1-0.1-0.2c-0.1-0.1-0.2-0.2-0.3-0.3c-0.1-0.2-0.3-0.4-0.4-0.5c-0.1-0.1-0.2-0.3-0.3-0.5
	c-0.1-0.3-0.3-0.4-0.6-0.5c-0.1,0-0.2-0.1-0.3-0.2c-0.1-0.2-0.2-0.3-0.3-0.5C13,2.4,12.8,2.2,12.5,2c-0.2-0.1-0.4-0.3-0.5-0.5
	c-0.1-0.2-0.2-0.3-0.2-0.6c0,0,0-0.1,0-0.1c-0.3,0-0.6-0.1-0.9-0.2c-0.3-0.1-0.6-0.2-1-0.2c-0.1,0-0.1,0-0.2,0c-0.4-0.1-0.8,0-1.2,0
	c-0.3,0-0.7,0.1-1,0.1c0,0-0.1,0-0.1,0.1c0,0,0,0,0,0C8,0.9,8.6,1.1,9.1,1.4c0.1,0,0.2,0.1,0.3,0.2c0.3,0.2,0.6,0.4,0.9,0.6
	c0.1,0.1,0.3,0.2,0.4,0.3C11.2,2.6,11.5,3,12,3.3c0,0,0.1,0.1,0.1,0.1c0.2,0.3,0.5,0.5,0.7,0.8c0.2,0.2,0.4,0.5,0.6,0.7
	c0,0,0,0,0,0.1c0,0.2,0.2,0.3,0.3,0.5c0.1,0.1,0.1,0.1,0.2,0.2c0.2,0.3,0.3,0.5,0.5,0.8c0.1,0.1,0.2,0.2,0.2,0.3
	c0.3,0.3,0.7,0.6,1.2,0.8c0.1,0.1,0.3,0.1,0.4,0.2c0.7,0.2,1.3,0.3,2,0.3c0.4,0,0.8-0.1,1.2,0c0,0,0.1,0,0.2-0.1
	C19.3,7.3,19.1,6.6,18.7,6z M0.9,12.3c0,0.2,0,0.3,0,0.5C1,12.8,1,13,1.1,13.1c0,0.4,0.1,0.8,0.2,1.2c0.1,0.5,0.4,0.9,0.7,1.2
	c0.3,0.3,0.5,0.6,0.8,0.9c0.1,0.2,0.3,0.3,0.4,0.5c0.4,0.4,0.9,0.8,1.5,1.1c0.3,0.2,0.6,0.3,0.8,0.5c0.3,0.3,0.8,0.4,1.1,0.6
	c0.2,0.1,0.5,0.2,0.7,0.3c0.1,0,0.1,0.1,0.2,0.1c0.1-0.1,0.2-0.1,0.4-0.1C7.9,19.2,8,19.1,8,19c0.1-0.4,0-0.7-0.1-1.1c0,0,0,0,0-0.1
	c-0.1-0.1-0.2-0.2-0.2-0.3c-0.1-0.1-0.2-0.3-0.3-0.4c-0.4-0.3-0.7-0.6-1-1c-0.2-0.2-0.3-0.5-0.6-0.6c-0.3-0.2-0.6-0.4-1-0.4
	C4.6,15,4.4,15,4.2,15c-0.7,0-1.3-0.3-1.9-0.7c-0.2-0.1-0.3-0.3-0.4-0.5c-0.1-0.2-0.2-0.4-0.3-0.7c-0.1-0.2-0.1-0.4-0.2-0.5
	C1.3,12.5,1.1,12.4,0.9,12.3z M18.7,5.7c-0.1-0.2-0.2-0.4-0.3-0.6C18,4.5,17.4,3.9,17,3.2c0,0-0.1,0-0.1-0.1c-0.1,0-0.1,0.1-0.2,0.1
	c-0.1,0-0.2,0.1-0.3,0.1c-0.3,0-0.6-0.2-0.9-0.5c-0.1-0.1-0.1-0.2-0.2-0.3c-0.2-0.2-0.4-0.5-0.7-0.6c-0.1,0-0.1-0.1-0.2-0.1
	c-0.2-0.2-0.3-0.3-0.3-0.6c-0.2-0.1-0.4-0.2-0.5-0.2c-0.1,0-0.2,0-0.3-0.1c-0.2-0.1-0.5-0.1-0.8-0.2c-0.1,0-0.2-0.1-0.3,0.1
	c-0.1,0.1,0,0.3,0,0.4c0,0,0,0.1,0.1,0.1c0.1,0.2,0.3,0.3,0.5,0.4C13,2,13.3,2.2,13.4,2.6c0,0.1,0.1,0.2,0.1,0.3
	c0.1,0.2,0.3,0.4,0.5,0.5c0.1,0,0.2,0.1,0.3,0.2c0.1,0.1,0.2,0.2,0.3,0.4c0.1,0.2,0.3,0.4,0.4,0.6c0.2,0.3,0.5,0.6,0.8,0.8
	c0.2,0.2,0.5,0.4,0.7,0.5c0.1,0,0.1,0,0.2,0.1C17,6,17.3,6,17.5,6.1c0.4,0.1,0.7,0,1-0.3C18.5,5.8,18.6,5.8,18.7,5.7z M15.9,2.8
	c0.1,0,0.2,0.1,0.3,0.1c0.1,0,0.1,0,0.2,0c0.1,0,0.2-0.1,0.1-0.2c-0.1-0.1-0.2-0.2-0.3-0.2C15.8,2.2,15.4,2,15,1.7
	c-0.2-0.1-0.3-0.2-0.5-0.2c0,0,0,0.1,0,0.1c0.1,0.1,0.2,0.2,0.4,0.3c0.2,0.1,0.4,0.2,0.6,0.4C15.6,2.5,15.7,2.7,15.9,2.8z"/>
</svg>
