<svg xmlns="http://www.w3.org/2000/svg" viewBox="0 0 41.68 42.17"><defs><style>.cls-1{fill:#f0d81d;}</style></defs><path class="cls-1" d="M1.51,9.6,5.13,37.09S4.93,42.28,9,41.4,37.56,36,37.56,36s4-.2,3.08-4.11S34.38,1,34.38,1,13.44,3.15,1.51,9.6Z"/><path d="M.07,9.79c0-.63,0-1.11,0-1.58a.79.79,0,0,1,.39-.53A10.06,10.06,0,0,1,2.25,7C5.63,6.1,9,5.21,12.42,4.37,17.6,3.09,22.77,1.8,27.88.28a6.36,6.36,0,0,1,3.27,0c.35.08.93.1.8.63A2.62,2.62,0,0,1,31.14,2c-.14.13-.46.12-.69.12a17.38,17.38,0,0,0-6.51,1.3c-1.11.4-2.33.46-3.47.8a29.63,29.63,0,0,0-4.72,1.65c-.86.41-1.77.7-2.61,1.14A29.57,29.57,0,0,1,5.62,9.3c-.39.09-.79.13-1.16.25-.91.28-1.16.61-1.18,1.53a13,13,0,0,0,0,2.16,7,7,0,0,1,0,3.06,3.23,3.23,0,0,0,.14,1.17c.21,1.74.46,3.47.64,5.22.4,3.88.67,7.78,1.4,11.63.26,1.33,0,2.71.44,4,.1.29-.21.73-.37,1.09a.49.49,0,0,1-.8,0,3.15,3.15,0,0,1-.42-.84c-.32-1.39-.65-2.79-.9-4.2-.37-2.12-.67-4.25-1-6.38-.09-.55-.09-1.11-.15-1.66-.13-1.27-.27-2.54-.42-3.8s-.38-2.68-.54-4S1.13,15.7,1,14.28a5.52,5.52,0,0,0-.4-1.37A5.53,5.53,0,0,1,.07,9.79Zm23,9.9c.06,0,.15.08.18.15,1.2,2.25,2.36,4.5,4.87,5.68.59.27,1,1,1.39,1.6a1.61,1.61,0,0,1,.22.67c.13.58-.36,1.17-.92,1a1.22,1.22,0,0,0-1.61.59A14.26,14.26,0,0,0,26.21,31a.6.6,0,0,0,.22.83c.77.41,1.57.75,2.36,1.13a3.08,3.08,0,0,0,2.76,0q.77-.36,1.5-.75a3.07,3.07,0,0,0,1.79-2.66c.09-2.62-.41-5.09-2.87-6.67-.8-.51-1.57-1.08-2.35-1.64a8.17,8.17,0,0,1-.94-.73,1.26,1.26,0,0,1,.59-2.1,1,1,0,0,1,.83.23c.51.5.92,1.1,1.39,1.63a.56.56,0,0,0,.85,0,14.44,14.44,0,0,0,1.49-1.54,1.8,1.8,0,0,0,.3-1.81,3.61,3.61,0,0,0-2-2,8.17,8.17,0,0,0-3.28-.54,7.22,7.22,0,0,0-4.09,1.77,4.42,4.42,0,0,0-1.69,3.55Zm.06.08c-.48-.28-.49-.78-.6-1.24-.35-1.39-.6-1.58-2-1.26a14.88,14.88,0,0,0-2.22.84.87.87,0,0,0-.52,1A17.34,17.34,0,0,0,18.17,21c.44,1.78.94,3.55,1.33,5.34a19.14,19.14,0,0,1,.32,2.84.74.74,0,0,1-1,.77c-1-.37-1.52.16-2.05.77-.31.36-.47.84-.76,1.22a1.09,1.09,0,0,0,.32,1.47A8.91,8.91,0,0,0,19.79,35,4.23,4.23,0,0,0,25,31.14a21.86,21.86,0,0,0-.25-3.33,65.45,65.45,0,0,0-1.51-6.48A14.69,14.69,0,0,1,23,19.69ZM41.57,32.53q-1.16-6.21-2.34-12.4c-.52-2.73-1.06-5.46-1.49-8.21-.49-3.14-1.19-6.24-1.83-9.36C35.75,1.78,35.5,1,35.27.27a.66.66,0,0,0-.84-.19c-.54.48-1.09,1-1,1.79s.28,1.72.46,2.58.41,1.7.59,2.55c.44,2,.84,4.05,1.28,6.07.23,1.09.58,2.16.78,3.25.68,3.76,1.23,7.55,2,11.29.44,2.18,1.17,4.3,1.82,6.43.08.27.39.48.64.66.08.06.37,0,.4-.07a6.2,6.2,0,0,0,.26-.81C41.64,33.32,41.64,32.92,41.57,32.53Zm-31,9.5a6,6,0,0,0,.95,0c2.27-.35,4.55-.68,6.81-1.09,1.87-.33,3.73-.79,5.6-1.14,2-.37,4.08-.66,6.12-1,.94-.16,1.87-.37,2.8-.57.93-1,2.15-.81,3.33-.9a7.34,7.34,0,0,0,1.86-.39,2.39,2.39,0,0,0,.88-.71.8.8,0,0,0,.18-.64c-.08-.36-.41-.42-.75-.41a17.5,17.5,0,0,0-4.93.67,15.35,15.35,0,0,1-1.63.37c-1.56.32-3.12.64-4.68.94s-3.3.58-4.93.92-3.09.81-4.65,1.05-3.08,1.23-4.77.57c-1.44.69-3.06.73-4.56,1.22-.32.1-.57.4-.41.72a1.14,1.14,0,0,0,.68.54A2.6,2.6,0,0,0,9.43,42l1.15-.18Z"/></svg>