<svg xmlns="http://www.w3.org/2000/svg" viewBox="0 0 45.53 37.47"><path d="M36.73 6v.72c0 .87-.1 1.73-.16 2.6.76.68 1.77.65 2.66.95a5.66 5.66 0 001.63.3 3.78 3.78 0 012.53 1.21A16.3 16.3 0 0144.57 13a3.11 3.11 0 01.32 4.13 11.78 11.78 0 01-4.63 4.39c-.49.27-1 .51-1.45.82-.13.09-.21.51-.12.6a28.86 28.86 0 011.86 2.46c1.23 1.46 1.34 3.2 1.57 4.93a3 3 0 01-.18 1.17 1.54 1.54 0 01-1.17 1.1 10.55 10.55 0 01-5.41.1 17.83 17.83 0 01-4.6-1.91c-1.73-1.14-3.55-2.16-5.34-3.22-.89-.52-1.13-.48-1.89.23a8.44 8.44 0 00-.85.84c-1.81 2.24-4.07 4-6.07 6.09a9.66 9.66 0 01-4 2.45c-2.28.72-3.17.28-4.39-2a5.12 5.12 0 01-.39-3.72 22.33 22.33 0 011.26-3.86c.3-.66.61-1.3.9-2 .39-.91.47-1.17-.85-1.3-1.14-.13-2.27-.19-3.39-.3a8.74 8.74 0 01-3.17-1 5.54 5.54 0 01-2.29-2.36 2.17 2.17 0 01-.16-1.84 5.5 5.5 0 013-3.51c1.22-.57 2.53-.94 3.8-1.4.83-.3 1.65-.6 2.46-.93a.49.49 0 00.22-.78c-.37-.61-.76-1.22-1.16-1.82A12.72 12.72 0 016.38 5.1 2.66 2.66 0 018.62 2a7.19 7.19 0 014.2.55c2.63 1.19 5 2.79 7.51 4.2.49.27 1 .58 1.46.83a1.08 1.08 0 001.63-.47 7.09 7.09 0 012.4-2.58 7.54 7.54 0 001.06-1C28 2.12 29.67 1.45 31.12.47c1.88-1.28 5.16.2 5.56 2.69A24.79 24.79 0 0136.83 6zM17.39 24.46v-.07h-1.67c-2.9 0-2.46-.19-3.72 2.43a8.12 8.12 0 00-.83 4.42c.09.81.91 1.64 1.59 1.44a12.27 12.27 0 003.31-1.23 38.33 38.33 0 006.16-5.3 1.37 1.37 0 00.13-.2.7.7 0 00-.28-1 4.36 4.36 0 00-1.34-.46c-1.11-.08-2.23-.03-3.35-.03zm6.42-2.19h.81A2 2 0 0026.85 21c.62-1.37 1.38-2.68 2.07-4a1 1 0 00-.24-1.29c-1.05-1-2.08-2-3.18-2.88a4.3 4.3 0 00-5.25.26 19.06 19.06 0 00-3.07 4.23 1.15 1.15 0 00.28 1.51c.89.8 1.78 1.59 2.65 2.41a3.49 3.49 0 002.13.94zm-12.25-7.36h-.28a10.75 10.75 0 00-5.73 3.28 1.83 1.83 0 00.64 3A19.07 19.07 0 0011 22.45a1.17 1.17 0 001.24-.58c.48-.82.79-1.75 1.35-2.52a2 2 0 00-.32-2.93c-.4-.39-.75-.83-1.15-1.22a2.21 2.21 0 00-.56-.29zm26.76 12.38c-.55-1-.35-2.29-1.28-3.21-.43-.44-.85-.7-1.46-.41a10.94 10.94 0 01-3.95.82c-1.43.08-2.85.2-4.27.31a1.31 1.31 0 00-.67.17.7.7 0 00-.23.57 1.07 1.07 0 00.4.57 10.83 10.83 0 005.25 2.61c.55.06 1.08.24 1.62.35.86.18 1.71.36 2.58.48a1.28 1.28 0 001.55-.8 12.13 12.13 0 00.46-1.46zm2.33-10.86a3.6 3.6 0 00-.21-.75 6.61 6.61 0 00-4.73-3.3.81.81 0 00-1 .51c-.45 1.1-.89 2.19-1.41 3.25a1.35 1.35 0 000 1.13 7.05 7.05 0 002.7 2.6 1 1 0 001.13 0c1-.78 2-1.59 2.91-2.44a4 4 0 00.61-1zM9.94 7a5.92 5.92 0 00.26 1.09c.42 1 .87 2 1.36 3.06.38.81.64 1 1.51.65a24.13 24.13 0 016.29-1.31c.16 0 .35-.24.45-.42a.45.45 0 00-.19-.39c-2.34-1.19-4.68-2.37-7-3.51A6.68 6.68 0 0011 5.8c-.68-.13-1.09.26-1.06 1.2zm22.51-1.17c.06-1.21-.26-1.64-1-1.84a3 3 0 00-2.07.23 17.49 17.49 0 00-5 4 .77.77 0 00.19 1.22 1.81 1.81 0 001.52.54 27.18 27.18 0 014.75-.45 1 1 0 00.71-.49c.39-1.18.69-2.42.9-3.21zM16.9 13.31c-1 .25-1.89.48-2.79.73a.46.46 0 00-.14.39 2.27 2.27 0 001.39 1.51c.57.18.85-.56 1.17-1a4.11 4.11 0 00.59-1c.05-.13-.12-.35-.22-.63zm13.63 7.31c.06.13.1.36.18.38a4.24 4.24 0 002.56-.23.44.44 0 00.19-.75 6.57 6.57 0 00-.85-.82.82.82 0 00-.66-.1 2.6 2.6 0 00-1.42 1.52zm-15.12 1.54h.23c.65-.15 1.66.13 1.8-.71.11-.64-.65-1.18-1.23-1.58a.63.63 0 00-.61.11 2.58 2.58 0 00-.9 1.83c0 .11.14.27.26.33a1.08 1.08 0 00.45.02zm14-10.2a3.76 3.76 0 00-.67 0c-.11 0-.28.18-.27.27 0 .37.88 1.23 1.27 1.23a.8.8 0 00.57-.31 2.64 2.64 0 00.34-.83c0-.06-.18-.24-.3-.26a6.91 6.91 0 00-.94-.06zm-3.93 8.21a3.14 3.14 0 00.76-4.87 3.49 3.49 0 00-3.77-.67 3.07 3.07 0 00-1.92 2.76c-.1 2 1.07 3.29 3.29 3.3a8.32 8.32 0 001.64-.52z" fill="#75cbec" data-name="Calque 1"/></svg>
