<svg xmlns="http://www.w3.org/2000/svg" viewBox="0 0 56.91 52.98"><defs><style>.cls-1{fill:#ce679b;}</style></defs><path class="cls-1" d="M24.5,37.63c-.39.63-.66,1.1-1,1.56a8,8,0,0,1-.87,1.12,2.36,2.36,0,0,1-2.85.55A4.88,4.88,0,0,1,17.41,39,2.66,2.66,0,0,1,17,37.16c.17-.94.29-1.89.43-2.84.05-.38-.2-.56-.58-.41-.67.25-1.35.5-2,.8s-.9.54-.8,1.49a34.61,34.61,0,0,1,.1,7.88c0,.32-.05.64-.12,1a31.15,31.15,0,0,1-3.37,6,3.22,3.22,0,0,1-1,.65,34.53,34.53,0,0,1-3.37,1.18,3.23,3.23,0,0,1-2.72-.61C1.72,50.93.25,49.27.15,46.8c-.07-1.67-.15-3.35-.15-5a7.22,7.22,0,0,1,1.2-3.59,11.47,11.47,0,0,1,5-4.7c1.51-.73,1.45-.8.62-2.31C5.42,28.74,4,26.34,2.82,23.81a16.88,16.88,0,0,1-1.63-8.38A12.64,12.64,0,0,1,2.83,9.48,14.06,14.06,0,0,1,7.36,4.62,28.81,28.81,0,0,1,12,2.09,45.29,45.29,0,0,1,16.45.51a14.53,14.53,0,0,1,13.47,3,6.62,6.62,0,0,1,2.46,6.39,2.84,2.84,0,0,1-.24.92c-1,1.89-2.05,3.82-3.94,5A38.31,38.31,0,0,1,24.45,18a7.42,7.42,0,0,1-6.86-.12,2,2,0,0,1-.82-.79,1,1,0,0,1,1-1.59,10.17,10.17,0,0,1,1.65.29,5.56,5.56,0,0,0,6.33-3.13c.18-.44.42-.86.61-1.3a5.22,5.22,0,0,0-3-6.83,5.29,5.29,0,0,0-3.51.13c-2.07.84-4.17,1.63-6.18,2.6a15.33,15.33,0,0,0-4.53,3.85,5.2,5.2,0,0,0-.84,1.7,15.34,15.34,0,0,0-.16,9.88,22.75,22.75,0,0,0,2,5.11,8.16,8.16,0,0,1,.65,2c.08.31.07.64.16.94a1.47,1.47,0,0,0,2,1.17,15,15,0,0,0,3.61-1.2c.91-.44,1.79-1.08,2.92-.6.16.07.45-.09.66-.19s.39-.27.59-.39c2.18-1.31,2.36-1,3.69.36a.63.63,0,0,0,.85.1,3.23,3.23,0,0,1,.66-.29c.56-.19.75-.09.9.4a7.12,7.12,0,0,1,.27,2.6c-.07,1.11-.06,2.23,0,3.35a2.67,2.67,0,0,0,.35,1.12c0,.09.52.12.59,0a2.59,2.59,0,0,0,.51-1c.26-2.14,1.1-4.16,1.24-6.34a8.83,8.83,0,0,1,.89-2.7,1.21,1.21,0,0,1,.72-.57,3.09,3.09,0,0,1,2.37,1.29,6.55,6.55,0,0,0,.56,1c.46.55.89.45,1.07-.27a7.23,7.23,0,0,1,2.14-3.66,1.24,1.24,0,0,1,1.32-.28,2.85,2.85,0,0,1,1.87,1.67c1.07,2.26,1.14,2.23,3.22.74,1.3-.92,2.61-1.84,3.93-2.73,1.59-1.08,3.35-.87,5.09-.54a2.61,2.61,0,0,1,1.22.71c2.56,2.62,3.71,5.12,1.8,8.83a15.18,15.18,0,0,1-4.36,5.31,2.11,2.11,0,0,1-1.53.54,1.61,1.61,0,0,1-.85-.38c-.37-.32,0-.6.2-.78.73-.73,1.47-1.46,2.27-2.12a7,7,0,0,0,1.77-7.26A2.46,2.46,0,0,0,52,27.14c-1-.37-1.92-.79-2.93,0-.28.22-.77.17-1.15.28a9.93,9.93,0,0,0-4.61,2.83,1.07,1.07,0,0,0-.21,1.11c.21.69.48,1.36.65,2.06a4.32,4.32,0,0,1,0,2.59c-.48,1.3-1,1.65-2.37,1.27-1-.27-2.07-.13-2.88-1a2,2,0,0,1-.65-1.7,10.48,10.48,0,0,1,1.26-3.34,2.32,2.32,0,0,0-1.17-3.35c-.34-.18-.64-.15-.78.21-.47,1.19-.94,2.37-1.32,3.58a1.82,1.82,0,0,0,.23,1.11,7.2,7.2,0,0,0,.66,1c1.11,1.59.36,3.62-1.27,4.78a1.3,1.3,0,0,1-.67.22,15.41,15.41,0,0,1-2.15,0,1.19,1.19,0,0,1-.71-.5A2.33,2.33,0,0,1,31.67,36a17,17,0,0,1,1-2.14,2.19,2.19,0,0,0,.21-1.62c-.11-.55-.53-.76-1-.92a.59.59,0,0,0-.78.36c-.42,1.53-.78,3.08-1.15,4.63-.18.78-.31,1.57-.47,2.35A1.57,1.57,0,0,1,28,40a2.52,2.52,0,0,1-2.85-1.25C25,38.41,24.79,38.11,24.5,37.63ZM4.34,44l.16,0c0,.48,0,1,0,1.43a2.76,2.76,0,0,0,.17.7,2.16,2.16,0,0,0,1.78,1.38,3,3,0,0,0,3-2.32c.27-1,.39-2,.69-3a10,10,0,0,0,0-5.19c-.22-1-.65-1.32-1.71-1a4.28,4.28,0,0,0-1.6,1A5.17,5.17,0,0,0,5.2,39.61C4.84,41.07,4.62,42.56,4.34,44ZM23.58,34h0c0-.48,0-1,0-1.43a4.25,4.25,0,0,0-.18-.93A1.06,1.06,0,0,0,21.89,31a2.26,2.26,0,0,0-.9.71,10.71,10.71,0,0,0-1.41,4.75,2.74,2.74,0,0,0,.15.93.8.8,0,0,0,.87.65,1.81,1.81,0,0,0,.92-.13c1.05-.81,2.29-1.51,2.07-3.17A4.19,4.19,0,0,1,23.58,34Zm16.54-.19a5,5,0,0,0,0,.56c.07.28.05.67.48.62a.92.92,0,0,0,.55-.34,1.85,1.85,0,0,0,.33-1.75c0-.17-.29-.31-.48-.39a.43.43,0,0,0-.4.14C40.4,33.12,40.21,33.61,40.12,33.82ZM34.61,36c-.12-.22-.17-.41-.28-.46a.4.4,0,0,0-.37.13,6.75,6.75,0,0,0-.46,1c0,.11.08.39.13.39s.49,0,.57-.15A5,5,0,0,0,34.61,36Z"/></svg>