<svg xmlns="http://www.w3.org/2000/svg" viewBox="0 0 134.9 133.77"><defs><style>.cls-1{fill:#eedfbe;}.cls-2{fill:#d3403e;}.cls-3{fill:#f3b85c;}.cls-4{fill:#e57858;}.cls-5{fill:#be4436;}</style></defs><g id="Calque_2" data-name="Calque 2"><g id="Calque_1-2" data-name="Calque 1"><path d="M65.87,133.77c-.64-.06-1.67-.17-2.7-.25-1.27-.1-2.55-.16-3.81-.24-.56,0-1.11-.09-1.66-.16-2.06-.28-4.14-.45-6.16-.88-2.31-.49-4.76-.68-6.7-2.3a5,5,0,0,0-1.24-.73c-2.11-.92-4.27-1.73-6.35-2.73a23.81,23.81,0,0,1-4.76-2.73c-2.18-1.75-4.58-3.16-6.87-4.73a34.11,34.11,0,0,1-7.14-6.28c-2.3-2.75-4.83-5.33-7.37-7.87-3.88-3.87-5.41-8.72-6.06-14,0-.39.08-.87-.1-1.16-.8-1.24-.68-2.58-.68-3.94,0-1.12-.16-2.23-.26-3.35A11.85,11.85,0,0,0,3,78.55a54.15,54.15,0,0,1-2.34-6,11.9,11.9,0,0,1-.45-5.69,24.77,24.77,0,0,0,.42-6.66,4.57,4.57,0,0,1,.19-1.41c.81-3.32,1.71-6.62,2.67-9.91,1.09-3.73,2.65-7.31,3.46-11.13a10.6,10.6,0,0,1,1.95-3.56c.8-1.19,1.55-2.41,2.33-3.61a3.79,3.79,0,0,1,.89-1.11A5.8,5.8,0,0,0,13.88,27a34.18,34.18,0,0,1,8.57-10.48c.55-.46,1.1-.92,1.64-1.4A23,23,0,0,1,31.57,11,37.88,37.88,0,0,0,42.25,5.12a4.65,4.65,0,0,1,1-.68c2-.88,3.91-1.82,5.93-2.54A21,21,0,0,1,53.34,1,66.67,66.67,0,0,1,62.58.06c1.75,0,3.51-.14,5.25,0a31.3,31.3,0,0,1,7.3,1.1,55,55,0,0,0,6.24,1.65c2.48.54,5,1,7.51,1.34a18.71,18.71,0,0,1,4.56,1.34,15.36,15.36,0,0,0,2.47.92,13.63,13.63,0,0,1,4.51,2.12c2.1,1.3,4.18,2.64,6.34,3.85a25,25,0,0,1,8.41,7.3c1.29,1.81,2.88,3.4,4.25,5.16a98.31,98.31,0,0,1,7.65,11.23,12.83,12.83,0,0,1,.61,1.53c.55,1.32,1.13,2.63,1.67,4,.3.73.53,1.5.82,2.23.69,1.78,1.46,3.53,2.09,5.33.86,2.48,1.75,5,2.37,7.52a15.36,15.36,0,0,1,.2,4.5c-.09,1.67-.08,3.34-.14,5a41.61,41.61,0,0,1-.25,6.41,2.77,2.77,0,0,0-.05,1c.37,3.06-.4,6-.79,9-.22,1.73-.67,3.44-.93,5.17s-1.17,2.95-1.56,4.49a14.69,14.69,0,0,1-1.83,4.36,7.07,7.07,0,0,0-.48,1.09,41,41,0,0,1-3.7,6.68c-.47.74-.94,1.48-1.37,2.25a2,2,0,0,0-.39,1.1c.21,1.4-.64,2.28-1.48,3.1-1.6,1.56-3.18,3.11-4.65,4.8a51.08,51.08,0,0,1-4.29,4.16,6.17,6.17,0,0,1-1.62,1c-3,1.3-5.87,2.89-9.12,3.54a46.62,46.62,0,0,1-5.06,2.12A35.81,35.81,0,0,1,92,128.17a53.5,53.5,0,0,0-5.35,2.05,18,18,0,0,1-3,.78c-2.09.44-4.16,1-6.2,1.62a20.4,20.4,0,0,1-5,.81ZM17.81,24.48a12.69,12.69,0,0,0,3.4,3,25.37,25.37,0,0,0,3.1,1.79A24.85,24.85,0,0,0,30,31a28.35,28.35,0,0,0,6.44-.13,9.16,9.16,0,0,1,5.12.8c.78.39,1.61.66,2.41,1A36.07,36.07,0,0,1,48.7,35c2.07,1.34,4,2.91,5.94,4.43a9,9,0,0,1,2.23,2.15c1.26,2.07,3,3.69,4.49,5.56a80.08,80.08,0,0,0,6.71,7.07c.62.62,1.22,1.24,1.84,1.85a22.46,22.46,0,0,0,5,4.07A10,10,0,0,1,77,61.76a29.09,29.09,0,0,0,5.14,3.85A46.05,46.05,0,0,1,88.65,70c3.09,2.65,6.16,5.34,8.08,9a5.33,5.33,0,0,0,1.71,2,18.84,18.84,0,0,0,3.06,1.87c2.8,1.23,4.94,3.49,7.66,4.84a12.06,12.06,0,0,0,4.41,2.78A16.39,16.39,0,0,0,121,92a10.61,10.61,0,0,1,5.91,1.56l1.3.75c.51-1.44.94-2.71,1.4-4a42.31,42.31,0,0,0,2.49-10.46c.16-1.66.23-3.34.35-5,.13-1.83.33-3.65.4-5.48.09-2.31.12-4.63.09-6.94q0-2.74-.3-5.49c-.1-1-.44-1.22-1.4-1.3a23.25,23.25,0,0,0-2.63-.12c-2.79,0-5.59.27-8.38.19-3-.09-6-.42-9.06-.7a11.2,11.2,0,0,1-4.72-1.61A67.34,67.34,0,0,1,99.67,49a17,17,0,0,1-4.76-5.3c-1-1.83-2.15-3.55-3.24-5.31-1-1.55-1.9-3.12-2.93-4.63a38.79,38.79,0,0,0-5.22-5.86c-2.63-2.57-5.43-4.94-8.11-7.46a44.72,44.72,0,0,0-5-3.65c-2.15-1.5-4.09-3.24-6.58-4.28-2.34-1-4.44-2.5-6.69-3.71a30.54,30.54,0,0,0-7.88-3.36A4.73,4.73,0,0,0,45.38,6c-1.61,1-3.25,2-4.94,2.92a56.58,56.58,0,0,1-7.8,3.66,18.8,18.8,0,0,0-5.91,3.1c-2,1.67-4.07,3.36-6,5.17A35.73,35.73,0,0,0,17.81,24.48ZM6.32,47.58c-.63,1.91-1.31,3.7-1.81,5.54a42.68,42.68,0,0,0-1.68,7.47,20.44,20.44,0,0,0,.14,6,2.56,2.56,0,0,0,1.82-2.15,4.75,4.75,0,0,1,1.8-2.68,36.09,36.09,0,0,1,12-7.65A14.37,14.37,0,0,1,29.17,54a29.92,29.92,0,0,1,4.68,2.31,61.14,61.14,0,0,1,5.47,3.85,23.64,23.64,0,0,1,3.88,3.52,13.19,13.19,0,0,1,3,5.12,7.16,7.16,0,0,0,.54,1.07c.9,2.21,1.89,4.4,2.68,6.65a31.23,31.23,0,0,0,5.27,9.85,35.28,35.28,0,0,0,4,4.11c2.82,2.47,5.68,4.9,9.38,6a10.73,10.73,0,0,1,2,.87,29.89,29.89,0,0,1,9.83,8.57,14.28,14.28,0,0,1,1.53,2.42,73.37,73.37,0,0,1,3.7,10.09c.47,1.55.14,3.44,1.65,4.63.08.07.06.31,0,.46-.22,1.27.44,2.29.74,3.33.22.07.3.12.36.11,4.42-1.33,8.94-2.3,13.13-4.38,3.14-1.55,6.44-2.79,9.64-4.24a8.32,8.32,0,0,0,2.57-1.69c2.44-2.53,4.79-5.15,7.13-7.76a3.63,3.63,0,0,0,.5-1.17c-1.87-.58-3.61-1.15-5.37-1.65a5.11,5.11,0,0,1-2.41-1.48,38,38,0,0,1-4.25-5.76c-.29-.46-.35-1.06-.6-1.55a18.71,18.71,0,0,0-4.14-5.2,31.28,31.28,0,0,0-6.71-4.53,38.71,38.71,0,0,0-6.73-2.47,20.47,20.47,0,0,1-3.55-1.35c-.78-.39-1.39-1.09-2.16-1.48a36.46,36.46,0,0,1-9-6.69q-2.58-2.49-5-5.13c-1.66-1.81-3.59-3.36-5.2-5.24-2.18-2.54-4.65-4.83-6.87-7.35A46.29,46.29,0,0,0,53,52.63a52.32,52.32,0,0,0-6.05-3.84c-2-1.24-3.91-2.79-6.44-2.91a18.16,18.16,0,0,0-5.82-1.21c-3.24-.35-6.49-.66-9.74-1a6.17,6.17,0,0,0-1.66.12c-1.1.2-2.18.5-3.28.69a2.78,2.78,0,0,1-1.62,0,2.47,2.47,0,0,0-2.06,0,12,12,0,0,1-1.86.45A30.23,30.23,0,0,0,6.32,47.58ZM5.68,79.73c1.78.41,2.77,1.76,3.87,3a19.59,19.59,0,0,1,3.37,6.3,9.92,9.92,0,0,0,1.71,2.85,25.36,25.36,0,0,0,4.92,4.15,13.66,13.66,0,0,0,8,2.85,17,17,0,0,1,4.73.59,44.33,44.33,0,0,1,6.62,2.73,10.66,10.66,0,0,1,3.64,2.67c.9,1.12,1.84,2.21,2.75,3.31a18.62,18.62,0,0,0,6.22,5.13,7,7,0,0,1,1.64,1.36c.57.55,1.11,1.13,1.63,1.74a11.62,11.62,0,0,1,1.29,1.69,10.6,10.6,0,0,1,1.15,8.31,5,5,0,0,1-2,3.37c-.08.05-.05.29-.09.58a16.91,16.91,0,0,1,2.77.33,38.75,38.75,0,0,0,8.29,1.07,16.28,16.28,0,0,0,5.48-.3c3.83-1.09,7.64-2.24,11.46-3.37a2.57,2.57,0,0,0,.55-.32,7.37,7.37,0,0,0,.5-5.64c-.59-2.06-1.24-4.11-1.85-6.18a22.55,22.55,0,0,0-5.54-9.33c-1.83-1.9-3.72-3.74-5.41-5.76a8.2,8.2,0,0,0-3.88-2.64c-.91-.29-1.84-.52-2.75-.82a9.87,9.87,0,0,1-2.43-.93c-2.51-1.7-4.94-3.5-7.39-5.28a5.2,5.2,0,0,1-.89-.8,25.26,25.26,0,0,1-4.7-8c-1-2.85-1.56-5.85-2.71-8.67a37,37,0,0,0-3-6.46,17.29,17.29,0,0,0-5.77-5.61,72.32,72.32,0,0,0-7.53-3.62c-3.85-1.65-7.76-1.49-11.71-.46a17.38,17.38,0,0,0-5.67,3,29.81,29.81,0,0,1-6,3.55C6.06,66.14,5,67.92,2.73,68.49,3,72.49,5.1,75.87,5.68,79.73ZM7.23,45.07a6.39,6.39,0,0,0,1.59-.29,13,13,0,0,1,4.36-1.17c1.11-.17,2.19-.48,3.29-.64,2.22-.32,4.3-1.25,6.56-1.33.79,0,1.58-.21,2.37-.3,1-.1,1.9-.21,2.86-.26a31.42,31.42,0,0,1,5.72.49,32.55,32.55,0,0,1,10.14,2.61,32,32,0,0,1,7,4.12,67,67,0,0,1,9.78,9.12c1.46,1.79,3.1,3.44,4.58,5.22a18.94,18.94,0,0,0,2.84,2.89c.81.64,1.59,1.33,2.4,2,1,.78,2.07,1.47,3,2.32,2.15,2,4.22,4.11,6.36,6.14a21.41,21.41,0,0,0,4.29,3.4,14,14,0,0,1,1.53,1.12A12.12,12.12,0,0,0,90.2,83c1.78.44,3.51,1,5.24,1.65A15.83,15.83,0,0,1,98.51,86c1.69,1,3.33,2.18,4.92,3.38a20.3,20.3,0,0,1,5.92,6.81,36.1,36.1,0,0,0,4.09,5.59,3.14,3.14,0,0,0,1.47,1.18c1.68.42,3.27,1.27,5.08,1.14,1-.07,2.07,0,3.19,0,1.35-2.6,3.5-4.76,4-7.76-2.1-1.78-3.4-2.26-5.77-2.18a6,6,0,0,1-1.2-.08c-3.22-.57-6.43-1.09-9.33-2.8a32.35,32.35,0,0,1-3.21-2.45A51.1,51.1,0,0,0,103.23,86q-2.57-1.54-5.16-3a7.21,7.21,0,0,1-3.23-3.38,13.92,13.92,0,0,0-2.77-3.87c-1.74-1.74-3.69-3.28-5.58-4.86a42.7,42.7,0,0,0-8.27-5.26C75.94,64.4,73.85,63,71.7,61.64c-.8-.5-1.38-1.36-2.2-1.82A11.55,11.55,0,0,1,66,56.57c-1.71-2.21-3.43-4.4-5.1-6.64-.7-1-1.16-2.1-1.93-3-2.86-3.32-5.62-6.76-9.51-9-2.28-1.31-4.52-2.68-7.19-3.16a51.1,51.1,0,0,1-6.82-1.25,13.47,13.47,0,0,0-5.22-.47,11.07,11.07,0,0,1-5.12-1,29.55,29.55,0,0,1-6-3.43,4.11,4.11,0,0,1-2-2.39,34.2,34.2,0,0,0-1.71,3.07,11.89,11.89,0,0,1-2.6,3.68,13.35,13.35,0,0,0-2.69,3.33A31.39,31.39,0,0,0,7.23,45.07Zm119.16-5.49c-.83.76-1.42,1.28-2,1.82a6.22,6.22,0,0,1-3.87,1.72,15.08,15.08,0,0,1-7.93-1.42c-1.51-.72-3-1.5-4.45-2.33s-2.79-1.55-3.56-3.07a5.08,5.08,0,0,0-.93-1.1c-.7-.76-1.46-1.47-2.11-2.27-1-1.17-1.87-2.37-2.73-3.61A21.73,21.73,0,0,1,97,26.24,5.85,5.85,0,0,0,92.8,23a3.37,3.37,0,0,1-2.1-1.45,14,14,0,0,1-1.86-3.33,9.66,9.66,0,0,0-4.43-5.44,12.53,12.53,0,0,1-3.54-3.53A6,6,0,0,1,79.5,5.52a5.27,5.27,0,0,0-.18-.75A15.21,15.21,0,0,1,73,3.53a14.27,14.27,0,0,0-6.5-1.26,5.41,5.41,0,0,1-1.2-.1c-2.64-.47-5.26,0-7.87.26-2.3.2-4.59.6-6.87.94-.24,0-.45.27-.69.42.15.2.19.29.26.32,3.85,1.52,7.7,3,11.55,4.55a15.88,15.88,0,0,1,2.16,1C65.92,10.91,68,12.14,70,13.43c.94.59,1.72,1.48,2.7,2,3,1.53,4.92,4.56,7.94,6.1.27.13.44.46.65.69,1.67,1.82,3.39,3.6,5,5.47,1.34,1.57,2.55,3.25,3.81,4.89a1.27,1.27,0,0,1,.16.45,6.44,6.44,0,0,0,2,3.21,7.55,7.55,0,0,1,1.13,1.54c1.09,1.76,2.12,3.57,3.23,5.32a11.05,11.05,0,0,0,1.64,2,29,29,0,0,0,8,5.63c.86.4,1.71.85,2.6,1.17a39.62,39.62,0,0,0,13.68,2c2.7,0,5.41-.41,8.12.12.32.06.71-.21,1.18-.35C129.89,49,128.68,44.27,126.39,39.58ZM6.35,82.13a7.64,7.64,0,0,0,.12,3.06,13.73,13.73,0,0,1,.62,2.55,63.88,63.88,0,0,0,1.39,8c.58,3.31,2.52,5.82,4.6,8.24,1.76,2.05,3.67,4,5.51,6,1,1.06,1.89,2.17,2.89,3.19a46,46,0,0,0,9.84,7.14A41.18,41.18,0,0,1,37,123.7c2.24,1.84,5.06,2.71,7.71,3.78a46.55,46.55,0,0,1,4.55,2.06,10.05,10.05,0,0,0,1.14.46,20,20,0,0,1,2.4-.91,1.75,1.75,0,0,0,1.36-1.2c.82-2.55.33-5-.43-7.5a.63.63,0,0,0-.27-.38c-.94-.5-1.15-1.5-1.6-2.33a6.74,6.74,0,0,0-2.21-2.45,29.21,29.21,0,0,1-6.93-6.88,14.73,14.73,0,0,0-4-4.06,27.15,27.15,0,0,0-6.75-3,13.35,13.35,0,0,0-3.78-.5c-4.74,0-8.88-1.71-12.69-4.4a9,9,0,0,1-2.84-3.2c-.72-1.41-1.23-2.94-1.83-4.41-.49-1.18-.93-2.38-1.47-3.53A7.75,7.75,0,0,0,6.35,82.13ZM125.81,38c-.78-1.51-1.35-2.74-2-3.9-2.7-4.55-6.14-8.57-9.32-12.77a2.45,2.45,0,0,0-.6-.44,6.53,6.53,0,0,1-1.24.72,4.81,4.81,0,0,1-2.06.42,8,8,0,0,1-5.75-3.06c-.47-.65-1-1.27-1.48-1.89-1.31-1.6-2.56-3.25-4.68-3.91a3.74,3.74,0,0,1-1.35-1,5.9,5.9,0,0,1-2.1-3.82A8.75,8.75,0,0,0,91.53,7a9,9,0,0,1-2.32-.54,19.81,19.81,0,0,0-5.12-1.17c-.75-.14-1.66-.4-2.21.42s0,1.69.21,2.51a2.05,2.05,0,0,0,.4.59,10.53,10.53,0,0,0,3.39,3,8.57,8.57,0,0,1,4.45,5c.19.6.56,1.15.79,1.74a5.29,5.29,0,0,0,3.49,3.37,3.86,3.86,0,0,1,2,1.31c.66.8,1.31,1.61,1.91,2.45,1,1.37,1.78,2.85,2.84,4.13a64.45,64.45,0,0,0,5.19,5.63A43.2,43.2,0,0,0,111.3,39a3.6,3.6,0,0,0,1.36.41c1.88.39,3.75.83,5.64,1.12,2.44.37,4.78.19,6.57-1.88A5.58,5.58,0,0,1,125.81,38ZM107,18.51c.8.22,1.55.47,2.32.64a3.28,3.28,0,0,0,1.17,0,.85.85,0,0,0,.51-1.44,15.16,15.16,0,0,0-2-1.65q-3.87-2.55-7.79-5a9.57,9.57,0,0,0-3.65-1.65,2.41,2.41,0,0,0,.12.6,5.12,5.12,0,0,0,2.63,2,8.78,8.78,0,0,1,3.9,3Z"/><path class="cls-1" d="M17.81,24.48a35.73,35.73,0,0,1,3-3.63c1.9-1.81,3.93-3.5,6-5.17a18.8,18.8,0,0,1,5.91-3.1,56.58,56.58,0,0,0,7.8-3.66C42.13,8,43.77,7,45.38,6a4.73,4.73,0,0,1,3.85-.57,30.54,30.54,0,0,1,7.88,3.36c2.25,1.21,4.35,2.73,6.69,3.71,2.49,1,4.43,2.78,6.58,4.28a44.72,44.72,0,0,1,5,3.65c2.68,2.52,5.48,4.89,8.11,7.46a38.79,38.79,0,0,1,5.22,5.86c1,1.51,2,3.08,2.93,4.63,1.09,1.76,2.25,3.48,3.24,5.31A17,17,0,0,0,99.67,49a67.34,67.34,0,0,0,6.78,4.48,11.2,11.2,0,0,0,4.72,1.61c3,.28,6,.61,9.06.7,2.79.08,5.59-.14,8.38-.19a23.25,23.25,0,0,1,2.63.12c1,.08,1.3.32,1.4,1.3q.26,2.75.3,5.49c0,2.31,0,4.63-.09,6.94-.07,1.83-.27,3.65-.4,5.48-.12,1.67-.19,3.35-.35,5a42.31,42.31,0,0,1-2.49,10.46c-.46,1.25-.89,2.52-1.4,4l-1.3-.75A10.61,10.61,0,0,0,121,92a16.39,16.39,0,0,1-7.43-1.53,12.06,12.06,0,0,1-4.41-2.78c-2.72-1.35-4.86-3.61-7.66-4.84A18.84,18.84,0,0,1,98.44,81a5.33,5.33,0,0,1-1.71-2c-1.92-3.7-5-6.39-8.08-9a46.05,46.05,0,0,0-6.55-4.41A29.09,29.09,0,0,1,77,61.76a10,10,0,0,0-2.07-1.6,22.46,22.46,0,0,1-5-4.07c-.62-.61-1.22-1.23-1.84-1.85a80.08,80.08,0,0,1-6.71-7.07c-1.46-1.87-3.23-3.49-4.49-5.56a9,9,0,0,0-2.23-2.15C52.7,37.94,50.77,36.37,48.7,35A36.07,36.07,0,0,0,44,32.74c-.8-.37-1.63-.64-2.41-1a9.16,9.16,0,0,0-5.12-.8A28.35,28.35,0,0,1,30,31a24.85,24.85,0,0,1-5.7-1.75,25.37,25.37,0,0,1-3.1-1.79A12.69,12.69,0,0,1,17.81,24.48Z"/><path class="cls-2" d="M6.32,47.58A30.23,30.23,0,0,1,14.46,45a12,12,0,0,0,1.86-.45,2.47,2.47,0,0,1,2.06,0,2.78,2.78,0,0,0,1.62,0c1.1-.19,2.18-.49,3.28-.69a6.17,6.17,0,0,1,1.66-.12c3.25.3,6.5.61,9.74,1a18.16,18.16,0,0,1,5.82,1.21c2.53.12,4.39,1.67,6.44,2.91A52.32,52.32,0,0,1,53,52.63a46.29,46.29,0,0,1,5.88,5.23c2.22,2.52,4.69,4.81,6.87,7.35,1.61,1.88,3.54,3.43,5.2,5.24s3.29,3.47,5,5.13a36.46,36.46,0,0,0,9,6.69c.77.39,1.38,1.09,2.16,1.48a20.47,20.47,0,0,0,3.55,1.35,38.71,38.71,0,0,1,6.73,2.47,31.28,31.28,0,0,1,6.71,4.53,18.71,18.71,0,0,1,4.14,5.2c.25.49.31,1.09.6,1.55a38,38,0,0,0,4.25,5.76,5.11,5.11,0,0,0,2.41,1.48c1.76.5,3.5,1.07,5.37,1.65a3.63,3.63,0,0,1-.5,1.17c-2.34,2.61-4.69,5.23-7.13,7.76a8.32,8.32,0,0,1-2.57,1.69c-3.2,1.45-6.5,2.69-9.64,4.24-4.19,2.08-8.71,3.05-13.13,4.38-.06,0-.14,0-.36-.11-.3-1-1-2.06-.74-3.33,0-.15,0-.39,0-.46-1.51-1.19-1.18-3.08-1.65-4.63a73.37,73.37,0,0,0-3.7-10.09,14.28,14.28,0,0,0-1.53-2.42A29.89,29.89,0,0,0,70,97.37a10.73,10.73,0,0,0-2-.87c-3.7-1.13-6.56-3.56-9.38-6a35.28,35.28,0,0,1-4-4.11,31.23,31.23,0,0,1-5.27-9.85c-.79-2.25-1.78-4.44-2.68-6.65a7.16,7.16,0,0,1-.54-1.07,13.19,13.19,0,0,0-3-5.12,23.64,23.64,0,0,0-3.88-3.52,61.14,61.14,0,0,0-5.47-3.85A29.92,29.92,0,0,0,29.17,54a14.37,14.37,0,0,0-10.54.11,36.09,36.09,0,0,0-12,7.65,4.75,4.75,0,0,0-1.8,2.68A2.56,2.56,0,0,1,3,66.58a20.44,20.44,0,0,1-.14-6,42.68,42.68,0,0,1,1.68-7.47C5,51.28,5.69,49.49,6.32,47.58Z"/><path class="cls-3" d="M5.68,79.73C5.1,75.87,3,72.49,2.73,68.49c2.3-.57,3.33-2.35,4.14-4.29a29.81,29.81,0,0,0,6-3.55,17.38,17.38,0,0,1,5.67-3c3.95-1,7.86-1.19,11.71.46a72.32,72.32,0,0,1,7.53,3.62,17.29,17.29,0,0,1,5.77,5.61,37,37,0,0,1,3,6.46c1.15,2.82,1.67,5.82,2.71,8.67a25.26,25.26,0,0,0,4.7,8,5.2,5.2,0,0,0,.89.8C57.36,93,59.79,94.8,62.3,96.5a9.87,9.87,0,0,0,2.43.93c.91.3,1.84.53,2.75.82a8.2,8.2,0,0,1,3.88,2.64c1.69,2,3.58,3.86,5.41,5.76A22.55,22.55,0,0,1,82.31,116c.61,2.07,1.26,4.12,1.85,6.18a7.37,7.37,0,0,1-.5,5.64,2.57,2.57,0,0,1-.55.32c-3.82,1.13-7.63,2.28-11.46,3.37a16.28,16.28,0,0,1-5.48.3,38.75,38.75,0,0,1-8.29-1.07,16.91,16.91,0,0,0-2.77-.33c0-.29,0-.53.09-.58a5,5,0,0,0,2-3.37,10.6,10.6,0,0,0-1.15-8.31,11.62,11.62,0,0,0-1.29-1.69c-.52-.61-1.06-1.19-1.63-1.74a7,7,0,0,0-1.64-1.36,18.62,18.62,0,0,1-6.22-5.13c-.91-1.1-1.85-2.19-2.75-3.31a10.66,10.66,0,0,0-3.64-2.67,44.33,44.33,0,0,0-6.62-2.73,17,17,0,0,0-4.73-.59,13.66,13.66,0,0,1-8-2.85,25.36,25.36,0,0,1-4.92-4.15,9.92,9.92,0,0,1-1.71-2.85,19.59,19.59,0,0,0-3.37-6.3C8.45,81.49,7.46,80.14,5.68,79.73Z"/><path class="cls-4" d="M7.23,45.07a31.39,31.39,0,0,1,2.9-8.69,13.35,13.35,0,0,1,2.69-3.33,11.89,11.89,0,0,0,2.6-3.68,34.2,34.2,0,0,1,1.71-3.07,4.11,4.11,0,0,0,2,2.39,29.55,29.55,0,0,0,6,3.43,11.07,11.07,0,0,0,5.12,1,13.47,13.47,0,0,1,5.22.47,51.1,51.1,0,0,0,6.82,1.25c2.67.48,4.91,1.85,7.19,3.16,3.89,2.23,6.65,5.67,9.51,9,.77.89,1.23,2,1.93,3,1.67,2.24,3.39,4.43,5.1,6.64a11.55,11.55,0,0,0,3.46,3.25c.82.46,1.4,1.32,2.2,1.82,2.15,1.34,4.24,2.76,6.52,3.93a42.7,42.7,0,0,1,8.27,5.26c1.89,1.58,3.84,3.12,5.58,4.86a13.92,13.92,0,0,1,2.77,3.87,7.21,7.21,0,0,0,3.23,3.38q2.59,1.47,5.16,3a51.1,51.1,0,0,1,4.44,2.81,32.35,32.35,0,0,0,3.21,2.45c2.9,1.71,6.11,2.23,9.33,2.8a6,6,0,0,0,1.2.08c2.37-.08,3.67.4,5.77,2.18-.5,3-2.65,5.16-4,7.76-1.12,0-2.16-.06-3.19,0-1.81.13-3.4-.72-5.08-1.14a3.14,3.14,0,0,1-1.47-1.18,36.1,36.1,0,0,1-4.09-5.59,20.3,20.3,0,0,0-5.92-6.81c-1.59-1.2-3.23-2.34-4.92-3.38a15.83,15.83,0,0,0-3.07-1.33C93.71,84,92,83.41,90.2,83a12.12,12.12,0,0,1-4.32-2.49,14,14,0,0,0-1.53-1.12A21.41,21.41,0,0,1,80.06,76c-2.14-2-4.21-4.13-6.36-6.14-.93-.85-2-1.54-3-2.32-.81-.64-1.59-1.33-2.4-2a18.94,18.94,0,0,1-2.84-2.89c-1.48-1.78-3.12-3.43-4.58-5.22A67,67,0,0,0,51.1,48.3a32,32,0,0,0-7-4.12A32.55,32.55,0,0,0,34,41.57a31.42,31.42,0,0,0-5.72-.49c-1,.05-1.91.16-2.86.26-.79.09-1.58.27-2.37.3-2.26.08-4.34,1-6.56,1.33-1.1.16-2.18.47-3.29.64a13,13,0,0,0-4.36,1.17A6.39,6.39,0,0,1,7.23,45.07Z"/><path class="cls-5" d="M126.39,39.58c2.29,4.69,3.5,9.42,5.39,14.06-.47.14-.86.41-1.18.35-2.71-.53-5.42-.15-8.12-.12a39.62,39.62,0,0,1-13.68-2c-.89-.32-1.74-.77-2.6-1.17a29,29,0,0,1-8-5.63,11.05,11.05,0,0,1-1.64-2c-1.11-1.75-2.14-3.56-3.23-5.32a7.55,7.55,0,0,0-1.13-1.54,6.44,6.44,0,0,1-2-3.21,1.27,1.27,0,0,0-.16-.45c-1.26-1.64-2.47-3.32-3.81-4.89-1.61-1.87-3.33-3.65-5-5.47-.21-.23-.38-.56-.65-.69-3-1.54-4.9-4.57-7.94-6.1-1-.5-1.76-1.39-2.7-2-2-1.29-4.06-2.52-6.12-3.73a15.88,15.88,0,0,0-2.16-1c-3.85-1.53-7.7-3-11.55-4.55-.07,0-.11-.12-.26-.32.24-.15.45-.39.69-.42,2.28-.34,4.57-.74,6.87-.94,2.61-.22,5.23-.73,7.87-.26a5.41,5.41,0,0,0,1.2.1A14.27,14.27,0,0,1,73,3.53a15.21,15.21,0,0,0,6.3,1.24,5.27,5.27,0,0,1,.18.75,6,6,0,0,0,1.37,3.73,12.53,12.53,0,0,0,3.54,3.53,9.66,9.66,0,0,1,4.43,5.44,14,14,0,0,0,1.86,3.33A3.37,3.37,0,0,0,92.8,23,5.85,5.85,0,0,1,97,26.24a21.73,21.73,0,0,0,1.83,3.08c.86,1.24,1.78,2.44,2.73,3.61.65.8,1.41,1.51,2.11,2.27a5.08,5.08,0,0,1,.93,1.1c.77,1.52,2.19,2.28,3.56,3.07s2.94,1.61,4.45,2.33a15.08,15.08,0,0,0,7.93,1.42,6.22,6.22,0,0,0,3.87-1.72C125,40.86,125.56,40.34,126.39,39.58Z"/><path class="cls-1" d="M6.35,82.13a7.75,7.75,0,0,1,3,3.09c.54,1.15,1,2.35,1.47,3.53.6,1.47,1.11,3,1.83,4.41a9,9,0,0,0,2.84,3.2c3.81,2.69,8,4.45,12.69,4.4a13.35,13.35,0,0,1,3.78.5,27.15,27.15,0,0,1,6.75,3,14.73,14.73,0,0,1,4,4.06,29.21,29.21,0,0,0,6.93,6.88,6.74,6.74,0,0,1,2.21,2.45c.45.83.66,1.83,1.6,2.33a.63.63,0,0,1,.27.38c.76,2.47,1.25,5,.43,7.5a1.75,1.75,0,0,1-1.36,1.2,20,20,0,0,0-2.4.91,10.05,10.05,0,0,1-1.14-.46,46.55,46.55,0,0,0-4.55-2.06c-2.65-1.07-5.47-1.94-7.71-3.78a41.18,41.18,0,0,0-5.69-3.41,46,46,0,0,1-9.84-7.14c-1-1-1.92-2.13-2.89-3.19-1.84-2-3.75-3.92-5.51-6-2.08-2.42-4-4.93-4.6-8.24a63.88,63.88,0,0,1-1.39-8,13.73,13.73,0,0,0-.62-2.55A7.64,7.64,0,0,1,6.35,82.13Z"/><path class="cls-3" d="M125.81,38a5.58,5.58,0,0,0-.94.69c-1.79,2.07-4.13,2.25-6.57,1.88-1.89-.29-3.76-.73-5.64-1.12A3.6,3.6,0,0,1,111.3,39a43.2,43.2,0,0,1-4.8-3.56,64.45,64.45,0,0,1-5.19-5.63c-1.06-1.28-1.88-2.76-2.84-4.13-.6-.84-1.25-1.65-1.91-2.45a3.86,3.86,0,0,0-2-1.31,5.29,5.29,0,0,1-3.49-3.37c-.23-.59-.6-1.14-.79-1.74a8.57,8.57,0,0,0-4.45-5,10.53,10.53,0,0,1-3.39-3,2.05,2.05,0,0,1-.4-.59c-.21-.82-.77-1.67-.21-2.51s1.46-.56,2.21-.42a19.81,19.81,0,0,1,5.12,1.17A9,9,0,0,0,91.53,7,8.75,8.75,0,0,1,95.2,8.33a5.9,5.9,0,0,0,2.1,3.82,3.74,3.74,0,0,0,1.35,1c2.12.66,3.37,2.31,4.68,3.91.51.62,1,1.24,1.48,1.89A8,8,0,0,0,110.56,22a4.81,4.81,0,0,0,2.06-.42,6.53,6.53,0,0,0,1.24-.72,2.45,2.45,0,0,1,.6.44c3.18,4.2,6.62,8.22,9.32,12.77C124.46,35.22,125,36.45,125.81,38Z"/><path class="cls-4" d="M107,18.51,104.18,15a8.78,8.78,0,0,0-3.9-3,5.12,5.12,0,0,1-2.63-2,2.41,2.41,0,0,1-.12-.6,9.57,9.57,0,0,1,3.65,1.65q3.91,2.47,7.79,5a15.16,15.16,0,0,1,2,1.65.85.85,0,0,1-.51,1.44,3.28,3.28,0,0,1-1.17,0C108.54,19,107.79,18.73,107,18.51Z"/></g></g></svg>