<svg width="32" height="32" viewBox="0 0 32 32" fill="none" xmlns="http://www.w3.org/2000/svg">
<path fill-rule="evenodd" clip-rule="evenodd" d="M16 32C24.8366 32 32 24.8366 32 16C32 7.16344 24.8366 0 16 0C7.16344 0 0 7.16344 0 16C0 24.8366 7.16344 32 16 32ZM15.7461 20.7586C15.7461 20.4951 15.6286 20.3633 15.3938 20.3633C15.2964 20.3633 15.2104 20.3919 15.1359 20.4492C15.0615 20.5065 14.9612 20.6096 14.8352 20.7586C14.4857 21.1596 13.9643 21.4633 13.2711 21.6695C12.9617 21.7612 12.6466 21.8271 12.3258 21.8672C12.0049 21.9073 11.6898 21.9273 11.3805 21.9273C11.0711 21.9273 10.7159 21.893 10.3148 21.8242V10.807C10.6471 10.7383 11.0654 10.7039 11.5695 10.7039C12.0794 10.7039 12.6438 10.7984 13.2625 10.9875C13.5661 11.0849 13.844 11.1995 14.0961 11.3313C14.3539 11.463 14.5573 11.612 14.7063 11.7781C14.8552 11.9385 15.0214 12.0188 15.2047 12.0188C15.2964 12.0188 15.3766 11.9786 15.4453 11.8984C15.5198 11.8182 15.557 11.7237 15.557 11.6148C15.557 11.3456 15.1245 11.019 14.2594 10.6352C13.4458 10.2685 12.5034 10.0852 11.432 10.0852C9.52422 10.0852 7.9401 10.6552 6.67969 11.7953C6.08385 12.3339 5.61693 12.9813 5.27891 13.7375C4.94089 14.488 4.77188 15.313 4.77188 16.2125C4.77188 18.0802 5.37057 19.6042 6.56797 20.7844C7.14089 21.3458 7.83125 21.7841 8.63906 22.0992C9.4526 22.4086 10.2977 22.5633 11.1742 22.5633C12.0508 22.5633 12.8872 22.4458 13.6836 22.2109C14.1076 22.0849 14.6289 21.8185 15.2477 21.4117C15.5799 21.194 15.7461 20.9763 15.7461 20.7586ZM26.9008 10.5148C26.9008 10.2685 26.7833 10.1453 26.5484 10.1453C26.4109 10.1453 26.3049 10.1911 26.2305 10.2828C26.156 10.3688 26.0872 10.5263 26.0242 10.7555C25.9612 10.9846 25.8266 11.357 25.6203 11.8727L23.7039 16.668L20.9711 10.2398H16.2789L21.9336 22.8727L26.6 11.3484C26.6458 11.2453 26.706 11.1135 26.7805 10.9531C26.8607 10.787 26.9008 10.6409 26.9008 10.5148Z" fill="#D9A750"/>
</svg>
