<svg xmlns="http://www.w3.org/2000/svg" viewBox="0 0 232.39 234.06"><defs><style>.cls-1{fill:#1d1d1b;}.cls-2{fill:#e9e8e8;}.cls-3{fill:#68423e;}</style></defs><g id="Calque_2" data-name="Calque 2"><g id="Calque_1-2" data-name="Calque 1"><path class="cls-1" d="M115.19,228.41a7.35,7.35,0,0,0-6.1,1.29,4.91,4.91,0,0,1-3.39,1,46.33,46.33,0,0,1-7.09-1q-6-1.64-12.07-3c-3.51-.79-6.89-2-10.3-3.13-1.44-.47-2.86-1-4.27-1.56a18.74,18.74,0,0,1-6.33-3.75c-3-1.61-5.8-3.67-9.12-4.64-1.83-.54-3.72-.9-5.58-1.33a18.68,18.68,0,0,1-8.18-3.79,25.93,25.93,0,0,0-2.38-1.59c-3.51-2.43-6.27-5.66-9.14-8.76a38.41,38.41,0,0,1-4.37-5.08c-.34-.53-.67-1.08-1-1.63a4.06,4.06,0,0,1-.36-3.9c1.11-2.42.28-4.31-1.44-6-.12-.11-.21-.25-.33-.35-2.59-2.35-4.25-5.36-6-8.34-.6-1-1.33-2-1.89-3.05a46.16,46.16,0,0,1-2.06-4.32c-.84-2.06-1.67-4.14-2.31-6.27-1.19-4-2.32-8-3.34-12-.57-2.24-.87-4.54-1.29-6.81a1.85,1.85,0,0,0-.08-.47c-1.65-3-1.78-6.4-2.4-9.67a9.53,9.53,0,0,0-2-4.54c-.62-.73-1.18-1.51-1.75-2.28a4.11,4.11,0,0,1,.16-4.67,2.19,2.19,0,0,1,.34-.34c2.59-2.06,3-4.81,2.22-7.78a13.3,13.3,0,0,1-.26-4.74,56.25,56.25,0,0,1,1-7.59c1.23-5,2.76-9.84,4.16-14.76,1.29-2.33,1.78-4.94,2.66-7.42,1-2.93,2.19-5.83,3-8.82A41.81,41.81,0,0,0,15,60.52,6.91,6.91,0,0,0,14.53,58,7,7,0,0,1,16,51a14,14,0,0,0,2.9-4.91c.79-2.54,2.59-4.13,4.64-5.58.64-.45,1.26-1,1.87-1.44a25.16,25.16,0,0,1,3.38-2.61c1.5-.82,2.45-2.26,3.59-3.49s2.05-2.24,3.15-3.28a8.7,8.7,0,0,1,8.17-2.31,4.79,4.79,0,0,0,3.61-.73,27.23,27.23,0,0,0,4.48-3.17c2.95-2.61,6.44-4.34,9.82-6.29,3.9-2.25,8.15-3.65,12.24-5.43A66.24,66.24,0,0,0,84,6.94c1.94-1.26,3.76-2.7,5.62-4.08.64-.47,1.26-1,1.87-1.49A3.8,3.8,0,0,1,95,.61a30.82,30.82,0,0,1,4.25,1.54,7.68,7.68,0,0,0,3.91.65A78,78,0,0,0,114.28,1a26.51,26.51,0,0,1,6.66-.71A29.16,29.16,0,0,0,125,.11a28.48,28.48,0,0,1,12,1.64c2.57.87,5.17,1.66,7.69,2.68a6.61,6.61,0,0,0,4.22.25,30.88,30.88,0,0,0,5-1.53,5.49,5.49,0,0,1,5.27.21,40.65,40.65,0,0,1,6.44,4.54,6.05,6.05,0,0,1,1.92,3.51A4.65,4.65,0,0,0,170.67,15a2.87,2.87,0,0,0,2.3.09,5.27,5.27,0,0,1,2.09-.33,2.76,2.76,0,0,1,2.84,2.13,7.32,7.32,0,0,0,3.53,4.34c1.87,1.21,3.58,2.66,5.38,4,.83.61,1.73,1.14,2.58,1.72a8.2,8.2,0,0,1,1.15.86c1.86,1.75,3.81,3.42,5.51,5.31a49.12,49.12,0,0,0,5.09,4.7c1.16,1,2.42,1.83,3.47,2.9a10.11,10.11,0,0,1,2.33,4.12,2.77,2.77,0,0,0,.26.91c1.75,2.27,3,4.93,5.25,6.8.92.76,2,1.38,2.9,2.1a6.3,6.3,0,0,1,1.22,1.14,81.51,81.51,0,0,1,5.48,7.8,1.14,1.14,0,0,1,.19.42c.22,2.52,1.79,4.3,3.24,6.18a27.78,27.78,0,0,1,2.6,4,32.27,32.27,0,0,1,2.95,7,21.57,21.57,0,0,1,.51,3.3c.1,1.11.09,2.24.11,3.36a4.16,4.16,0,0,1,0,1.41A12.69,12.69,0,0,0,231,94c0,.86-.06,1.74-.11,2.61-.1,1.75-.16,3.5-.33,5.25a12.26,12.26,0,0,0,.45,5,36.57,36.57,0,0,1,1.36,7.77,11.92,11.92,0,0,1-1.4,6.24,6.57,6.57,0,0,0-.88,3.16c0,.55-.21,1.1-.25,1.66-.07,1-.14,2-.12,3.08,0,1.65.4,3.28,0,4.94a9.14,9.14,0,0,0-.09,2.16,16.45,16.45,0,0,1-2.23,8.7,14.57,14.57,0,0,0-1.71,5.69,20.45,20.45,0,0,0-.12,6,16.9,16.9,0,0,1-.1,3.09,5,5,0,0,0,0,1.4,3.06,3.06,0,0,1-.24,1.87c-.69,1.83-2.05,3.21-3.2,4.73a1.29,1.29,0,0,1-.6.38,10.4,10.4,0,0,0-5.57,5.62A82.1,82.1,0,0,1,207,187.22c-1.92,2.54-4,4.94-6.05,7.41-.1.12-.23.22-.32.35-2.27,3.69-5.77,6.14-9,8.9a58.66,58.66,0,0,1-7.55,5.46c-2.45,1.5-4.82,3.13-7.2,4.73a29.91,29.91,0,0,1-3.73,2.13,33.11,33.11,0,0,0-3.28,2,27.49,27.49,0,0,0-3.2,2.09,33.81,33.81,0,0,0-3.53,3.55,23.74,23.74,0,0,0-2.15,3.16,8.57,8.57,0,0,1-6.69,4.07,8.92,8.92,0,0,1-4.71-.57,4.16,4.16,0,0,0-4.08.4,6.51,6.51,0,0,1-3.17,1,9.65,9.65,0,0,1-5.83-1.68c-.06,0-.1-.13-.16-.17-1.12-.73-2.07-1.7-3.65-1.46a5.76,5.76,0,0,0-4.36,2.53,8.66,8.66,0,0,1-1.52,1.83,4.32,4.32,0,0,1-5.12.58,10.58,10.58,0,0,1-2.55-1.74C118,230.58,116.67,229.61,115.19,228.41ZM4.34,117.84c-.54.33-1.16.69-1.76,1.08a2.21,2.21,0,0,0-1,2,3.52,3.52,0,0,0,.9,2.17,15.8,15.8,0,0,1,3,5.14c.52,1.58,1,3.19,1.42,4.81.66,2.54,1.24,5.1,1.88,7.64.68,2.69,1.39,5.38,2.08,8.06.13.54.22,1.1.35,1.64.43,1.86.78,3.74,1.32,5.57.68,2.28,1.52,4.52,2.29,6.78a12,12,0,0,0,.51,1.34,68.15,68.15,0,0,0,3.68,7c1.25,1.85,2.35,3.79,3.6,5.63a35.94,35.94,0,0,0,2.78,3.6A13.45,13.45,0,0,1,27.59,184a4.39,4.39,0,0,1,.23,1.85,4.48,4.48,0,0,1-.39,1.85c-.76,1.54-.23,2.73.74,3.94,1.38,1.74,2.83,3.42,4.32,5.07a91.25,91.25,0,0,0,8.41,8.16,24.19,24.19,0,0,0,11.37,5.77c1.49.28,3,.59,4.42,1a21.16,21.16,0,0,1,6.17,3.14,4.72,4.72,0,0,0,1.62,1A2.91,2.91,0,0,1,66.42,217a2.38,2.38,0,0,0,.73.61c1.45.83,2.9,1.65,4.37,2.44s3.35,1.07,5,1.73c3.1,1.28,6.38,2,9.55,3a14.59,14.59,0,0,0,4.4,1,26.61,26.61,0,0,1,4.68.81c.62.1,1.2.44,1.82.54,2.51.39,5,.82,7.56,1.06a6.69,6.69,0,0,0,4.4-.81,7.57,7.57,0,0,1,1.77-.69c2.75-.84,5.21-.45,7.21,1.77a13.34,13.34,0,0,0,1.28,1.42c1,.81,2,1.58,3,2.31a1.88,1.88,0,0,0,2,0,5.89,5.89,0,0,0,2.45-2.22,6.93,6.93,0,0,1,4.66-3.08,4.91,4.91,0,0,1,4.13.66c.71.51,1.53.87,2.23,1.4a6.42,6.42,0,0,0,4.08,1,10.47,10.47,0,0,0,3.89-1.11,4.66,4.66,0,0,1,3.5-.11,9.16,9.16,0,0,0,7-.25,5.93,5.93,0,0,0,2.88-2.38c3.22-5.13,8-8.4,13.21-11.14a26.87,26.87,0,0,0,4.25-2.63c.62-.5,1.31-.91,1.94-1.38,2-1.47,4.08-2.76,6.12-4.14,3.49-2.39,6.64-5.22,9.9-7.92a22.58,22.58,0,0,0,4.1-4.3,29.33,29.33,0,0,1,2.54-3.46,53.7,53.7,0,0,0,3.5-4.2c1.44-1.81,2.65-3.77,4.17-5.52a46.85,46.85,0,0,0,6.11-9.69c.93-1.83,2.48-3.11,3.68-4.69a2.06,2.06,0,0,1,1.25-.65,3.49,3.49,0,0,0,2.4-1.79,7.11,7.11,0,0,0,1.53-5.6,32.82,32.82,0,0,1,.21-10,13.82,13.82,0,0,1,1.36-4.55,17.28,17.28,0,0,0,2-6.35c.24-2.62.48-5.23.7-7.85s.37-5.09.59-7.62a7.3,7.3,0,0,1,.79-3.23,7.89,7.89,0,0,0,.92-5.09,42.83,42.83,0,0,0-1.16-6.34,11.54,11.54,0,0,1-.24-6.61,4.74,4.74,0,0,0,.16-1.19c.2-3.58.41-7.17.58-10.75.06-1.43.08-2.87,0-4.3-.18-3.09-1.45-5.85-2.7-8.62-1.45-3.2-3.84-5.86-5.09-9.16a11.14,11.14,0,0,0-.74-1.23c-.27-.48-.5-1-.78-1.48-.48-.82-.94-1.66-1.48-2.44-.73-1-1.58-2-2.27-3.07a9.66,9.66,0,0,0-2-2.33,34,34,0,0,1-8.38-10c-.15-.28-.44-.53-.48-.82-.34-2.16-1.88-3.46-3.41-4.74s-3.28-2.54-4.9-3.83a16.77,16.77,0,0,1-1.59-1.45c-1.67-1.72-3.31-3.47-5-5.17-.5-.5-1.09-.9-1.64-1.36-2.39-2-5.16-3.48-7.31-5.78a18.7,18.7,0,0,0-1.93-1.4c-.61-.49-1.18-1-1.76-1.57a8.21,8.21,0,0,1-1.84-3.05,1.54,1.54,0,0,0-1.87-1.09,8.2,8.2,0,0,0-1.16.29,5,5,0,0,1-5.85-2.06,9.62,9.62,0,0,1-1.24-2.82,5.65,5.65,0,0,0-2.3-3.5c-1.45-1-2.91-2-4.27-3.06a4.49,4.49,0,0,0-5.13-.47c-.15.06-.29.14-.43.21a15,15,0,0,1-3.59,1.21,12.32,12.32,0,0,1-7.72-.62c-1.63-.64-3.33-1.09-5-1.62-.46-.15-.94-.24-1.37-.43C132.83,2,129,1.85,125.21,1.84c-1.91,0-3.82.12-5.73.24a25.55,25.55,0,0,0-2.61.35c-3.22.52-6.35,1.58-9.64,1.78-1.82.12-3.65.3-5.48.37a5.41,5.41,0,0,1-1.86-.34c-1.28-.43-2.54-1-3.81-1.43A4.16,4.16,0,0,0,91.1,4a24.33,24.33,0,0,1-5.34,4c-4.59,3-9.64,5-14.67,7a97.52,97.52,0,0,0-14.54,7.24c-1,.62-1.93,1.39-2.89,2.11-1.73,1.29-3.44,2.6-5.17,3.87a6.63,6.63,0,0,1-5,1.09,19.22,19.22,0,0,0-2.63-.09,5,5,0,0,0-2.91,1,15.12,15.12,0,0,0-3.05,2.68,35.84,35.84,0,0,1-7.19,6.62c-1.33,1-2.59,2.07-4,3a7.57,7.57,0,0,0-3.37,4.74,9.46,9.46,0,0,1-2.44,4.07c-1.84,2-2.58,4.17-1.47,6.77A8.64,8.64,0,0,1,16.54,64c-.75,2.68-1.6,5.33-2.42,8a17.68,17.68,0,0,0-.82,2.49,34.78,34.78,0,0,1-3,9.29,6.28,6.28,0,0,0-.42,1.12c-1,3.93-2.35,7.75-3.28,11.7-1,4.5-2.17,9-1.55,13.66.15,1.1.08,2.23.13,3.35A8.8,8.8,0,0,1,4.34,117.84Z"/><path class="cls-2" d="M4.34,117.84a8.8,8.8,0,0,0,.8-4.29c0-1.12,0-2.25-.13-3.35-.62-4.69.5-9.16,1.55-13.66.93-4,2.29-7.77,3.28-11.7a6.28,6.28,0,0,1,.42-1.12,34.78,34.78,0,0,0,3-9.29,17.68,17.68,0,0,1,.82-2.49c.82-2.66,1.67-5.31,2.42-8a8.64,8.64,0,0,0-.07-5.87c-1.11-2.6-.37-4.79,1.47-6.77a9.46,9.46,0,0,0,2.44-4.07,7.57,7.57,0,0,1,3.37-4.74c1.38-.91,2.64-2,4-3a35.84,35.84,0,0,0,7.19-6.62A15.12,15.12,0,0,1,38,30.22a5,5,0,0,1,2.91-1,19.22,19.22,0,0,1,2.63.09,6.63,6.63,0,0,0,5-1.09c1.73-1.27,3.44-2.58,5.17-3.87,1-.72,1.87-1.49,2.89-2.11A97.52,97.52,0,0,1,71.09,15c5-2,10.08-4,14.67-7A24.33,24.33,0,0,0,91.1,4a4.16,4.16,0,0,1,5-1.18c1.27.47,2.53,1,3.81,1.43a5.41,5.41,0,0,0,1.86.34c1.83-.07,3.66-.25,5.48-.37,3.29-.2,6.42-1.26,9.64-1.78a25.55,25.55,0,0,1,2.61-.35c1.91-.12,3.82-.24,5.73-.24,3.82,0,7.62.18,11.2,1.77.43.19.91.28,1.37.43,1.67.53,3.37,1,5,1.62a12.32,12.32,0,0,0,7.72.62,15,15,0,0,0,3.59-1.21c.14-.07.28-.15.43-.21a4.49,4.49,0,0,1,5.13.47c1.36,1.09,2.82,2.08,4.27,3.06a5.65,5.65,0,0,1,2.3,3.5,9.62,9.62,0,0,0,1.24,2.82,5,5,0,0,0,5.85,2.06,8.2,8.2,0,0,1,1.16-.29,1.54,1.54,0,0,1,1.87,1.09,8.21,8.21,0,0,0,1.84,3.05c.58.54,1.15,1.08,1.76,1.57a18.7,18.7,0,0,1,1.93,1.4c2.15,2.3,4.92,3.8,7.31,5.78.55.46,1.14.86,1.64,1.36,1.68,1.7,3.32,3.45,5,5.17a16.77,16.77,0,0,0,1.59,1.45c1.62,1.29,3.31,2.5,4.9,3.83s3.07,2.58,3.41,4.74c0,.29.33.54.48.82a34,34,0,0,0,8.38,10,9.66,9.66,0,0,1,2,2.33c.69,1.06,1.54,2,2.27,3.07.54.78,1,1.62,1.48,2.44.28.48.51,1,.78,1.48a11.14,11.14,0,0,1,.74,1.23c1.25,3.3,3.64,6,5.09,9.16,1.25,2.77,2.52,5.53,2.7,8.62.08,1.43.06,2.87,0,4.3-.17,3.58-.38,7.17-.58,10.75a4.74,4.74,0,0,1-.16,1.19,11.54,11.54,0,0,0,.24,6.61,42.83,42.83,0,0,1,1.16,6.34,7.89,7.89,0,0,1-.92,5.09,7.3,7.3,0,0,0-.79,3.23c-.22,2.53-.38,5.08-.59,7.62s-.46,5.23-.7,7.85a17.28,17.28,0,0,1-2,6.35,13.82,13.82,0,0,0-1.36,4.55,32.82,32.82,0,0,0-.21,10,7.11,7.11,0,0,1-1.53,5.6,3.49,3.49,0,0,1-2.4,1.79,2.06,2.06,0,0,0-1.25.65c-1.2,1.58-2.75,2.86-3.68,4.69a46.85,46.85,0,0,1-6.11,9.69c-1.52,1.75-2.73,3.71-4.17,5.52a53.7,53.7,0,0,1-3.5,4.2,29.33,29.33,0,0,0-2.54,3.46,22.58,22.58,0,0,1-4.1,4.3c-3.26,2.7-6.41,5.53-9.9,7.92-2,1.38-4.14,2.67-6.12,4.14-.63.47-1.32.88-1.94,1.38a26.87,26.87,0,0,1-4.25,2.63c-5.2,2.74-10,6-13.21,11.14a5.93,5.93,0,0,1-2.88,2.38,9.16,9.16,0,0,1-7,.25,4.66,4.66,0,0,0-3.5.11,10.47,10.47,0,0,1-3.89,1.11,6.42,6.42,0,0,1-4.08-1c-.7-.53-1.52-.89-2.23-1.4a4.91,4.91,0,0,0-4.13-.66,6.93,6.93,0,0,0-4.66,3.08,5.89,5.89,0,0,1-2.45,2.22,1.88,1.88,0,0,1-2,0c-1-.73-2.06-1.5-3-2.31a13.34,13.34,0,0,1-1.28-1.42c-2-2.22-4.46-2.61-7.21-1.77a7.57,7.57,0,0,0-1.77.69,6.69,6.69,0,0,1-4.4.81c-2.53-.24-5-.67-7.56-1.06-.62-.1-1.2-.44-1.82-.54a26.61,26.61,0,0,0-4.68-.81,14.59,14.59,0,0,1-4.4-1c-3.17-1.05-6.45-1.76-9.55-3-1.61-.66-3.4-.9-5-1.73s-2.92-1.61-4.37-2.44a2.38,2.38,0,0,1-.73-.61,2.91,2.91,0,0,0-1.94-1.23,4.72,4.72,0,0,1-1.62-1,21.16,21.16,0,0,0-6.17-3.14c-1.45-.41-2.93-.72-4.42-1a24.19,24.19,0,0,1-11.37-5.77,91.25,91.25,0,0,1-8.41-8.16c-1.49-1.65-2.94-3.33-4.32-5.07-1-1.21-1.5-2.4-.74-3.94a4.48,4.48,0,0,0,.39-1.85,4.39,4.39,0,0,0-.23-1.85,13.45,13.45,0,0,0-2.21-3.68,35.94,35.94,0,0,1-2.78-3.6c-1.25-1.84-2.35-3.78-3.6-5.63a68.15,68.15,0,0,1-3.68-7,12,12,0,0,1-.51-1.34c-.77-2.26-1.61-4.5-2.29-6.78-.54-1.83-.89-3.71-1.32-5.57-.13-.54-.22-1.1-.35-1.64-.69-2.68-1.4-5.37-2.08-8.06-.64-2.54-1.22-5.1-1.88-7.64-.42-1.62-.9-3.23-1.42-4.81a15.8,15.8,0,0,0-3-5.14,3.52,3.52,0,0,1-.9-2.17,2.21,2.21,0,0,1,1-2C3.18,118.53,3.8,118.17,4.34,117.84Zm216,45c.12-1.12,1.31-1.59,1.61-2.63-1.32,0-1.76.31-1.78,1.27a10.6,10.6,0,0,0,.16,1.38c-.39-.19-.78-.63-1.2-.06,0,.05,0,.15,0,.22l1-.2A1,1,0,0,1,220.32,162.83ZM147.1,42.07l.19-.5a6.48,6.48,0,0,1,1.33.21c2.69,1,5.37,2,8.06,3a22.23,22.23,0,0,1,7,4,52.74,52.74,0,0,0,6.72,5.35c3.61,2.2,5.62,9.83,3.31,13.3a2,2,0,0,0-.21.9.51.51,0,0,0,.23.39.49.49,0,0,0,.44,0,14.29,14.29,0,0,1,1.49-1.52,2.76,2.76,0,0,0,1.12-2.51c0-1.75,0-3.51-.16-5.27a6,6,0,0,0-.55-2.31,26.26,26.26,0,0,0-2.9-4.67,28.26,28.26,0,0,0-9.46-7.58,18,18,0,0,0-4.1-1.84,5.28,5.28,0,0,1-1.07-.52,35.59,35.59,0,0,0-11.05-2.89h-.24c-.56,0-1.2-.07-1.54.44a6.92,6.92,0,0,0-.55,1.58c-.48.12-1,.27-1.55.39-2,.45-3.26,1.89-4.47,3.39-.11,1.07-.89,1.86-1.22,2.83a13.33,13.33,0,0,0-.9,3.94,11.6,11.6,0,0,0,2.61,7.54c.85,1.06,1.79,2,2.57,3.13a28.07,28.07,0,0,0,9.52,8.25,14.56,14.56,0,0,0,8.32,1.66,19.41,19.41,0,0,1,3.57-.09,3.93,3.93,0,0,0,2.53-.54,30.56,30.56,0,0,0,3.37-2.27,3.94,3.94,0,0,0,1.58-3.8,11.64,11.64,0,0,0-.77-3c-.82-1.89-1.75-3.74-2.72-5.56A19.91,19.91,0,0,0,161,50.17c-2.12-1.4-4-3.1-6.38-4.16a2.12,2.12,0,0,1-.2-.12,32.11,32.11,0,0,0-6.19-3.06A4.06,4.06,0,0,1,147.1,42.07ZM158,147.88c.25-2.93.46-5.31.68-7.7a2.93,2.93,0,0,1,.18-.69c.62-1.73,1.2-3.47,1.87-5.17a20.35,20.35,0,0,1,2.89-5.2c.92-1.19,2.16-2.13,3.17-3.25a8.07,8.07,0,0,1,7.14-2.62c.47,0,.94.14,1.41.22a31.91,31.91,0,0,1,13.31,6.72,44.89,44.89,0,0,1,3.24,3.5,20,20,0,0,1,2.13,2.57,19.31,19.31,0,0,1,3,9.23,7.71,7.71,0,0,0,.2,1.67,9.14,9.14,0,0,1,0,4,19.27,19.27,0,0,0-.28,2.14,12.63,12.63,0,0,1-1.79,5.89c-1.67,2.9-3.45,5.74-5.07,8.67a6.2,6.2,0,0,1-3.24,3,4.87,4.87,0,0,0-1.46.78,1.41,1.41,0,0,0-.29,1c0,.13.56.35.8.29a7.51,7.51,0,0,0,4.69-2.63,21.58,21.58,0,0,1,2.79-3A21.52,21.52,0,0,0,200,156c.14-.62.42-1.22.53-1.84a42.14,42.14,0,0,0,.89-5.66c.13-3-.81-5.83-1.64-8.66a8.07,8.07,0,0,0-.73-1.51c-.5-.91-1-1.82-1.56-2.69a21.15,21.15,0,0,0-1.61-2.06,23.34,23.34,0,0,0-1.81-1.91c-2.74-2.56-5.39-5.23-8.91-6.77a13.94,13.94,0,0,1-1.83-1.14c-1.08-.68-2.14-1.39-3.24-2a9.34,9.34,0,0,0-5.74-1.29c-3,.33-6,1.16-8.12,3.62a6.85,6.85,0,0,1-.93.76,17.89,17.89,0,0,0-4.82,5.89c-.83,1.62-1.36,3.42-2.73,4.74a1.38,1.38,0,0,0-.25.67c-.32,1.72-.7,3.44-.93,5.17-.31,2.3-.54,4.6-.75,6.91a17.88,17.88,0,0,0-.06,3.35,41.53,41.53,0,0,0,1.94,9.6,30.19,30.19,0,0,0,6,10.78c3,3.19,6.54,5.36,11.17,5a7.7,7.7,0,0,1,1,0,10.93,10.93,0,0,0,4.39-1,.91.91,0,0,0,.39-.27c.16-.25.41-.56.36-.78s-.45-.41-.71-.43a3.17,3.17,0,0,0-1.17.23,12.47,12.47,0,0,1-5.9.55,5.64,5.64,0,0,1-1.8-.52,16.65,16.65,0,0,1-6.25-4.64,26.78,26.78,0,0,1-2.69-4.21,30.36,30.36,0,0,1-3.92-12.68c0-.48-.13-1-.19-1.42C158.19,150.2,158,148.78,158,147.88ZM19.64,50.68c-.25,1.56-.12,3.07-.77,4.51a3.75,3.75,0,0,0,.19,3c.09.21.22.49.4.56a1.89,1.89,0,0,0,1.09.15c.17,0,.32-.5.34-.77a14.68,14.68,0,0,1,0-1.88,17.09,17.09,0,0,1,4.8-8.11c.94-1,2.21-1.7,2.94-2.8,1-1.57,2.55-2.61,3.82-3.92.44-.45,1.05-.75,1.45-1.22A18.54,18.54,0,0,1,37,37.62c1.91-1.43,4.12-2.45,5.79-4.23a2.65,2.65,0,0,1,1.53-.55A1.44,1.44,0,0,1,46,34a4.11,4.11,0,0,1,0,2.83c-.74,2.18-1.11,4.49-2.43,6.46-.62.92-1,2-1.61,2.94a35.67,35.67,0,0,1-2.81,4.16,34.29,34.29,0,0,1-11.77,9.23,4.62,4.62,0,0,1-4.14.37,2.06,2.06,0,0,0-.93-.08A.74.74,0,0,0,21.73,61a2.83,2.83,0,0,0,2.37,1.31,10.55,10.55,0,0,0,5.43-1.58,48.49,48.49,0,0,0,7.14-5.21A31.23,31.23,0,0,0,43.55,47c.77-1.4,1.5-2.82,2.26-4.23a22.59,22.59,0,0,0,2.2-7,3.51,3.51,0,0,0-4.21-4.32,7.26,7.26,0,0,0-2.29.66,37,37,0,0,0-7.12,4.34c-2.41,1.95-5,3.65-7,6.1-1.29,1.61-2.86,3-4,4.7A8.7,8.7,0,0,1,19.64,50.68Zm187.53,97.21c-.1-1.69-.25-3-.22-4.4a10.14,10.14,0,0,0-.68-3.51,24.55,24.55,0,0,0-3.6-6.45,57.2,57.2,0,0,0-8.3-9.24,18.76,18.76,0,0,0-12.35-5,1.57,1.57,0,0,0-.91.16,1.63,1.63,0,0,0-.56,1c0,.16.38.51.63.56a7.19,7.19,0,0,0,1.67.12,9.14,9.14,0,0,1,4.37,1.1,30,30,0,0,1,8.06,5.52,17.11,17.11,0,0,1,2.67,3.34,83.82,83.82,0,0,1,4.44,8.18,15.31,15.31,0,0,1,1.64,9,57.93,57.93,0,0,1-2.33,10.5,19.4,19.4,0,0,1-4.16,7.45,9.37,9.37,0,0,0-1.28,1.72,1,1,0,0,0,.09.86.69.69,0,0,0,1.05.12,10.05,10.05,0,0,0,1.39-1.3c.53-.6,1-1.26,1.49-1.87a43.92,43.92,0,0,0,5.65-9.69,4.06,4.06,0,0,0,.3-1.15C206.57,152.48,206.88,150,207.17,147.89ZM61,68.94c.43.06.86.13,1.3.18,1.65.17,3.37.1,4.56,1.62a1.69,1.69,0,0,0,.83.46,4.85,4.85,0,0,1,2.09,1.54c1.48,1.57,3,3.06,4.44,4.7A22.11,22.11,0,0,1,79,85.62c.24.84.37,1.72.61,2.56A32.1,32.1,0,0,1,80.74,100a39.08,39.08,0,0,1-4.65,15.47c-.45.83-1.1,1.54-1.62,2.34a2.46,2.46,0,0,0-.16.84c.29,0,.65.15.86,0A7.15,7.15,0,0,0,78,115.59c1.09-2.46,2.77-4.68,3.13-7.46a7.31,7.31,0,0,1,.63-1.55c.31-.81.65-1.62.9-2.46a47.21,47.21,0,0,0,1.39-7.74,13.3,13.3,0,0,0-.56-6.13c-.64-1.89-1.21-3.81-1.66-5.75a11.61,11.61,0,0,0-1.11-2.89,29.88,29.88,0,0,0-1.83-3.09C77,75.86,75,73.27,72.09,71.59c-1.45-.83-2.85-1.76-4.31-2.56A9.78,9.78,0,0,0,62,67.93,1,1,0,0,0,61,68.94ZM225.38,97.26a5.86,5.86,0,0,0,.49-1.05c.44-2.9,1.56-5.74.81-8.75a27.13,27.13,0,0,0-3.27-12.12c-1.28-2.57-2.85-5-4.29-7.48A29.51,29.51,0,0,0,217.41,65a4.73,4.73,0,0,0-4-2.26,2.42,2.42,0,0,0-2.4,2.89,18.76,18.76,0,0,0,.77,2.52c1,2.7,2,5.38,3,8.09,1.92,5.49,3.8,11,5.71,16.51a2.25,2.25,0,0,0,.46.81.8.8,0,0,0,.64.15c.18-.06.46-.32.45-.46a8.64,8.64,0,0,0-.39-1.83c-.72-2.11-1.46-4.22-2.24-6.31-1.25-3.35-2.17-6.82-3.62-10.11-.9-2-1.51-4.2-2.22-6.32a3.08,3.08,0,0,1-.15-2.31A4,4,0,0,1,216,68.26c1.51,2.07,3,4.15,4.46,6.25a18,18,0,0,1,3.11,6.68c.18.85.43,1.7.54,2.57.34,2.6.89,5.19.3,7.84a4.81,4.81,0,0,0-.07,1.42,1.58,1.58,0,0,1-.78,1.81.76.76,0,0,0,0,1.23C224.08,96.43,224.61,96.76,225.38,97.26Zm-97,27.2c0,.56,0,1.12,0,1.68a7.89,7.89,0,0,0,.78,3.47c.38.79.7,1.61,1.1,2.38a15.1,15.1,0,0,0,1,1.6c1.09,1.57,2.87,1.95,4.52,2.46a2.84,2.84,0,0,0,2.69-.66.51.51,0,0,0,.11-.42.45.45,0,0,0-.26-.33,2.27,2.27,0,0,0-.93-.06,3.15,3.15,0,0,1-3.49-1.54,20.16,20.16,0,0,1-3.18-5.85,21.36,21.36,0,0,1-.43-8.31,5.58,5.58,0,0,1,.75-2,3.22,3.22,0,0,1,3.59-1.74,6.11,6.11,0,0,0,1.18.17,2.69,2.69,0,0,1,2.3,1.08,52,52,0,0,1,3.4,4.29,12.9,12.9,0,0,1,1.32,3,22.1,22.1,0,0,1,.8,3c.43,2.16.46,4.26-1.2,6-.66.69-1.27,1.42-2,2.07s-1,1.36-.57,1.76.89.26,1.69-.38a20.23,20.23,0,0,0,3.83-4.57c2-2.93,1.87-6,.47-9.1-1.1-2.4-2.9-4.38-4.49-6.46a6,6,0,0,0-5.19-2.51,7.67,7.67,0,0,1-1.42-.18,5.26,5.26,0,0,0-5.48,3.34A22.44,22.44,0,0,0,128.35,124.46ZM57.28,73.78c1.15.66,1.86,0,2.57-.19,2.77-1,5.07,0,7,1.89a33.54,33.54,0,0,1,3.26,4.12,8.34,8.34,0,0,1,1,1.9c1.11,2.9,2.05,5.87,3.3,8.7A22.9,22.9,0,0,1,76,99.08a41.6,41.6,0,0,1-2.12,13.4,4.41,4.41,0,0,1-.52,1.07c-1.17,1.71-2.29,3.46-3.55,5.1a3.49,3.49,0,0,1-4.21,1.42,5.52,5.52,0,0,0-1.87-.17c-.17,0-.34.26-.7.55a19.91,19.91,0,0,0,3.26,1.64,1.51,1.51,0,0,0,.94,0,6.3,6.3,0,0,0,3.6-2.21c.95-1.38,1.91-2.75,2.92-4.08a13.33,13.33,0,0,0,2.47-5.39c.28-1.4.63-2.8,1-4.19,1.44-5.8.78-11.57-.29-17.33a8.1,8.1,0,0,0-.34-.89,41.79,41.79,0,0,0-2.89-6,30.07,30.07,0,0,0-5.81-7.86,7.71,7.71,0,0,0-7-2.35A5.43,5.43,0,0,0,57.28,73.78Zm-3,131.31A42.33,42.33,0,0,0,52,200.65a83,83,0,0,0-8.3-9.86,16.76,16.76,0,0,1-1.81-1.87c-1.2-1.75-3-2.87-4.51-4.23a6.65,6.65,0,0,0-5.14-1.49c-2.34.15-4.34,3.13-3.72,5.42a1.75,1.75,0,0,0,.3.63c1.39,1.63,2.79,3.26,4.2,4.87.42.48.9.91,1.33,1.38a67.28,67.28,0,0,0,8.09,7.74,19.14,19.14,0,0,0,6.22,3.34c.7.21,1.21,0,1.39-.48s-.11-.79-.73-1.06a2.35,2.35,0,0,0-.44-.17,10.88,10.88,0,0,1-4.58-2.5c-2.53-2.06-5-4.22-7.43-6.37a8.72,8.72,0,0,1-1.6-1.78,15,15,0,0,0-2-2.31A15.22,15.22,0,0,1,30,187.28,2.83,2.83,0,0,1,33.3,185a3.36,3.36,0,0,1,2,.64c.92.76,1.89,1.47,2.74,2.31,1.82,1.79,3.48,3.75,5.37,5.45a39.67,39.67,0,0,1,6.09,6.74c1.28,1.83,3,3.58,2.73,6.17,0,.2.34.57.58.63a.91.91,0,0,0,.79-.32A10.89,10.89,0,0,0,54.3,205.09ZM55.72,79.62c-.47-.74-1-.72-1.47-.26a20.75,20.75,0,0,0-2,2.35,18.25,18.25,0,0,0-2.31,3.61c-.36.89-.81,1.71-1.22,2.56a8.36,8.36,0,0,0-.62,1.52,29.11,29.11,0,0,0-.31,15.82,27.63,27.63,0,0,0,4.34,9.23,18.11,18.11,0,0,0,6,5,7.49,7.49,0,0,0,2.09.3c-1.95-1.6-3.43-2.9-4.74-3.76-.68-1.3-1.15-2.29-1.69-3.24a30.08,30.08,0,0,1-3.33-7.64,66.56,66.56,0,0,1-1.41-7,33.18,33.18,0,0,1-.12-6.9c.15-2.07,1.35-3.69,2-5.54a5.45,5.45,0,0,1,1-1.61C53.11,82.58,54.39,81.15,55.72,79.62Zm83,143.07c-.27,1.24,0,2.13.89,2.44,1.79.61,3.57,1.3,5.57.86a25.24,25.24,0,0,1,4.26-.46c.86,0,1.72.21,2.59.24,2.41.09,4.4-.62,5.49-3,.17-.36.41-.68.6-1,.65-1.17.53-1.94-.57-2.63a3.51,3.51,0,0,0-1.77-.55,17.64,17.64,0,0,0-3.33.2c-2.52.39-5,.85-7.52,1.34a13.77,13.77,0,0,0-2.51.78,1.25,1.25,0,0,0-.67.86,1.33,1.33,0,0,0,.63.91,1.79,1.79,0,0,0,1.12.18c2.4-.41,4.78-.94,7.15-1.5a11.75,11.75,0,0,1,5-.12c-.11.42-.1.78-.28,1a4,4,0,0,1-4,1.41,11.37,11.37,0,0,0-3.08-.06c-1.42.17-2.82.45-4.24.59a2.43,2.43,0,0,1-1.6-.27C141.42,223,140.14,223.09,138.76,222.69Zm6.83-88.94a1.27,1.27,0,0,0,2,0c2.19-2,4.18-4.12,4.89-7.17a8.15,8.15,0,0,0,.12-3.54,13,13,0,0,0-1.82-3.87,16.94,16.94,0,0,0-4.65-5.63,7.94,7.94,0,0,0-3.56-1.25,2.51,2.51,0,0,0-1.34.38.85.85,0,0,0-.06,1.54c2.36,1.13,3.94,3.24,6.05,4.67a3.61,3.61,0,0,1,1.37,2.17,14.13,14.13,0,0,1-2.42,11.75C146,133.08,145.85,133.36,145.59,133.75ZM36.77,181.8c1.35.7,2.4,1.24,3.45,1.8a31.73,31.73,0,0,1,9.91,8.89A33.71,33.71,0,0,1,54,198.82a2.29,2.29,0,0,0,.41.57c.21.23.95,0,1-.29a3,3,0,0,0,.06-.94,11.14,11.14,0,0,0-1.72-4.69,74.91,74.91,0,0,0-7.41-9.08,19.83,19.83,0,0,0-6-4.19,5,5,0,0,0-4.26-.08C36.31,180.8,36.57,181.35,36.77,181.8ZM61,146.2c-.82-.29-1.12.06-1.34.52a6.37,6.37,0,0,0-.25,4.68c.72,2.57,2.52,4.4,4.44,6.11a2.59,2.59,0,0,0,1.55.44,8.09,8.09,0,0,0,4.89-1.68,2.76,2.76,0,0,0,1.35-1.85,22.16,22.16,0,0,1,.64-2.29,7.37,7.37,0,0,0-.14-5.39c-.91-2-2.29-3.49-4.68-3.51a22.51,22.51,0,0,0-3.58.24,4.53,4.53,0,0,0-1.68.82.69.69,0,0,0,.56,1.21c1.28,0,2.55-.16,3.82-.23a2.49,2.49,0,0,1,2.59,1.37,9.27,9.27,0,0,1,1.06,5.8,4.6,4.6,0,0,1-4.38,4.05,2.72,2.72,0,0,1-1.53-.49c-1.52-1-2.26-2.64-3.18-4.13a4.2,4.2,0,0,1-.56-2.77C60.7,148.17,60.86,147.24,61,146.2ZM41.22,154a2.58,2.58,0,0,0,2.86-.13,5.32,5.32,0,0,0,2.14-3.61c.25-1.16.35-2.36.52-3.55a10.77,10.77,0,0,0-.18-4c-.36-1.47-.84-2.91-1.12-4.4a15,15,0,0,0-5.4-8.75c-1.31-1.13-2.88-1.23-4.45-1.44a.29.29,0,0,0-.22.07c-.17.16-.41.33-.44.53a.65.65,0,0,0,.29.56,8.51,8.51,0,0,0,1.81.59,4.94,4.94,0,0,1,3.48,2.65,27.27,27.27,0,0,1,3.4,11.09c.18,1.73.49,3.45.64,5.18s-.2,3.34-1.87,4.34Zm46.45,43.27a7.82,7.82,0,0,1,1.2,0,11.66,11.66,0,0,0,2.8.48c2.38-.25,4.35.72,6.28,1.83A2.6,2.6,0,0,1,99,203a10.56,10.56,0,0,0-.53,1.31c-.09.31.53.78.84.63a2.28,2.28,0,0,0,.77-.52,5.19,5.19,0,0,0,1-4,4.78,4.78,0,0,0-4.38-4.31,15.39,15.39,0,0,0-3.1-.16c-1.67.15-3.32.43-4.91-.4a.78.78,0,0,0-.23-.05,1.92,1.92,0,0,0-2,2.64c.5,1.17,1,2.35,1.46,3.52a2.52,2.52,0,0,0,.65,1,21.21,21.21,0,0,0,6.56,3.83,3.77,3.77,0,0,0,1.64,0c.21,0,.44-.39.53-.65s-.21-.45-.4-.51c-1.79-.64-3.31-1.82-5-2.55a11.7,11.7,0,0,1-2-1.33c-.25-.18-.57-.36-.69-.63C88.66,199.7,88.21,198.53,87.67,197.22ZM40.83,127c-.16.79.33,1.09.75,1.45a9.62,9.62,0,0,1,1.75,1.61,20.8,20.8,0,0,1,3.11,5.61,25.25,25.25,0,0,0,1.11,2.63,16.87,16.87,0,0,1,.87,11.88,9.72,9.72,0,0,1-2.07,4.25c-.06.06,0,.28.1.5a1.83,1.83,0,0,0,.62-.09,4.66,4.66,0,0,0,2.07-2.25c.63-1.37,1.15-2.79,1.69-4.2a11.31,11.31,0,0,0-.11-8c-.27-.83-.65-1.63-.94-2.45a28.68,28.68,0,0,0-5.21-9,9.39,9.39,0,0,0-2.89-2.06C41.47,126.79,41.1,127,40.83,127ZM155.59,7.1c-.63,0-1,0-1.27,0-2.23.24-3.17,2.07-1.91,3.93a8.66,8.66,0,0,0,2.05,2c.69.53,1.52.87,2.24,1.36a34.8,34.8,0,0,0,6.66,3.11,2.4,2.4,0,0,0,.71.11,1.1,1.1,0,0,0,1.24-1.13,5,5,0,0,0-.1-1A10.27,10.27,0,0,0,155.59,7.1ZM82.64,33a10.45,10.45,0,0,0,1.22,1.7,3.59,3.59,0,0,0,1.59.95c1.94.39,3.9.62,5.86.94A4.43,4.43,0,0,0,94.05,36a3.32,3.32,0,0,0,2-3,4.68,4.68,0,0,0-6.85-4c-.86.41-1.74.78-2.59,1.2A14,14,0,0,0,82.64,33Zm-50,97a1.24,1.24,0,0,0-.2.42c-.19,1.81-.23,3.66-1.21,5.3a2.75,2.75,0,0,0-.21.93,22.18,22.18,0,0,0,.73,10.36c.46,1.35.77,2.76,1.36,4.05.79,1.76,1.81,3.38,4.07,3.5.31,0,.62.16.93.16s.67.08.69-.55a12.63,12.63,0,0,1-3.9-4.24,11.9,11.9,0,0,1-1.57-4,32.17,32.17,0,0,1-.15-10.68c.24-1.56.35-3.16.44-4.74C33.64,130,33.18,129.83,32.62,130.05Zm43,22.22a9.73,9.73,0,0,0,.58-5.12,16.51,16.51,0,0,0-1.8-4.61,2.34,2.34,0,0,0-1.21-1.09,9.66,9.66,0,0,0-7,0c-.23.1-.37.41-.75.85,1,.05,1.68.06,2.37.12a7,7,0,0,1,6.71,6.75A9.32,9.32,0,0,0,75.61,152.27Zm136.22-92.8a4.27,4.27,0,0,0-4.14,4.27,22,22,0,0,0,2.85,10,2.82,2.82,0,0,0,.83.82c.13.09.44,0,.64-.1a.45.45,0,0,0,.21-.39,5.28,5.28,0,0,0-.34-1.11,25,25,0,0,1-1.67-5.47,17.83,17.83,0,0,1-.27-3.79c.05-1.23.42-2.37,2-2.57a.67.67,0,0,0,.53-.91C212.32,59.89,212,59.65,211.83,59.47Zm-131-27.13c.9.47,1.33,0,1.73-.53a9.81,9.81,0,0,1,7.62-4.3,2,2,0,0,0,.7-.08.86.86,0,0,0,.43-.51c0-.19-.12-.55-.26-.6a5.15,5.15,0,0,0-2-.51,25.08,25.08,0,0,0-4.46.85C81.75,27.51,80.69,29.19,80.82,32.34ZM156.16,195c-.51-.47-.89-1.1-1.42-1.27a4,4,0,0,0-4,.51c-.42.34-.95.57-1.41.87-.11.08-.15.26-.3.51l.84.86c1-.15,1.59-1.16,2.72-.73.37,1,.45,2.46,2.07,2.68C156,197.77,155.58,196.34,156.16,195ZM28.68,111a2.84,2.84,0,0,0,.87,3.61,1.56,1.56,0,0,0,1.57.27,2.4,2.4,0,0,0,1.4-1.22,6,6,0,0,0-.37-6.15c-.24-.4-.66-.36-1.11,0,.16.87.41,1.78.49,2.71a3.24,3.24,0,0,1-.56,2.64C30,112.4,30.2,110.66,28.68,111ZM195.52,99.09c.58,1.25.52,1.61-.34,1.91-.29.1-.67,0-.92.2a1,1,0,0,0-.46.71c0,.21.39.51.63.54a3.41,3.41,0,0,0,2.62-.92,2.43,2.43,0,0,0-1-4.4c-.64-.13-1.25-.3-1.81.18a2,2,0,0,0-.55,2.28ZM171.18,35.3c.49,0,.88,0,1.07-.13a1.66,1.66,0,0,0,.56-1,3.3,3.3,0,0,0-2.58-3.2c-1.08-.18-1.66.39-1.47,1.49.08.52.08,1.12.79,1.36l1.33-.45C171,34,171.06,34.53,171.18,35.3ZM103.73,14.81a2.33,2.33,0,0,0-.4.58,2,2,0,0,0,1,2.21c1,.76,1.92.44,2.4-.74.27-.68-.18-1.45-.83-1.24s-1.14.13-1.52-.51C104.26,15,104,14.92,103.73,14.81Zm-27,144.82a3.5,3.5,0,0,0,.87,2.48.86.86,0,0,0,1.5-.28,2.61,2.61,0,0,0-.26-2.49C78.2,159.26,77.51,158.93,76.77,159.63Zm19.43,33.7c-1.37,0-2.46,0-3.54,0a.93.93,0,0,0-.69.48c-.06.18.19.59.4.7a4.75,4.75,0,0,0,4.16,0Zm103.18-85.84c-.31,0-.65,0-.72.1a5.65,5.65,0,0,0-1,3.74.66.66,0,0,0,.46.43c.27,0,.68-.17.76-.37A7,7,0,0,0,199.38,107.49Zm-46.14-1.31a16.4,16.4,0,0,0-.21-2.12.92.92,0,0,0-1.1-.66c-1,.08-1.23.58-1,2.09ZM121.7,27.28c.68.62,1.23,1.18,1.85,1.65.13.1.64-.07.78-.26.29-.42.28-1.15-.15-1.25-.84-.2-1.15-1-1.74-1.38-.19.16-.34.24-.41.37A7.24,7.24,0,0,0,121.7,27.28ZM206.34,110c0-.91-.48-1.37-1.18-1.24a3,3,0,0,0-.67.2,1.27,1.27,0,0,0-.83,1.27c.11.52.76.74,1.55.52a2,2,0,0,0,.66-.19A3,3,0,0,0,206.34,110ZM87.84,160.27a2.53,2.53,0,0,0-.1-3.12l-1.7.25C86.59,158.51,86.11,160,87.84,160.27Zm20-149.4a4,4,0,0,0-.83.54,6.18,6.18,0,0,0-.64.94,6.94,6.94,0,0,0,.84,1,1,1,0,0,0,.81.18,1,1,0,0,0,.49-.72A1.92,1.92,0,0,0,107.84,10.87Zm3.61,6.33a2.94,2.94,0,0,0-.71-.4.69.69,0,0,0-.61.19,2.14,2.14,0,0,0-.52,1,1,1,0,0,0,.56,1.15c.38.15.78-.14,1-.74C111.26,18.08,111.31,17.78,111.45,17.2ZM4,121.48c0,.19-.06.38,0,.49s.35.58.57.63.56-.16.8-.32.15-.27.18-.42c.12-.53.41-1.08-.12-1.53a.81.81,0,0,0-.65-.12C4.14,120.38,4.08,121,4,121.48Zm45-60.9a1.85,1.85,0,0,0-2-.39.75.75,0,0,0-.41.51,1.2,1.2,0,0,0,.31.82,1,1,0,0,0,1.29,0A7.36,7.36,0,0,0,49,60.58ZM127,25.36a1.2,1.2,0,0,0-1.44,1.12c0,.6.49.9,1.11,1C127.17,26.81,127.65,26.19,127,25.36ZM170.37,211.3c-.24-.75-.71-.91-1.27-.62a.77.77,0,0,0-.32.71.8.8,0,0,0,.65.45A3.18,3.18,0,0,0,170.37,211.3ZM83.09,154.84c-.29-.23-.44-.43-.61-.46-.32-.06-.69,0-.63.44,0,.23.32.57.51.58S82.79,155.09,83.09,154.84ZM203,103.48a7.63,7.63,0,0,0,.66-1c0-.06-.26-.36-.43-.39a.72.72,0,0,0-.84.62C202.35,102.86,202.7,103.11,203,103.48ZM48.72,53.74a8.19,8.19,0,0,0,.65-1,.84.84,0,0,0-.48-.37.63.63,0,0,0-.69.75C48.22,53.32,48.46,53.45,48.72,53.74Zm-5.35-.87c-.23-.22-.4-.48-.51-.45s-.65-.41-.73.11a.8.8,0,0,0,.45.65C42.78,53.25,43.07,53,43.37,52.87Z"/><path class="cls-3" d="M222.79,77.89c3.14,8,4.27,15.13,2.53,15.81-.59.23-1.08,2.85-2,1.75-1.92-2.17-4.7-9.76-6.79-15.11-3.14-8-4.27-15.13-2.53-15.81S219.65,69.83,222.79,77.89Z"/><ellipse class="cls-3" cx="33.68" cy="46.87" rx="19.05" ry="6.24" transform="matrix(0.66, -0.75, 0.75, 0.66, -23.77, 41.37)"/><path class="cls-3" d="M47.59,97.64c.89,13.35,8.76,24.27,16.71,23.73S78,109.59,77.07,96.23,69,72.48,61.06,73c-3.1.2-4.65,3.37-6.81,6.34C50.88,84,47,89.5,47.59,97.64Z"/><ellipse class="cls-3" cx="137.06" cy="124.82" rx="7.41" ry="11.53" transform="matrix(0.94, -0.35, 0.35, 0.94, -34.65, 54.96)"/><ellipse class="cls-3" cx="65.88" cy="150.46" rx="5.76" ry="6.73" transform="translate(-47.87 31.97) rotate(-20.18)"/><ellipse class="cls-3" cx="41.3" cy="195.73" rx="4.33" ry="16.1" transform="translate(-126.31 86.53) rotate(-45)"/><path class="cls-3" d="M92,203.51c2,.85,3.82,2.41,5.29,2.19,1.1-.16,2.09-1.87,2.4-2.61.73-1.73-1.52-4.34-5-5.83s-7-1.3-7.69.42S88.46,202,92,203.51Z"/><ellipse class="cls-3" cx="148.71" cy="222.34" rx="8.83" ry="2.44" transform="translate(-18.6 13.64) rotate(-4.94)"/><path class="cls-3" d="M156.71,150.78c.78,11.54,6.06,22.17,14.6,24.86,2,.62,5.45-.38,7.57-.52,11.28-.76,19.65-12.9,18.69-27.11s-8.77-23.51-21.7-25.33c-1.93-.27-3.67-.89-5.41-.13C162.11,126.2,155.92,139,156.71,150.78Z"/><path class="cls-3" d="M162.85,70.8l-5.7-.55a1.15,1.15,0,0,1-.65-.25c-1.28-1.47-3.1-1.75-4.82-2.24a5.84,5.84,0,0,1-3-1.83,30.3,30.3,0,0,0-2.19-2.2,16.33,16.33,0,0,1-2.38-2.66c-1.3-1.91-2.81-3.68-4.06-5.62-2.17-3.37-1.4-6.94,1.7-9.53a3.37,3.37,0,0,1,3.93-.67,4.81,4.81,0,0,0,1.34.49c3,.27,5.28,2.13,7.63,3.75,1.91,1.31,3.77,2.69,5.6,4.11a13.38,13.38,0,0,1,3.85,4.18,47.77,47.77,0,0,1,3.23,6.91C168.51,68.3,166.6,71,162.85,70.8Z"/><path class="cls-3" d="M156,8.92c.73.19,1.65.41,2.55.69,2.3.72,3.57,2.51,4.6,4.52a.94.94,0,0,1,0,.85.91.91,0,0,1-.84.18,40.64,40.64,0,0,1-7.36-3.79c-1-.69-1.23-1.17-1-1.69.34-.76,1.15-.35,1.66-.68A1.83,1.83,0,0,1,156,8.92Z"/><path class="cls-3" d="M87.85,34.17l-1.9.09c-.44,0-.87-.13-.91-.56a1.94,1.94,0,0,1,.42-1,1.44,1.44,0,0,1,.58-.4c1.52-.66,3-1.36,4.59-2A3.3,3.3,0,0,1,94.22,32a1.08,1.08,0,0,1-.57,1.39,9.49,9.49,0,0,1-2.25.71c-1.17.16-2.36.17-3.55.24Z"/><ellipse class="cls-3" cx="38.66" cy="141.91" rx="6.48" ry="12.69" transform="translate(-28.03 10.82) rotate(-11.73)"/><path class="cls-1" d="M147.1,42.07a4.06,4.06,0,0,0,1.09.76,32.11,32.11,0,0,1,6.19,3.06,2.12,2.12,0,0,0,.2.12c2.35,1.06,4.26,2.76,6.38,4.16a19.91,19.91,0,0,1,6.65,7.38c1,1.82,1.9,3.67,2.72,5.56a11.64,11.64,0,0,1,.77,3,3.94,3.94,0,0,1-1.58,3.8,30.56,30.56,0,0,1-3.37,2.27,3.93,3.93,0,0,1-2.53.54,19.41,19.41,0,0,0-3.57.09,14.56,14.56,0,0,1-8.32-1.66,28.07,28.07,0,0,1-9.52-8.25c-.78-1.09-1.72-2.07-2.57-3.13A11.6,11.6,0,0,1,137,52.22a13.33,13.33,0,0,1,.9-3.94c.33-1,1.11-1.76,1.22-2.83,1.21-1.5,2.46-2.94,4.47-3.39.54-.12,1.07-.27,1.55-.39a6.92,6.92,0,0,1,.55-1.58c.34-.51,1-.46,1.54-.44h.24a35.59,35.59,0,0,1,11.05,2.89,5.28,5.28,0,0,0,1.07.52,18,18,0,0,1,4.1,1.84,28.26,28.26,0,0,1,9.46,7.58,26.26,26.26,0,0,1,2.9,4.67,6,6,0,0,1,.55,2.31c.12,1.76.14,3.52.16,5.27a2.76,2.76,0,0,1-1.12,2.51,14.29,14.29,0,0,0-1.49,1.52.49.49,0,0,1-.44,0,.51.51,0,0,1-.23-.39,2,2,0,0,1,.21-.9c2.31-3.47.3-11.1-3.31-13.3a52.74,52.74,0,0,1-6.72-5.35,22.23,22.23,0,0,0-7-4c-2.69-1-5.37-2-8.06-3a6.48,6.48,0,0,0-1.33-.21ZM162.85,70.8c3.75.18,5.66-2.5,4.47-6.11a47.77,47.77,0,0,0-3.23-6.91,13.38,13.38,0,0,0-3.85-4.18c-1.83-1.42-3.69-2.8-5.6-4.11C152.29,47.87,150,46,147,45.74a4.81,4.81,0,0,1-1.34-.49,3.37,3.37,0,0,0-3.93.67c-3.1,2.59-3.87,6.16-1.7,9.53,1.25,1.94,2.76,3.71,4.06,5.62a16.33,16.33,0,0,0,2.38,2.66,30.3,30.3,0,0,1,2.19,2.2,5.84,5.84,0,0,0,3,1.83c1.72.49,3.54.77,4.82,2.24a1.15,1.15,0,0,0,.65.25Z"/><path class="cls-1" d="M158,147.88c.09.9.24,2.32.4,3.75.06.47.16.94.19,1.42a30.36,30.36,0,0,0,3.92,12.68,26.78,26.78,0,0,0,2.69,4.21,16.65,16.65,0,0,0,6.25,4.64,5.64,5.64,0,0,0,1.8.52,12.47,12.47,0,0,0,5.9-.55,3.17,3.17,0,0,1,1.17-.23c.26,0,.66.23.71.43s-.2.53-.36.78a.91.91,0,0,1-.39.27,10.93,10.93,0,0,1-4.39,1,7.7,7.7,0,0,0-1,0c-4.63.4-8.18-1.77-11.17-5a30.19,30.19,0,0,1-6-10.78,41.53,41.53,0,0,1-1.94-9.6,17.88,17.88,0,0,1,.06-3.35c.21-2.31.44-4.61.75-6.91.23-1.73.61-3.45.93-5.17a1.38,1.38,0,0,1,.25-.67c1.37-1.32,1.9-3.12,2.73-4.74a17.89,17.89,0,0,1,4.82-5.89,6.85,6.85,0,0,0,.93-.76c2.15-2.46,5.09-3.29,8.12-3.62a9.34,9.34,0,0,1,5.74,1.29c1.1.65,2.16,1.36,3.24,2a13.94,13.94,0,0,0,1.83,1.14c3.52,1.54,6.17,4.21,8.91,6.77a23.34,23.34,0,0,1,1.81,1.91,21.15,21.15,0,0,1,1.61,2.06c.57.87,1.06,1.78,1.56,2.69a8.07,8.07,0,0,1,.73,1.51c.83,2.83,1.77,5.68,1.64,8.66a42.14,42.14,0,0,1-.89,5.66c-.11.62-.39,1.22-.53,1.84a21.52,21.52,0,0,1-6.57,11.42,21.58,21.58,0,0,0-2.79,3,7.51,7.51,0,0,1-4.69,2.63c-.24.06-.79-.16-.8-.29a1.41,1.41,0,0,1,.29-1,4.87,4.87,0,0,1,1.46-.78,6.2,6.2,0,0,0,3.24-3c1.62-2.93,3.4-5.77,5.07-8.67a12.63,12.63,0,0,0,1.79-5.89,19.27,19.27,0,0,1,.28-2.14,9.14,9.14,0,0,0,0-4,7.71,7.71,0,0,1-.2-1.67,19.31,19.31,0,0,0-3-9.23,20,20,0,0,0-2.13-2.57,44.89,44.89,0,0,0-3.24-3.5,31.91,31.91,0,0,0-13.31-6.72c-.47-.08-.94-.18-1.41-.22a8.07,8.07,0,0,0-7.14,2.62c-1,1.12-2.25,2.06-3.17,3.25a20.35,20.35,0,0,0-2.89,5.2c-.67,1.7-1.25,3.44-1.87,5.17a2.93,2.93,0,0,0-.18.69C158.41,142.57,158.2,145,158,147.88Z"/><path class="cls-1" d="M19.64,50.68a8.7,8.7,0,0,0,3.73-3.53c1.18-1.73,2.75-3.09,4-4.7,2-2.45,4.57-4.15,7-6.1A37,37,0,0,1,41.51,32a7.26,7.26,0,0,1,2.29-.66A3.51,3.51,0,0,1,48,35.67a22.59,22.59,0,0,1-2.2,7c-.76,1.41-1.49,2.83-2.26,4.23a31.23,31.23,0,0,1-6.88,8.52,48.49,48.49,0,0,1-7.14,5.21,10.55,10.55,0,0,1-5.43,1.58A2.83,2.83,0,0,1,21.73,61a.74.74,0,0,1,.55-1.09,2.06,2.06,0,0,1,.93.08,4.62,4.62,0,0,0,4.14-.37,34.29,34.29,0,0,0,11.77-9.23,35.67,35.67,0,0,0,2.81-4.16c.59-1,1-2,1.61-2.94,1.32-2,1.69-4.28,2.43-6.46A4.11,4.11,0,0,0,46,34a1.44,1.44,0,0,0-1.62-1.11,2.65,2.65,0,0,0-1.53.55C41.16,35.17,39,36.19,37,37.62a18.54,18.54,0,0,0-3.12,2.61c-.4.47-1,.77-1.45,1.22-1.27,1.31-2.78,2.35-3.82,3.92-.73,1.1-2,1.83-2.94,2.8a17.09,17.09,0,0,0-4.8,8.11,14.68,14.68,0,0,0,0,1.88c0,.27-.17.73-.34.77a1.89,1.89,0,0,1-1.09-.15c-.18-.07-.31-.35-.4-.56a3.75,3.75,0,0,1-.19-3C19.52,53.75,19.39,52.24,19.64,50.68Z"/><path class="cls-1" d="M207.17,147.89c-.29,2.13-.6,4.59-.94,7a4.06,4.06,0,0,1-.3,1.15,43.92,43.92,0,0,1-5.65,9.69c-.51.61-1,1.27-1.49,1.87a10.05,10.05,0,0,1-1.39,1.3.69.69,0,0,1-1.05-.12,1,1,0,0,1-.09-.86,9.37,9.37,0,0,1,1.28-1.72,19.4,19.4,0,0,0,4.16-7.45,57.93,57.93,0,0,0,2.33-10.5,15.31,15.31,0,0,0-1.64-9,83.82,83.82,0,0,0-4.44-8.18,17.11,17.11,0,0,0-2.67-3.34,30,30,0,0,0-8.06-5.52,9.14,9.14,0,0,0-4.37-1.1,7.19,7.19,0,0,1-1.67-.12c-.25,0-.66-.4-.63-.56a1.63,1.63,0,0,1,.56-1,1.57,1.57,0,0,1,.91-.16,18.76,18.76,0,0,1,12.35,5,57.2,57.2,0,0,1,8.3,9.24,24.55,24.55,0,0,1,3.6,6.45,10.14,10.14,0,0,1,.68,3.51C206.92,144.84,207.07,146.2,207.17,147.89Z"/><path class="cls-1" d="M61,68.94a1,1,0,0,1,1-1A9.78,9.78,0,0,1,67.78,69c1.46.8,2.86,1.73,4.31,2.56C75,73.27,77,75.86,78.93,78.52a29.88,29.88,0,0,1,1.83,3.09,11.61,11.61,0,0,1,1.11,2.89c.45,1.94,1,3.86,1.66,5.75a13.3,13.3,0,0,1,.56,6.13,47.21,47.21,0,0,1-1.39,7.74c-.25.84-.59,1.65-.9,2.46a7.31,7.31,0,0,0-.63,1.55c-.36,2.78-2,5-3.13,7.46a7.15,7.15,0,0,1-2.87,3.12c-.21.12-.57,0-.86,0a2.46,2.46,0,0,1,.16-.84c.52-.8,1.17-1.51,1.62-2.34A39.08,39.08,0,0,0,80.74,100a32.1,32.1,0,0,0-1.11-11.85c-.24-.84-.37-1.72-.61-2.56a22.11,22.11,0,0,0-4.8-8.18c-1.4-1.64-3-3.13-4.44-4.7a4.85,4.85,0,0,0-2.09-1.54,1.69,1.69,0,0,1-.83-.46c-1.19-1.52-2.91-1.45-4.56-1.62C61.86,69.07,61.43,69,61,68.94Z"/><path class="cls-1" d="M225.38,97.26c-.77-.5-1.3-.83-1.8-1.2a.76.76,0,0,1,0-1.23,1.58,1.58,0,0,0,.78-1.81,4.81,4.81,0,0,1,.07-1.42c.59-2.65,0-5.24-.3-7.84-.11-.87-.36-1.72-.54-2.57a18,18,0,0,0-3.11-6.68c-1.47-2.1-2.95-4.18-4.46-6.25a4,4,0,0,0-2.62-1.91,3.08,3.08,0,0,0,.15,2.31c.71,2.12,1.32,4.29,2.22,6.32,1.45,3.29,2.37,6.76,3.62,10.11.78,2.09,1.52,4.2,2.24,6.31a8.64,8.64,0,0,1,.39,1.83c0,.14-.27.4-.45.46a.8.8,0,0,1-.64-.15,2.25,2.25,0,0,1-.46-.81c-1.91-5.5-3.79-11-5.71-16.51-.95-2.71-2-5.39-3-8.09a18.76,18.76,0,0,1-.77-2.52,2.42,2.42,0,0,1,2.4-2.89,4.73,4.73,0,0,1,4,2.26,29.51,29.51,0,0,1,1.71,2.88c1.44,2.49,3,4.91,4.29,7.48a27.13,27.13,0,0,1,3.27,12.12c.75,3-.37,5.85-.81,8.75A5.86,5.86,0,0,1,225.38,97.26Z"/><path class="cls-1" d="M128.35,124.46a22.44,22.44,0,0,1,1-7.77,5.26,5.26,0,0,1,5.48-3.34,7.67,7.67,0,0,0,1.42.18,6,6,0,0,1,5.19,2.51c1.59,2.08,3.39,4.06,4.49,6.46,1.4,3.07,1.53,6.17-.47,9.1a20.23,20.23,0,0,1-3.83,4.57c-.8.64-1.26.74-1.69.38s-.25-1,.57-1.76,1.3-1.38,2-2.07c1.66-1.75,1.63-3.85,1.2-6a22.1,22.1,0,0,0-.8-3,12.9,12.9,0,0,0-1.32-3,52,52,0,0,0-3.4-4.29,2.69,2.69,0,0,0-2.3-1.08,6.11,6.11,0,0,1-1.18-.17,3.22,3.22,0,0,0-3.59,1.74,5.58,5.58,0,0,0-.75,2,21.36,21.36,0,0,0,.43,8.31,20.16,20.16,0,0,0,3.18,5.85,3.15,3.15,0,0,0,3.49,1.54,2.27,2.27,0,0,1,.93.06.45.45,0,0,1,.26.33.51.51,0,0,1-.11.42,2.84,2.84,0,0,1-2.69.66c-1.65-.51-3.43-.89-4.52-2.46a15.1,15.1,0,0,1-1-1.6c-.4-.77-.72-1.59-1.1-2.38a7.89,7.89,0,0,1-.78-3.47C128.34,125.58,128.35,125,128.35,124.46Z"/><path class="cls-1" d="M57.28,73.78a5.43,5.43,0,0,1,3.58-2,7.71,7.71,0,0,1,7,2.35A30.07,30.07,0,0,1,73.63,82a41.79,41.79,0,0,1,2.89,6,8.1,8.1,0,0,1,.34.89c1.07,5.76,1.73,11.53.29,17.33-.34,1.39-.69,2.79-1,4.19a13.33,13.33,0,0,1-2.47,5.39c-1,1.33-2,2.7-2.92,4.08a6.3,6.3,0,0,1-3.6,2.21,1.51,1.51,0,0,1-.94,0A19.91,19.91,0,0,1,63,120.45c.36-.29.53-.55.7-.55a5.52,5.52,0,0,1,1.87.17,3.49,3.49,0,0,0,4.21-1.42c1.26-1.64,2.38-3.39,3.55-5.1a4.41,4.41,0,0,0,.52-1.07A41.6,41.6,0,0,0,76,99.08a22.9,22.9,0,0,0-1.59-8.88c-1.25-2.83-2.19-5.8-3.3-8.7a8.34,8.34,0,0,0-1-1.9,33.54,33.54,0,0,0-3.26-4.12c-1.91-1.9-4.21-2.84-7-1.89C59.14,73.83,58.43,74.44,57.28,73.78Z"/><path class="cls-1" d="M54.3,205.09a10.89,10.89,0,0,1-.7,1.57.91.91,0,0,1-.79.32c-.24-.06-.6-.43-.58-.63.28-2.59-1.45-4.34-2.73-6.17a39.67,39.67,0,0,0-6.09-6.74c-1.89-1.7-3.55-3.66-5.37-5.45-.85-.84-1.82-1.55-2.74-2.31a3.36,3.36,0,0,0-2-.64,2.83,2.83,0,0,0-3.3,2.24,15.22,15.22,0,0,0,3.17,4.63,15,15,0,0,1,2,2.31,8.72,8.72,0,0,0,1.6,1.78c2.45,2.15,4.9,4.31,7.43,6.37a10.88,10.88,0,0,0,4.58,2.5,2.35,2.35,0,0,1,.44.17c.62.27.87.64.73,1.06s-.69.69-1.39.48a19.14,19.14,0,0,1-6.22-3.34,67.28,67.28,0,0,1-8.09-7.74c-.43-.47-.91-.9-1.33-1.38-1.41-1.61-2.81-3.24-4.2-4.87a1.75,1.75,0,0,1-.3-.63c-.62-2.29,1.38-5.27,3.72-5.42a6.65,6.65,0,0,1,5.14,1.49c1.55,1.36,3.31,2.48,4.51,4.23a16.76,16.76,0,0,0,1.81,1.87,83,83,0,0,1,8.3,9.86A42.33,42.33,0,0,1,54.3,205.09Z"/><path class="cls-1" d="M55.72,79.62c-1.33,1.53-2.61,3-3.83,4.43a5.45,5.45,0,0,0-1,1.61c-.63,1.85-1.83,3.47-2,5.54A33.18,33.18,0,0,0,49,98.1a66.56,66.56,0,0,0,1.41,7,30.08,30.08,0,0,0,3.33,7.64c.54.95,1,1.94,1.69,3.24,1.31.86,2.79,2.16,4.74,3.76a7.49,7.49,0,0,1-2.09-.3,18.11,18.11,0,0,1-6-5,27.63,27.63,0,0,1-4.34-9.23,29.11,29.11,0,0,1,.31-15.82,8.36,8.36,0,0,1,.62-1.52c.41-.85.86-1.67,1.22-2.56a18.25,18.25,0,0,1,2.31-3.61,20.75,20.75,0,0,1,2-2.35C54.71,78.9,55.25,78.88,55.72,79.62Z"/><path class="cls-1" d="M138.76,222.69c1.38.4,2.66.33,3.73,1.2a2.43,2.43,0,0,0,1.6.27c1.42-.14,2.82-.42,4.24-.59a11.37,11.37,0,0,1,3.08.06,4,4,0,0,0,4-1.41c.18-.21.17-.57.28-1a11.75,11.75,0,0,0-5,.12c-2.37.56-4.75,1.09-7.15,1.5a1.79,1.79,0,0,1-1.12-.18,1.33,1.33,0,0,1-.63-.91,1.25,1.25,0,0,1,.67-.86,13.77,13.77,0,0,1,2.51-.78c2.5-.49,5-1,7.52-1.34a17.64,17.64,0,0,1,3.33-.2,3.51,3.51,0,0,1,1.77.55c1.1.69,1.22,1.46.57,2.63-.19.35-.43.67-.6,1-1.09,2.36-3.08,3.07-5.49,3-.87,0-1.73-.28-2.59-.24a25.24,25.24,0,0,0-4.26.46c-2,.44-3.78-.25-5.57-.86C138.72,224.82,138.49,223.93,138.76,222.69Z"/><path class="cls-1" d="M145.59,133.75c.26-.39.41-.67.61-.91a14.13,14.13,0,0,0,2.42-11.75,3.61,3.61,0,0,0-1.37-2.17c-2.11-1.43-3.69-3.54-6.05-4.67a.85.85,0,0,1,.06-1.54,2.51,2.51,0,0,1,1.34-.38,7.94,7.94,0,0,1,3.56,1.25,16.94,16.94,0,0,1,4.65,5.63,13,13,0,0,1,1.82,3.87,8.15,8.15,0,0,1-.12,3.54c-.71,3-2.7,5.17-4.89,7.17A1.27,1.27,0,0,1,145.59,133.75Z"/><path class="cls-1" d="M36.77,181.8c-.2-.45-.46-1-.76-1.68a5,5,0,0,1,4.26.08,19.83,19.83,0,0,1,6,4.19,74.91,74.91,0,0,1,7.41,9.08,11.14,11.14,0,0,1,1.72,4.69,3,3,0,0,1-.06.94c-.06.31-.8.52-1,.29a2.29,2.29,0,0,1-.41-.57,33.71,33.71,0,0,0-3.84-6.33,31.73,31.73,0,0,0-9.91-8.89C39.17,183,38.12,182.5,36.77,181.8Z"/><path class="cls-1" d="M61,146.2c-.15,1-.31,2-.42,2.9a4.2,4.2,0,0,0,.56,2.77c.92,1.49,1.66,3.12,3.18,4.13a2.72,2.72,0,0,0,1.53.49,4.6,4.6,0,0,0,4.38-4.05,9.27,9.27,0,0,0-1.06-5.8,2.49,2.49,0,0,0-2.59-1.37c-1.27.07-2.54.19-3.82.23a.69.69,0,0,1-.56-1.21,4.53,4.53,0,0,1,1.68-.82,22.51,22.51,0,0,1,3.58-.24c2.39,0,3.77,1.51,4.68,3.51a7.37,7.37,0,0,1,.14,5.39,22.16,22.16,0,0,0-.64,2.29,2.76,2.76,0,0,1-1.35,1.85A8.09,8.09,0,0,1,65.41,158a2.59,2.59,0,0,1-1.55-.44c-1.92-1.71-3.72-3.54-4.44-6.11a6.37,6.37,0,0,1,.25-4.68C59.89,146.26,60.19,145.91,61,146.2Z"/><path class="cls-1" d="M41.22,154l1.46-.91c1.67-1,2-2.59,1.87-4.34s-.46-3.45-.64-5.18a27.27,27.27,0,0,0-3.4-11.09A4.94,4.94,0,0,0,37,129.78a8.51,8.51,0,0,1-1.81-.59.65.65,0,0,1-.29-.56c0-.2.27-.37.44-.53a.29.29,0,0,1,.22-.07c1.57.21,3.14.31,4.45,1.44a15,15,0,0,1,5.4,8.75c.28,1.49.76,2.93,1.12,4.4a10.77,10.77,0,0,1,.18,4c-.17,1.19-.27,2.39-.52,3.55a5.32,5.32,0,0,1-2.14,3.61A2.58,2.58,0,0,1,41.22,154Z"/><path class="cls-1" d="M87.67,197.22c.54,1.31,1,2.48,1.51,3.62.12.27.44.45.69.63a11.7,11.7,0,0,0,2,1.33c1.74.73,3.26,1.91,5,2.55.19.06.44.39.4.51s-.32.62-.53.65a3.77,3.77,0,0,1-1.64,0,21.21,21.21,0,0,1-6.56-3.83,2.52,2.52,0,0,1-.65-1c-.51-1.17-1-2.35-1.46-3.52a1.92,1.92,0,0,1,2-2.64.78.78,0,0,1,.23.05c1.59.83,3.24.55,4.91.4a15.39,15.39,0,0,1,3.1.16,4.78,4.78,0,0,1,4.38,4.31,5.19,5.19,0,0,1-1,4,2.28,2.28,0,0,1-.77.52c-.31.15-.93-.32-.84-.63A10.56,10.56,0,0,1,99,203a2.6,2.6,0,0,0-1-3.49c-1.93-1.11-3.9-2.08-6.28-1.83a11.66,11.66,0,0,1-2.8-.48A7.82,7.82,0,0,0,87.67,197.22Z"/><path class="cls-1" d="M40.83,127c.27,0,.64-.2.85-.08A9.39,9.39,0,0,1,44.57,129a28.68,28.68,0,0,1,5.21,9c.29.82.67,1.62.94,2.45a11.31,11.31,0,0,1,.11,8c-.54,1.41-1.06,2.83-1.69,4.2a4.66,4.66,0,0,1-2.07,2.25,1.83,1.83,0,0,1-.62.09c-.05-.22-.16-.44-.1-.5a9.72,9.72,0,0,0,2.07-4.25,16.87,16.87,0,0,0-.87-11.88,25.25,25.25,0,0,1-1.11-2.63,20.8,20.8,0,0,0-3.11-5.61,9.62,9.62,0,0,0-1.75-1.61C41.16,128.08,40.67,127.78,40.83,127Z"/><path class="cls-1" d="M155.59,7.1a10.27,10.27,0,0,1,9.62,8.39,5,5,0,0,1,.1,1,1.1,1.1,0,0,1-1.24,1.13,2.4,2.4,0,0,1-.71-.11,34.8,34.8,0,0,1-6.66-3.11c-.72-.49-1.55-.83-2.24-1.36a8.66,8.66,0,0,1-2.05-2c-1.26-1.86-.32-3.69,1.91-3.93C154.64,7.08,155,7.1,155.59,7.1ZM156,8.92a1.83,1.83,0,0,0-.44.08c-.51.33-1.32-.08-1.66.68-.22.52,0,1,1,1.69a40.64,40.64,0,0,0,7.36,3.79.91.91,0,0,0,.84-.18.94.94,0,0,0,0-.85c-1-2-2.3-3.8-4.6-4.52C157.61,9.33,156.69,9.11,156,8.92Z"/><path class="cls-1" d="M82.64,33a14,14,0,0,1,4-2.84c.85-.42,1.73-.79,2.59-1.2a4.68,4.68,0,0,1,6.85,4,3.32,3.32,0,0,1-2,3,4.43,4.43,0,0,1-2.74.59c-2-.32-3.92-.55-5.86-.94a3.59,3.59,0,0,1-1.59-.95A10.45,10.45,0,0,1,82.64,33Zm5.21,1.13v.15c1.19-.07,2.38-.08,3.55-.24a9.49,9.49,0,0,0,2.25-.71A1.08,1.08,0,0,0,94.22,32a3.3,3.3,0,0,0-3.59-1.66c-1.55.59-3.07,1.29-4.59,2a1.44,1.44,0,0,0-.58.4,1.94,1.94,0,0,0-.42,1c0,.43.47.58.91.56Z"/><path class="cls-1" d="M32.62,130.05c.56-.22,1-.1,1,.55-.09,1.58-.2,3.18-.44,4.74A32.17,32.17,0,0,0,33.31,146a11.9,11.9,0,0,0,1.57,4,12.63,12.63,0,0,0,3.9,4.24c0,.63-.42.55-.69.55s-.62-.14-.93-.16c-2.26-.12-3.28-1.74-4.07-3.5-.59-1.29-.9-2.7-1.36-4.05A22.18,22.18,0,0,1,31,136.7a2.75,2.75,0,0,1,.21-.93c1-1.64,1-3.49,1.21-5.3A1.24,1.24,0,0,1,32.62,130.05Z"/><path class="cls-1" d="M75.61,152.27a9.32,9.32,0,0,1-1.08-3.15,7,7,0,0,0-6.71-6.75c-.69-.06-1.39-.07-2.37-.12.38-.44.52-.75.75-.85a9.66,9.66,0,0,1,7,0,2.34,2.34,0,0,1,1.21,1.09,16.51,16.51,0,0,1,1.8,4.61A9.73,9.73,0,0,1,75.61,152.27Z"/><path class="cls-1" d="M211.83,59.47c.15.18.49.42.6.74a.67.67,0,0,1-.53.91c-1.54.2-1.91,1.34-2,2.57a17.83,17.83,0,0,0,.27,3.79A25,25,0,0,0,211.88,73a5.28,5.28,0,0,1,.34,1.11.45.45,0,0,1-.21.39c-.2.09-.51.19-.64.1a2.82,2.82,0,0,1-.83-.82,22,22,0,0,1-2.85-10A4.27,4.27,0,0,1,211.83,59.47Z"/><path class="cls-1" d="M80.82,32.34c-.13-3.15.93-4.83,3.73-5.68A25.08,25.08,0,0,1,89,25.81a5.15,5.15,0,0,1,2,.51c.14.05.28.41.26.6a.86.86,0,0,1-.43.51,2,2,0,0,1-.7.08,9.81,9.81,0,0,0-7.62,4.3C82.15,32.35,81.72,32.81,80.82,32.34Z"/><path class="cls-1" d="M156.16,195c-.58,1.37-.16,2.8-1.54,3.43-1.62-.22-1.7-1.65-2.07-2.68-1.13-.43-1.71.58-2.72.73l-.84-.86c.15-.25.19-.43.3-.51.46-.3,1-.53,1.41-.87a4,4,0,0,1,4-.51C155.27,193.87,155.65,194.5,156.16,195Z"/><path class="cls-1" d="M28.68,111c1.52-.32,1.27,1.42,2.29,1.88a3.24,3.24,0,0,0,.56-2.64c-.08-.93-.33-1.84-.49-2.71.45-.38.87-.42,1.11,0a6,6,0,0,1,.37,6.15,2.4,2.4,0,0,1-1.4,1.22,1.56,1.56,0,0,1-1.57-.27A2.84,2.84,0,0,1,28.68,111Z"/><path class="cls-1" d="M195.52,99.09l-1.8.5a2,2,0,0,1,.55-2.28c.56-.48,1.17-.31,1.81-.18a2.43,2.43,0,0,1,1,4.4,3.41,3.41,0,0,1-2.62.92c-.24,0-.61-.33-.63-.54a1,1,0,0,1,.46-.71c.25-.16.63-.1.92-.2C196,100.7,196.1,100.34,195.52,99.09Z"/><path class="cls-1" d="M171.18,35.3c-.12-.77-.2-1.3-.3-1.89l-1.33.45c-.71-.24-.71-.84-.79-1.36-.19-1.1.39-1.67,1.47-1.49a3.3,3.3,0,0,1,2.58,3.2,1.66,1.66,0,0,1-.56,1C172.06,35.33,171.67,35.26,171.18,35.3Z"/><path class="cls-1" d="M103.73,14.81c.25.11.53.15.62.3.38.64.77.76,1.52.51s1.1.56.83,1.24c-.48,1.18-1.43,1.5-2.4.74a2,2,0,0,1-1-2.21A2.33,2.33,0,0,1,103.73,14.81Z"/><path class="cls-1" d="M76.77,159.63c.74-.7,1.43-.37,2.11-.29a2.61,2.61,0,0,1,.26,2.49.86.86,0,0,1-1.5.28A3.5,3.5,0,0,1,76.77,159.63Z"/><path class="cls-1" d="M96.2,193.33l.33,1.17a4.75,4.75,0,0,1-4.16,0c-.21-.11-.46-.52-.4-.7a.93.93,0,0,1,.69-.48C93.74,193.3,94.83,193.33,96.2,193.33Z"/><path class="cls-1" d="M199.38,107.49a7,7,0,0,1-.5,3.9c-.08.2-.49.34-.76.37a.66.66,0,0,1-.46-.43,5.65,5.65,0,0,1,1-3.74C198.73,107.47,199.07,107.52,199.38,107.49Z"/><path class="cls-1" d="M153.24,106.18l-2.31-.69c-.23-1.51,0-2,1-2.09a.92.92,0,0,1,1.1.66A16.4,16.4,0,0,1,153.24,106.18Z"/><path class="cls-1" d="M121.7,27.28a7.24,7.24,0,0,1,.33-.87c.07-.13.22-.21.41-.37.59.41.9,1.18,1.74,1.38.43.1.44.83.15,1.25-.14.19-.65.36-.78.26C122.93,28.46,122.38,27.9,121.7,27.28Z"/><path class="cls-1" d="M206.34,110a3,3,0,0,1-.47.56,2,2,0,0,1-.66.19c-.79.22-1.44,0-1.55-.52a1.27,1.27,0,0,1,.83-1.27,3,3,0,0,1,.67-.2C205.86,108.67,206.36,109.13,206.34,110Z"/><path class="cls-1" d="M87.84,160.27c-1.73-.28-1.25-1.76-1.8-2.87l1.7-.25A2.53,2.53,0,0,1,87.84,160.27Z"/><path class="cls-1" d="M107.84,10.87a1.92,1.92,0,0,1,.67,1.89,1,1,0,0,1-.49.72,1,1,0,0,1-.81-.18,6.94,6.94,0,0,1-.84-1,6.18,6.18,0,0,1,.64-.94A4,4,0,0,1,107.84,10.87Z"/><path class="cls-1" d="M111.45,17.2c-.14.58-.19.88-.29,1.17-.21.6-.61.89-1,.74a1,1,0,0,1-.56-1.15,2.14,2.14,0,0,1,.52-1,.69.69,0,0,1,.61-.19A2.94,2.94,0,0,1,111.45,17.2Z"/><path class="cls-1" d="M4,121.48c.07-.52.13-1.1.79-1.27a.81.81,0,0,1,.65.12c.53.45.24,1,.12,1.53,0,.15-.07.35-.18.42s-.56.37-.8.32-.41-.39-.57-.63S4,121.67,4,121.48Z"/><path class="cls-1" d="M49,60.58a7.36,7.36,0,0,1-.83.94,1,1,0,0,1-1.29,0,1.2,1.2,0,0,1-.31-.82.75.75,0,0,1,.41-.51A1.85,1.85,0,0,1,49,60.58Z"/><path class="cls-1" d="M127,25.36c.61.83.13,1.45-.33,2.08-.62-.06-1.15-.36-1.11-1A1.2,1.2,0,0,1,127,25.36Z"/><path class="cls-1" d="M220.32,162.86a9.42,9.42,0,0,1-.17-1.39c0-1,.46-1.26,1.78-1.27-.3,1-1.49,1.51-1.61,2.63Z"/><path class="cls-1" d="M170.37,211.3a3.18,3.18,0,0,1-.94.54.8.8,0,0,1-.65-.45.77.77,0,0,1,.32-.71C169.66,210.39,170.13,210.55,170.37,211.3Z"/><path class="cls-1" d="M83.09,154.84c-.3.25-.53.57-.73.56s-.48-.35-.51-.58c-.06-.4.31-.5.63-.44C82.65,154.41,82.8,154.61,83.09,154.84Z"/><path class="cls-1" d="M203,103.48c-.29-.37-.64-.62-.61-.81a.72.72,0,0,1,.84-.62c.17,0,.46.33.43.39A7.63,7.63,0,0,1,203,103.48Z"/><path class="cls-1" d="M48.72,53.74c-.26-.29-.5-.42-.52-.59a.63.63,0,0,1,.69-.75.84.84,0,0,1,.48.37A8.19,8.19,0,0,1,48.72,53.74Z"/><path class="cls-1" d="M43.37,52.87c-.3.13-.59.38-.79.31a.8.8,0,0,1-.45-.65c.08-.52.48-.05.73-.11S43.14,52.65,43.37,52.87Z"/><path class="cls-1" d="M220.32,162.83a1,1,0,0,0-.24,0l-1,.2c0-.07,0-.17,0-.22.42-.57.81-.13,1.21.06Z"/></g></g></svg>