<svg xmlns="http://www.w3.org/2000/svg" viewBox="0 0 260.85 165.73"><defs><style>.cls-1{fill:#c9e1ef;}.cls-2{fill:#6593ce;}.cls-3{fill:#76b2e2;}.cls-4{fill:#4c5ca6;}.cls-5{fill:#353b8e;}</style></defs><g id="Calque_2" data-name="Calque 2"><g id="Calque_1-2" data-name="Calque 1"><path class="cls-1" d="M52.6,63.43s69.63,28.37,160.32,19c0,19-1.27,19.06-1.27,19.06S156.49,123.71,51.72,89.86A90.28,90.28,0,0,1,52.6,63.43Z"/><path class="cls-2" d="M69.34,31.21s96.39,24.86,135.5,12.61C213.85,62,215.4,77.51,214,83.3a21.67,21.67,0,0,1-5.1,2.13c-5.93,1.57-15.29,3.1-18,2.72-4-.57-25.64,0-30.92-.63S88.48,79,83.84,77.28,61.41,71.41,52.6,65.87C53.06,59.7,62.68,40,69.34,31.21Z"/><path class="cls-1" d="M212.89,101.4s-13.3.56-23.73,5.37-44.41-2.1-44.41-2.1-41.85-8.67-49.5-8a74.7,74.7,0,0,1-15.66-.6,68.66,68.66,0,0,1-10.25-1.66c-3.57-1.06-18.48-6-18.48-6s1.77,15.1,3.3,15.38,82.36,29.19,151.45,17.48A154.94,154.94,0,0,0,212.89,101.4Z"/><path class="cls-3" d="M204.85,121.21s-9.69,18.57-19.08,23c-20.71,3.38-26.69,4.85-33.63,4.24s-18.24-1.83-30.75-4.2-38.17-5.7-59.61-20c-7.66-16.29-7.62-20.56-7.62-20.56l16.7,3s15.84,4.32,22.66,6.77,18.68,1.82,18.68,1.82l18.23,4.43,8.51,1.42h17.21l15.49-1.42Z"/><path class="cls-4" d="M61.78,124.29A162.73,162.73,0,0,0,95,138.75c2.58.78,5.27,1.32,8,1.87,1.54.3,3.1.64,4.66.94,1.17.23,2.56.63,3.74.82.9.14,1.45.26,2.31.4,23.59,3.83,32.48,5.84,41.17,5.46a249.47,249.47,0,0,0,30.91-4c-7.44,6.12-22.35,18.67-40,19.54s-44.05,2.52-63.72-17.07S68.35,133.85,61.78,124.29Z"/><path class="cls-3" d="M98.25,10.89S75.51,19.58,69.34,31.21c2,5.73,11,6.67,11,6.67s18.74,3.8,30.26,4.81a208.25,208.25,0,0,1,24.26,3.94l12,1.1,15.54.33h16.17l7.18.53s10.08,1.31,16.06-2,1.24-4.73,1.24-4.73-3.78-7.53-5.59-8-19.82-18.72-19.82-18.72a50.87,50.87,0,0,1-17.59,5.61c-9.26.92-23.88-.59-35.46-2.49C124.61,18.31,105,15.59,98.25,10.89Z"/><path class="cls-4" d="M98.25,10.5s-.16,1.57,2.67,3c1.44.73,4.69,1.14,7,1.9,1.76.59,3.43,1.65,5.82,2,4.05.67,11.18,1.26,19.14,2,4.7.44,8.77,1.24,12.21,1.56,20.67,1.9,20.33,1,25-.25a12.41,12.41,0,0,0,7.54-5.06S139.33-13.11,98.25,10.5Z"/><path d="M103.39,103.73l.12,0,.12,0a.56.56,0,0,0,0-.08Z"/><path d="M98.78,103.1s0,.05,0,.07l.09,0h-.12Z"/><path class="cls-5" d="M175.57,17.44a7,7,0,0,1-5.19,2.88c-.56.05-1.1.22-1.65.3-2.44.36-4.89.71-7.33,1.05a6.06,6.06,0,0,1-1-.06c-2.47-.11-4.94-.19-7.4-.34s-5.09-.37-7.64-.57l-3.56-.29a2.76,2.76,0,0,1-.71-.09,12.93,12.93,0,0,0-4.2-.53c-2.69-.13-5.37-.62-8.06-1l-3.56-.47a2.48,2.48,0,0,0-.71-.05c-1,.19-1.38-1.16-2.49-.89a9.71,9.71,0,0,1-2.8.06c-1-.05-1.91-.32-2.86-.32a20.69,20.69,0,0,1-8.25-2,5.68,5.68,0,0,0-1.61-.45,16.91,16.91,0,0,1-6.12-1.93,4.24,4.24,0,0,0-.68-.21c.45,1,.54,1.15,1.08,1.31,2,.61,3.9,1.75,6.15,1.77a3.16,3.16,0,0,1,2.77,1.11c.15.21.55.27.85.35,2.13.54,4.14,1.68,6.5,1.06.55-.15,1.23.2,1.86.31,2,.35,4.07.7,6.12,1,1.17.19,2.36.34,3.55.48,1.42.17,2.85.3,4.27.47a4.17,4.17,0,0,0,2.35.08,1.33,1.33,0,0,1,.91.16,2.6,2.6,0,0,0,2.29.2,2.17,2.17,0,0,1,1.4,0,8.85,8.85,0,0,0,3.54.42,7.64,7.64,0,0,1,1.88.28,3.82,3.82,0,0,0,1.16.22c1.14-.2,2.23.26,3.3.2a22.76,22.76,0,0,1,3.32.23,28.78,28.78,0,0,0,3.35,0c2.38-.08,4.74.25,7.14.06,1.85-.15,3.62-.57,5.42-.85a13.49,13.49,0,0,0,4.38-1.09,7.33,7.33,0,0,0,2.49-1.79,20.69,20.69,0,0,1,2-2h0l.26-.25-1.21-.25A14.11,14.11,0,0,0,175.57,17.44Z"/><path class="cls-5" d="M171.24,146.29a7.59,7.59,0,0,0-3,1.26c1.64.37,3.07-.48,4.63-.56a43.8,43.8,0,0,0,4.93-.85c1.4-.23,2.83-.42,4.53-.65a6.54,6.54,0,0,0,.95-1.38,12.15,12.15,0,0,1-2.14.5C177.83,145.08,174.54,145.7,171.24,146.29Z"/><path class="cls-5" d="M71.37,35c.64.39,1.19,1.08,2.08.78-.14-1-1.29-1-1.83-1.63-.4-.47-.94-.76-1.1-1.47a2.61,2.61,0,0,1-.08-.86,10.77,10.77,0,0,1-1,1.4c.29.31.55.59.82.84A6.87,6.87,0,0,0,71.37,35Z"/><path d="M260.59,107.34a12.49,12.49,0,0,1-.54-3.89,5.3,5.3,0,0,0,.08-1.19c-.11-1.51-.24-3-.4-4.53a1.9,1.9,0,0,0-.38-.86c-1.68-2.3-3.29-4.65-5.89-6.08-2.76-1.52-4.66-4.07-7-6.12-.3-1-1.26-1.4-2-2s-1.62-1.28-2.44-1.9a3.63,3.63,0,0,0-.83-.43,26.47,26.47,0,0,1-2.68-.93A14,14,0,0,0,233.25,78a25.44,25.44,0,0,1-8.8-2,44.72,44.72,0,0,1-7.6-4,3.69,3.69,0,0,1-1.6-2c-1.2-4.21-2.06-8.5-2.89-12.8a23.64,23.64,0,0,0-1.08-3.41,12,12,0,0,1-.68-1.52,18.65,18.65,0,0,0-3.06-6.44c-1.22-1.87-2.57-3.67-3.65-5.62A34.4,34.4,0,0,0,197,32a70.69,70.69,0,0,1-6.33-6.51,51,51,0,0,0-9.29-9.27c-.59-.42-1.14-.88-1.76-1.25q-4.31-2.55-8.65-5A14.27,14.27,0,0,1,169,9a11.11,11.11,0,0,0-3.85-1.87c-1.59-.52-3.23-.91-4.76-1.58a18.81,18.81,0,0,0-4.8-1.27,6.64,6.64,0,0,1-1.38-.41,71.55,71.55,0,0,0-9.45-2.53,47.09,47.09,0,0,0-5.2-.69,1.54,1.54,0,0,0-.71,0c-1.2.48-2.39,0-3.53-.14A26,26,0,0,0,128,.11c-1.43.17-2.88.09-4.32.14a13.52,13.52,0,0,0-1.41.16c-3.39.53-6.75,1.15-10.1,1.91a11.51,11.51,0,0,0-2.89,1.05c-1.4.75-2.86,1.39-4.31,2.05s-3,1.22-4.36,2c-2.4,1.25-4.68,2.73-7.19,3.77a21.68,21.68,0,0,0-4.78,2.7,34.48,34.48,0,0,1-3.92,2.27c-.56.32-1.15.57-1.67.94a61.56,61.56,0,0,0-7,5.35,56.89,56.89,0,0,0-8.47,9.4c-1.85,2.69-3.58,5.47-5.66,8A10.28,10.28,0,0,0,61,41.24c-.28.48-.55,1-.85,1.44-1.36,2.15-2.73,4.3-4.09,6.46a2.14,2.14,0,0,0-.18.44c-1,2.59-2,5.18-3.08,7.8a29.5,29.5,0,0,0-3.76,0c-3.08.38-6.16.8-9.21,1.39a13.67,13.67,0,0,0-7.53,3.83,4.23,4.23,0,0,1-3.83,1.43A32.61,32.61,0,0,0,24,63.94a17.2,17.2,0,0,0-6.22,1.5c-1.9.76-3.3,2.22-4.94,3.35C10.7,70.24,9,72.17,6.57,73.22,5.69,73.6,4.8,74,4,74.41,1.88,75.5.31,77,.06,79.5S.24,84,2.36,85.41a2.55,2.55,0,0,1,.69.66A12.92,12.92,0,0,0,7.51,89.6c2.84,1.62,5.59,3.37,8.57,4.77a31.41,31.41,0,0,0,7.22,2.4,11.29,11.29,0,0,1,4.26,1.49c1.7,1.15,3.8,1.64,5.3,3.13.1.1.31.09.45.17a31,31,0,0,0,5.87,1.91,77.6,77.6,0,0,0,13.15,2.33c1.27.16,1.27.12,1.57,1.32a50.84,50.84,0,0,0,2.42,8q1.34,3.06,2.74,6.11c.43.93.91,1.86,1.43,2.75,1.21,2.06,2.56,4,3.66,6.16A36.29,36.29,0,0,0,71,139a24.68,24.68,0,0,0,2.84,2.57c1.35,1,2.82,1.8,4.24,2.68a11.64,11.64,0,0,1,4.18,3.86,12,12,0,0,0,1.21,1.47,21,21,0,0,0,5,4,40,40,0,0,0,8.65,4.56c2.12.69,4.16,1.59,6.29,2.26,3.2,1,6.32,2.24,9.48,3.33a15.64,15.64,0,0,0,2.78.67c1.5.22,3,.27,4.51.54a37.35,37.35,0,0,0,8.31.65,11.39,11.39,0,0,1,1.17,0c4.14.22,8.28.34,12.32-1a6.09,6.09,0,0,1,1.41-.22,57.61,57.61,0,0,0,9.41-1.49c1.33-.32,2.56-.9,3.86-1.24a62.87,62.87,0,0,0,6.86-2c2.52-1,5.08-1.84,7.61-2.79a3,3,0,0,0,1.43-.84,4.94,4.94,0,0,1,2.84-1.63,5.61,5.61,0,0,0,2.51-1.72,33.79,33.79,0,0,1,7-6.18,54,54,0,0,0,5.5-4.57c2.61-2.2,4.58-5.08,7.36-7.13a2.89,2.89,0,0,0,.58-.75,48.79,48.79,0,0,0,4.61-7c.6-1.21,1.29-2.38,1.95-3.56a3.08,3.08,0,0,1,3.55-1.74,41.48,41.48,0,0,1,7.23,1.43,6,6,0,0,0,3.31.24,38.24,38.24,0,0,1,4.51-.44c2.45-.25,4.9-.57,7.35-.88a6,6,0,0,0,.93-.22,36.52,36.52,0,0,1,5.9-.88c3-.23,6.05.42,9.07,0,2,.53,4-.21,5.91-.56a10.08,10.08,0,0,0,4.16-1.73,9.61,9.61,0,0,0,3.82-6.17,28.47,28.47,0,0,0,.26-3.81A3.34,3.34,0,0,0,260.59,107.34Zm-4.23-10.69a17.22,17.22,0,0,1,1.24,1.94,3.28,3.28,0,0,1,.19,1.38c0,.32-.19.48-1.32,1.4-.15-1.6-.3-3.1-.44-4.6Zm-17.8-15.39c1.21.68,2.71.86,3.74,2.16-1.5.16-2.33-1-3.47-1.36s-2.17-.87-3.25-1.31A3.63,3.63,0,0,1,238.56,81.26Zm-22.27-7c0-.09.27-.09.41-.11a.32.32,0,0,1,.23.07l3.06,2-.09.24c-1-.27-1.94-.5-2.88-.83a2,2,0,0,1-.85-.75C216.08,74.76,216.2,74.45,216.29,74.26Zm-.62,5a.74.74,0,0,1,.87-.62,11,11,0,0,0,4.5-.07c2.07.5,4.29.15,6.3,1.17A28.86,28.86,0,0,1,232,82.16a4.41,4.41,0,0,0,1.09.46,80.5,80.5,0,0,1,7.77,3.62c2.26,1.16,4.57,2.23,6.91,3.23a12.78,12.78,0,0,1,3.51,2.42,2.43,2.43,0,0,1,.7,1,16.33,16.33,0,0,1,1,5.24,5.81,5.81,0,0,1-2.21-1.62,9.18,9.18,0,0,0-3.2-2c-.73-.31-1.46-.64-2.2-.92-2.38-.89-4.76-1.76-7.14-2.66a3.44,3.44,0,0,1-1.21-.69,36.19,36.19,0,0,0-6.12-4.56,21.82,21.82,0,0,0-13.28-3.84,8.35,8.35,0,0,1-1.66-.18.7.7,0,0,1-.63-.85Q215.49,80,215.67,79.31Zm23.67,24.11a6.26,6.26,0,0,0,3-.61,2.25,2.25,0,0,0,.13-3.92c-1-.59-2.11-1.11-3.13-1.72a1.93,1.93,0,0,1-.68-.9.72.72,0,0,1,.58-1.06c.55-.07,1.1-.09,1.66-.13,4.42,0,8,2,11.18,4.83a.67.67,0,0,1,.11,1c-2.23,2.76-4.87,4.81-8.6,5-1.35.08-2.7.21-4,.38-.71.09-1.39.35-2.09.49s-1.41.26-2.12.35a.44.44,0,0,1-.33-.24.47.47,0,0,1,.08-.43c.21-.23.5-.39.72-.61a5.64,5.64,0,0,0,1.14-1.21A2.33,2.33,0,0,1,239.34,103.42Zm-1-2.19c.17-.57.31-1.07.5-1.7l2,.85c.2.08.39.19.72.36A3.63,3.63,0,0,1,238.36,101.23ZM215.29,84.39a4.06,4.06,0,0,1,.21-.76c.88.15,1.74.28,2.59.45a89.94,89.94,0,0,1,11.06,3,9.81,9.81,0,0,1,3.91,2.62,7,7,0,0,0-1-.14c-3.88.12-7.26-1.65-10.75-2.93a12.3,12.3,0,0,0-5.09-1.06C215.32,85.65,215.23,85.48,215.29,84.39Zm-.6,5.43a2.28,2.28,0,0,1,.19-.69c.11-.17.41-.43.49-.39,1,.51,1.85-.24,2.78-.19a14.19,14.19,0,0,1,2.36.14,24.17,24.17,0,0,1,5.9,1.78,11,11,0,0,0,3.21.84c1.47.26,3,.37,4.45.59a4.34,4.34,0,0,1,1.36.44A1.42,1.42,0,0,1,236,93c.32.78.3,1,0,2.69-2.07-.59-4.11-1.21-6.17-1.77-.68-.18-1.4-.24-2.1-.37-4.05-.77-8.1-1.55-12.16-2.31C214.57,91.07,214.43,90.88,214.69,89.82Zm-.29,4.68a.71.71,0,0,1,1.06-.6c2.21,1.21,4.68.79,7,1.21a40.16,40.16,0,0,1,6.76,1.39,43.24,43.24,0,0,0,4.43,1,16.65,16.65,0,0,1,2.05.62.71.71,0,0,1,.37,1c-.05.15-.12.3-.18.45-.36.88-.61,1.12-1.4.87a19.39,19.39,0,0,0-4.73-.58c-1.42-.08-2.84-.23-4.26-.33a2.17,2.17,0,0,0-.72,0,14.82,14.82,0,0,1-5.86,0,32.34,32.34,0,0,0-4.06,0c-.62,0-.81-.2-.8-.86,0-.4,0-.8.08-1.19l-.14,0C214.14,96.54,214.24,95.51,214.4,94.5Zm-.7,11.29c-.42,0-.79-.1-.81-.63a.94.94,0,0,1,1-1.11l18.79-1.4a10.11,10.11,0,0,1,1.28.06,16.75,16.75,0,0,1-5.77,3.72,2.82,2.82,0,0,1-1.4.26c-1.5-.15-3,0-4.5-.1C219.4,106.43,216.55,106.07,213.7,105.79Zm7.23,3.53c-3.29,1-6.28.74-9.27.79-.06-.86.15-1.39.94-1.45a18.9,18.9,0,0,1,2.6-.1A25.62,25.62,0,0,1,220.93,109.32ZM54,63a30.41,30.41,0,0,1,1.63-4.48c.85-2.15,1.82-4.25,2.63-6.4a92.65,92.65,0,0,1,5.26-10.73A7.34,7.34,0,0,1,64.39,40a46.09,46.09,0,0,0,4.08-5.89c.2-.32.47-.61.81-1l.19.19a10.77,10.77,0,0,0,1-1.4,1.4,1.4,0,0,1,.27-.7A31.6,31.6,0,0,1,77.37,24a19.42,19.42,0,0,0,2.11-1.95c1.23-1.19,2.88-1.67,4.28-2.57A111.7,111.7,0,0,1,98.2,12.07c1.24-.55,2.45-1.16,3.64-1.81,2.45-1.32,4.87-2.7,7.31-4a7.76,7.76,0,0,1,2.66-1,29.46,29.46,0,0,0,4.36-1.22,37.91,37.91,0,0,1,10.06-1.9c.71,0,1.42-.19,2.14-.26a7.55,7.55,0,0,1,4.45.37,2,2,0,0,0,1.39.21c1.06-.33,2.06.11,3.07.08,4.7-.14,9.17,1.13,13.65,2.25a131.61,131.61,0,0,1,15.24,4.85c1.18.46,2.3,1.11,3.44,1.68a28.67,28.67,0,0,1,2.75,1.43c.74.47,1.85.66,1.8,1.94,0,.17.4.47.66.52a4.76,4.76,0,0,1,2.1.91l1.21.25.41.25h0a4.58,4.58,0,0,1,.82.57c2.68,2.6,5.43,5.13,7.87,8,1.49,1.76,3.18,3.34,4.59,5.18a21.45,21.45,0,0,0,4.79,4.32,13.26,13.26,0,0,1,5.21,6.64,4.17,4.17,0,0,0,.66,1l1.16,1.5.55.55a18.66,18.66,0,0,1,4,8.57c.85,4.38,1.6,8.8,3.44,12.93a33.4,33.4,0,0,1,1.2,3.87c.23.76.53,1.5.7,2.26a11,11,0,0,1,.36,2.6,43.83,43.83,0,0,1-.93,7.82,2.29,2.29,0,0,1-.63,1.25,1.69,1.69,0,0,1-.11,1.46l.08,0c.64.33.37.87.33,1.29-.19,2.14-.49,4.27-.65,6.42-.11,1.59,0,3.19-.09,4.79-.1,2.52.31,2.7-2.82,2.91-2,.14-4,.34-6,.39a23.44,23.44,0,0,0-5.64,1,6.73,6.73,0,0,0-1.5.68,15.21,15.21,0,0,1-4.42,1.74c-3.9.82-7.77,1.78-11.73,2.26-.63.08-1.27.08-1.91.12l-5.24.37a2.55,2.55,0,0,1-.72,0c-2.38-.63-4.76,0-7.13.06a24.23,24.23,0,0,1-6.18-.59c-3.67-.78-7.35-1.5-11-2.29-3.9-.83-7.78-1.71-11.68-2.57-1.16-.26-2.32-.54-3.5-.74-3.06-.51-6.13-1-9.19-1.49a3.22,3.22,0,0,1-.69-.2,32.32,32.32,0,0,0-9.34-1.78,15.17,15.17,0,0,1-2.13-.3c-2.58-.6-5.21-.66-7.81-1a71,71,0,0,0-8.36-.5c-1.51,0-3,.2-4.52.21a12,12,0,0,1-2.6-.29,10.84,10.84,0,0,0-3.55-.14A11.15,11.15,0,0,1,79,95.34a.85.85,0,0,0-.23,0c-3.92,0-7.44-1.59-11-2.89A93.82,93.82,0,0,0,56.53,89c-1.17-.26-2.31-.61-3.45-1-1.41-.45-1.43-.5-1.48-2a60.56,60.56,0,0,1,.84-13.84,9.9,9.9,0,0,0,.2-1.42A43.13,43.13,0,0,1,54,63Zm156.62,41.63a1,1,0,0,1-.66.56c-1,.14-2.06.11-3.08.27-3.43.56-6.85,1.24-10.3,1.72a35.33,35.33,0,0,1-4.72,0c.12-.69.6-.69.93-.82a29.61,29.61,0,0,1,8.7-2.42c2.84-.21,5.72,0,8.58.06C210.4,104.06,210.75,104.29,210.63,104.65Zm-39,4.25a9.61,9.61,0,0,1-5,0C168.23,108.7,170,108.26,171.64,108.9Zm-47.93-4.12c-1.25-.21-2.48-.66-3.74-.78a43.77,43.77,0,0,0-5.25-.11,10.39,10.39,0,0,1-6-1.35,21.9,21.9,0,0,0-7.66-2.53c-1.41-.23-2.84-.35-4.26-.5-4.44-.49-8.88-1-13.31-1.45a8,8,0,0,1-1.49-.49,12,12,0,0,1,5.54-.26,48.17,48.17,0,0,0,7.87.41,27.36,27.36,0,0,1,2.85.23c.55,0,1.1.17,1.66.23,1.42.15,2.84.28,4.27.44,2.76.3,5.54.58,8.3.94a26.62,26.62,0,0,1,7.66,1.73,3.67,3.67,0,0,0,1.86.25,14.9,14.9,0,0,1,5,.5c1.55.36,3.13.58,4.69.88a4.46,4.46,0,0,1,1.35.39,14.9,14.9,0,0,0,4.8,1.4c3.22.49,6.44,1,9.66,1.58,1.72.3,3.41.78,5.13,1.12,1.15.22,2.32.33,3.49.5l0,.27-5-.24a44.71,44.71,0,0,0-8.81.08,8.64,8.64,0,0,1-1.44,0c-1.19,0-2.39-.06-3.57,0a10.81,10.81,0,0,1-5.15-.8A38.36,38.36,0,0,0,123.71,104.78Zm3.9,3.15a15.76,15.76,0,0,1-5.34-.37c-1.9-.51-3.87-.78-5.72-1.14A21.61,21.61,0,0,1,127.61,107.93Zm-17-2.24a7.21,7.21,0,0,1-1.32-.08q-2.67-.66-5.31-1.4c-.16,0-.26-.26-.38-.43l-.12,0-.12,0a9.59,9.59,0,0,1-4.49-.61l-.09,0s0,0,0-.07a11.63,11.63,0,0,1-4.93-1.24c.18-.61.66-.51.94-.45,1.22.29,2.43.64,3.63,1,.17.06.25.41.36.66h.12a2,2,0,0,1,1.7-.22c.93.26,1.86.55,2.79.83l.19,0a.56.56,0,0,1,0,.08A24.11,24.11,0,0,1,110.64,105.69Zm47.72,4.67c-3.14.13-6.29.43-9.81-.58A34.87,34.87,0,0,1,158.36,110.36ZM41.78,61.67c1.25-.2,2.52-.24,3.78-.41s2.32-.46,3.49-.61c.94-.12,1.89-.11,2.84-.17.54,0,.68.3.69.73s-.12.76-.64.8c-1.56.14-3.07.67-4.7.22a6.66,6.66,0,0,0-2.34.25l-8,1A12,12,0,0,1,41.78,61.67Zm-8.32,4.48c2.09.11,4.12-.3,6.19-.35.23,0,.47-.1.71-.11a52.94,52.94,0,0,0,9.72-1.2,4,4,0,0,1,.79,0c-.3,1-.3,2.11-.83,2.64s-1.66.4-2.42.76a8.37,8.37,0,0,0-2.13,1.52c-3.3,3.13-3.29,3.16-8,3.29a21.83,21.83,0,0,0-6.38.91,20.7,20.7,0,0,0-2.46.92c-2.21,1.1-4.41,2.24-6.57,3.42a7.08,7.08,0,0,0-1.88,1.47c-.9,1-1.43,2.72.37,3.91A12,12,0,0,1,23,84.83a12.09,12.09,0,0,1,1.25,2.55,4.53,4.53,0,0,0,2.91,2.31,25.43,25.43,0,0,1,5.28,2.21,1.94,1.94,0,0,0,.65.31c2.62.35,5,1.61,7.58,2.08,1.88.35,3.78.63,5.63,1.09,1.54.38,3,.94,4.53,1.47.53.19.61.68.55,2.13a41.58,41.58,0,0,0-8.81-2.85c-.85-.18-1.66-.56-2.51-.79-2.22-.61-4.46-1.2-6.69-1.77A42.05,42.05,0,0,1,26.64,91,3.16,3.16,0,0,1,26,90.7c-2.15-1.64-4.35-3.21-6.4-5a12.65,12.65,0,0,1-2.3-3A2.78,2.78,0,0,1,17,80.89a21.4,21.4,0,0,1,1.13-3.65,4.55,4.55,0,0,1,1.22-1.72c2.93-2.56,5.92-5.07,8.89-7.58C30.07,66.38,30.83,66,33.46,66.15Zm16.27,5a.8.8,0,0,1-.6.89c-1,.22-2,.39-3,.54-.16,0-.38-.16-.51-.31s0-.33.14-.4c1.14-.79,2.19-1.82,4-1.8C49.73,70.55,49.72,70.85,49.73,71.16ZM48.67,74c1-.14,1.49-.3,1.38,1.28a3.11,3.11,0,0,1-.12,1,2,2,0,0,1-.81,1.06A21.1,21.1,0,0,1,44.17,79a21.84,21.84,0,0,0-9.7,3.8,1.8,1.8,0,0,0-.54.74c-.42,1.15-.46,1.24-1.39,1a29.61,29.61,0,0,1-4.42-1,5.36,5.36,0,0,1-2.45-1.75c-.47-.67.49-1.41.77-2.14a4.18,4.18,0,0,1,2.66-2.56,10,10,0,0,0,1.73-.8,13.36,13.36,0,0,1,7.42-1.41,7.44,7.44,0,0,0,2.35-.13,17.64,17.64,0,0,1,2.83-.33C45.18,74.28,46.93,74.2,48.67,74ZM39.09,89.4A22.78,22.78,0,0,0,42,90.92c.39.2.74.45,1.36.83a31.27,31.27,0,0,1-9-2.24c-1.88-.83-3.65-1.89-5.46-2.87-.1,0-.11-.27-.21-.58C32.35,86.86,36,87.14,39.09,89.4Zm.27-3.63a2.6,2.6,0,0,1-1.09-.36A1.35,1.35,0,0,1,38.22,83a10.64,10.64,0,0,1,3.05-1.24c1.78-.39,3.59-.61,5.39-.83A18.43,18.43,0,0,1,49,81c.06,1.82.14,3.54.17,5.25,0,.65-.25.89-.85.82-.87-.11-1.73-.28-2.59-.4C43.61,86.33,41.49,86.07,39.36,85.77ZM50.7,94.1a8.46,8.46,0,0,1-4.24-1.27C48.25,92.94,49.47,93,50.7,94.1Zm1.43,9.37c-.62.63-1.17-.08-1.76-.16s-1.38-.37-2.08-.49a47.34,47.34,0,0,1-7-1.43c-1.73-.58-3.41-1.33-5.11-2-1-.42-2-.91-3.08-1.3-3.8-1.44-7.62-2.84-11.42-4.29A5.84,5.84,0,0,1,20,92.86a64,64,0,0,0-7.51-5,28.43,28.43,0,0,0-4-2.13,18.57,18.57,0,0,1-4.67-3.29,3.52,3.52,0,0,1,.76-6c1.36-.67,2.73-1.32,4.14-1.86a28.59,28.59,0,0,0,7.12-4.32,19.39,19.39,0,0,1,9.09-4,7.22,7.22,0,0,1,1.14,0l.16.44c-1.56,1.08-3.19,2.08-4.67,3.26-2,1.58-3.92,3.28-5.8,5a8.6,8.6,0,0,0-1.57,2.1,4.08,4.08,0,0,0,0,4.51c.64,1,1.18,2.08,1.83,3.09a17.27,17.27,0,0,0,4.65,4.76,32.21,32.21,0,0,0,9,5c2.26,1.51,5,1.77,7.44,2.86,2.1.94,4.25,1.8,6.36,2.72,1.68.73,3.32,1.56,5,2.23a9.68,9.68,0,0,0,2.11.31C51.64,102.68,52.43,103.17,52.13,103.47Zm-.41-13.61a10.94,10.94,0,0,1,2,.23c2.92,1,6,1.45,8.93,2.38a19.68,19.68,0,0,1,4.53,2.1,3.32,3.32,0,0,1-1,.09,15,15,0,0,1-3-.68,9.11,9.11,0,0,0-4.43-.6c-1.86.18-3.58-.56-5.39-.77C52.05,92.46,51.69,91.38,51.72,89.86Zm.88,4.83c.17-.1.36-.31.52-.3a16,16,0,0,1,2.59.4,11.45,11.45,0,0,0,3.78.28,8.05,8.05,0,0,1,3.74.54,25.64,25.64,0,0,0,3.36.89,8.85,8.85,0,0,1-7.52.66,20.89,20.89,0,0,0-5.23-1.57,2.09,2.09,0,0,1-.88-.35C52.79,95.13,52.72,94.88,52.6,94.69Zm149.48,30c-.67,1.18-1.49,2.26-2.25,3.38a16.12,16.12,0,0,0-.91,1.41,20.24,20.24,0,0,1-3.43,4.58c-2,2.07-3.93,4.21-6,6.17a16.58,16.58,0,0,1-6.17,3.84,6.54,6.54,0,0,1-.95,1.38l.49-.07a8,8,0,0,1-1,1.17c-2.68,1.87-5.34,3.76-8.08,5.54a28.66,28.66,0,0,1-8.47,3.72,36,36,0,0,0-4.08,1.33,61.8,61.8,0,0,1-8.91,2.61c-.47.11-.91.3-1.36.45-2,.68-4.08,1.36-6.12,2a4.32,4.32,0,0,1-1.18.17c-3.68.14-7.3.68-11,1.13-4.26.51-8.59.74-12.8-.59a1.88,1.88,0,0,0-.47-.1c-4-.17-7.59-1.68-11.28-3a128.25,128.25,0,0,1-13.41-5.08,9.83,9.83,0,0,1-2.48-1.4,20,20,0,0,0-4.42-2.82,6.19,6.19,0,0,1-2.92-2.71,4.59,4.59,0,0,0-.93-1,14.65,14.65,0,0,1-1.53-1.52A17.66,17.66,0,0,0,77,140.73a25.8,25.8,0,0,1-7-6.17c-1.51-1.83-3.33-3.46-4-5.89-.12-.43-.58-.75-.84-1.15a.39.39,0,0,1,0-.4h0a8.35,8.35,0,0,1-1.47-3.3,15.81,15.81,0,0,1-2.37-3.2c-1.41-2.36-1.91-5.07-3.11-7.51-.42-.86-.81-1.73-1.19-2.61a8.88,8.88,0,0,1-.58-1.56c-.18-.78-.26-1.57-.38-2.33.18-.12.3-.26.42-.26,2.78,0,5.62-.5,8.32.29,4.38,1.28,8.92,1.73,13.3,2.9a20.26,20.26,0,0,1,3.16,1.07,56.84,56.84,0,0,0,5.31,2.17c1.42.48,2.71,1.35,4.12,1.88a18.23,18.23,0,0,0,4.12,1.17c1.8.22,3.64.1,5.46.17.94,0,1.88.19,2.82.25,3,.2,5.92.21,8.84.61A53,53,0,0,1,122.75,119a61.82,61.82,0,0,0,11.13,2.67,57,57,0,0,0,7.37.5,45.53,45.53,0,0,0,5.72-.14,10.24,10.24,0,0,1,2.84.32c2.52.5,5.07,1.07,7.6.45,2.72-.66,5.52-.55,8.26-1.11a35,35,0,0,1,10-.6c2.7.24,5.37.77,8,1.17a8.08,8.08,0,0,0,1.18.2c2.47,0,4.94-.09,7.42-.13.63,0,1.27,0,1.9,0a14.41,14.41,0,0,0,5.23-.41,3.4,3.4,0,0,1,.71-.12,5,5,0,0,1,2.83,0C203.3,123,202.57,123.87,202.08,124.73ZM74,106.79c1,0,1.57-.05,2.11,0,2.61.28,5.22.56,7.82.89a13.75,13.75,0,0,1,2.08.52,4.55,4.55,0,0,0,1.12.36c2.63-.12,5,1,7.44,1.62,3.84,1,7.65,2.2,11.47,3.32a6.56,6.56,0,0,1,.75.47,8.83,8.83,0,0,1-4.55.3A50.42,50.42,0,0,1,93,112.11c-2.33-.8-4.76-1.3-7.15-1.92-.3-.08-.67,0-.93-.17-3-1.74-6.48-2.1-9.84-2.73A5.27,5.27,0,0,1,74,106.79Zm55.61,11.7a10.26,10.26,0,0,1,3.65-.34c1.28-.05,2.56,0,3.84,0l4.07.07,3.84,0c1.27,0,2.55,0,3.83,0s2.53.32,3.8.31a9.27,9.27,0,0,1,4,.5c1.25-.54,2.53-.14,3.78,0s2.52,0,3.68.79c-3.28.21-6.48,1.12-9.76.84-1.83-.16-3.67-.26-5.47-.56a15.71,15.71,0,0,0-4.28.09,11.93,11.93,0,0,1-3.54.16,31.12,31.12,0,0,0-4.54-.18,6.1,6.1,0,0,1-1.42-.12c-.92-.26-1.8-.66-2.72-.91S130.56,118.8,129.65,118.49Zm77.73-5.08c-.74,1.68-1.51,3.34-2.29,5a2.1,2.1,0,0,1-1.8,1,23.47,23.47,0,0,1-6.43.21c-2.3-.25-4.61-.35-6.91-.54-1.67-.13-3.34-.29-5-.46a11.76,11.76,0,0,0-1.64-.23c-2.78.19-5.56.44-8.35.64a6.71,6.71,0,0,1-1.9-.11,31.41,31.41,0,0,0-6.41-.8,3.87,3.87,0,0,1-1.16-.2,81.85,81.85,0,0,0-8.31-2.18,43.48,43.48,0,0,0-10.36-1.35,52.46,52.46,0,0,0-5.47.29,28.91,28.91,0,0,1-5.26.13,39.81,39.81,0,0,0-10.45,1,18.21,18.21,0,0,1-6.16,0,18.53,18.53,0,0,1-4-1.49,69.56,69.56,0,0,0-14-4.66,4.81,4.81,0,0,1-.92-.25,46.94,46.94,0,0,0-9.27-2.24c-1.48-.27-3-.61-4.44-.89-2.34-.46-4.69-.94-7.05-1.31-1.16-.18-2.39,0-3.54-.23a17.07,17.07,0,0,0-6.41-.12c-2.74.47-5.39-.36-8-1.05A39.51,39.51,0,0,0,56,102.08a2.16,2.16,0,0,1-2.19-2.1,13.75,13.75,0,0,0-.78-2.47,7.32,7.32,0,0,1,4.42,1.06,10.12,10.12,0,0,0,7.4.74c.69-.15,1.41-.22,2.11-.3a5.76,5.76,0,0,0,.72,0,12.6,12.6,0,0,1,7,.39,1.78,1.78,0,0,0,1.16,0c1.58-.74,3.11-.33,4.65.09a11.58,11.58,0,0,1,2.26.77c3.66,1.83,7.66,2.63,11.52,3.87a59.87,59.87,0,0,0,6.32,1.26c3,.64,6.07,1.38,9.12,2,2.11.4,4.26.58,6.39.88a40,40,0,0,1,6.12,1c2,.63,4.11.45,6.16.65,1.41.13,2.86-.14,4.29-.1a46.68,46.68,0,0,1,5,.35c4.51.59,9,1.39,13.52,1.84a45.44,45.44,0,0,0,11.92-.58,18.39,18.39,0,0,1,7.85,0,4.11,4.11,0,0,0,.71,0c5.42.26,10.84.48,16.25.78,3.9.21,7.79.56,11.69.76,1.67.09,3.35,0,5-.08.71,0,1.43-.08,2.15-.06C207.2,112.8,207.53,113.05,207.38,113.41Zm-.78-3a27.61,27.61,0,0,0-5,.11,17.22,17.22,0,0,1-2.84-.25c-1.18-.09-2.37-.15-4-.25,2.34-1.13,4.5-1.13,6.61-1.32,1.73-.16,3.48-.18,5.22-.21a7.31,7.31,0,0,1,1.87.23.81.81,0,0,1,.46.65.92.92,0,0,1-.46.72A4.78,4.78,0,0,1,206.6,110.36Zm1.29,7.81,1.22-2.82,1-2.36c1.34-.15,2.75-.64,4-.37a8.06,8.06,0,0,0,4.84-.56,18.82,18.82,0,0,1,3.45-1,15.1,15.1,0,0,0,5-1.53,2.37,2.37,0,0,1,1.62-.19,15.26,15.26,0,0,0,2.86.17c3.27-.19,6.55.19,9.81,0a18.24,18.24,0,0,0,10.45-3.62,22,22,0,0,0,2.32-2.4c.32-.34.57-.87,1.14-.48s.91.73.74,1.38a7.7,7.7,0,0,1-.68,2c-1.4,2.37-3,4.59-5.74,5.53a26,26,0,0,1-5.32,1.38,49.7,49.7,0,0,1-11,.61,11,11,0,0,0-2.14.1c-4.37.42-8.77.67-13.09,1.34a35.71,35.71,0,0,0-9.25,2.29C208.9,117.83,208.61,117.91,207.89,118.17ZM257.32,113a18.2,18.2,0,0,1-5.37,4.3,10.23,10.23,0,0,1-5.37,1.55c-2.47-.06-4.94.3-7.41.24a44.54,44.54,0,0,0-9.5.84c-2.35.44-4.72.81-7.09,1.15a14.62,14.62,0,0,1-2.39.08c-.95,0-1.91,0-2.86-.1a19.81,19.81,0,0,1-6-1.18,5.54,5.54,0,0,1,1-.78,12.12,12.12,0,0,1,2.52-.75c2-.23,4-.4,5.94-.48a43.59,43.59,0,0,0,6.34-1.24,11.1,11.1,0,0,1,1.86-.36c2.4,0,4.79,0,7.19,0a23.76,23.76,0,0,0,4.52-.36c1.79-.34,3.64-.33,5.46-.49a13.89,13.89,0,0,0,6.89-2.48c1.48-1,2.88-2.21,4.49-3.46A2.53,2.53,0,0,1,257.32,113Z"/><path class="cls-5" d="M65.64,127.05a1.9,1.9,0,0,1,.43.21c2.83,1.45,5.62,3,8.49,4.33,1.94.92,4,1.65,6,2.41.4.16.87.48,1.34.08-.06-.13-.08-.34-.18-.38-1.37-.6-2.79-1.1-4.13-1.77-2.35-1.17-4.92-1.88-7-3.49a3,3,0,0,0-1.32-.51,3.81,3.81,0,0,1-2.72-1.72,5.58,5.58,0,0,0-1.58-1.43,8.15,8.15,0,0,1-1.14-1,8.35,8.35,0,0,0,1.47,3.3A.53.53,0,0,1,65.64,127.05Z"/><path class="cls-5" d="M201.28,86.3a1.83,1.83,0,0,0-.94.14c-1.72,1.08-3.72.69-5.58,1-1.09.2-2.2.32-3.3.43a9.33,9.33,0,0,1-1.67,0,19.86,19.86,0,0,0-2.85-.31c-3.34.19-6.69-.3-10,.12a7.12,7.12,0,0,1-1.89-.14,15.88,15.88,0,0,0-5.24-.11,14.16,14.16,0,0,1-4.77-.07c-1.25-.21-2.54-.21-3.81-.37-1.66-.21-3.31-.48-5-.72a6.83,6.83,0,0,0-1.67-.15,14.81,14.81,0,0,1-5.92-.63,8.58,8.58,0,0,0-4.5-.07c.33.06.65.13,1,.17a8.12,8.12,0,0,1,1.41.14,47.08,47.08,0,0,0,4.68.9c2.89.57,5.91.3,8.71,1.35,3.73.18,7.44,1,11.21.17a8.55,8.55,0,0,1,2.84.14c.95.12,1.88.37,2.82.51a8.42,8.42,0,0,0,1.42,0c.16,0,.31-.1.46-.12a6.38,6.38,0,0,1,1.67-.15c3,.48,6.07-.57,9,.08a10.46,10.46,0,0,0,4.92-.32,4.52,4.52,0,0,1,1.12-.35c3.22.16,6.29-1,9.49-1a22.27,22.27,0,0,0,4.84-1.16l2.42-.64a1.69,1.69,0,0,0,.11-1.46,1.85,1.85,0,0,1-.78.45C208.16,85.11,204.84,86.27,201.28,86.3Z"/><path d="M73.51,35.79h-.06v0Z"/><path class="cls-5" d="M204.19,44.37a4.23,4.23,0,0,1-2.07,2.48,12.48,12.48,0,0,1-4.86,1.79c-.94.11-1.86.41-2.8.56a32.16,32.16,0,0,1-9.24-.23,33.6,33.6,0,0,0-8.79-.41,7.94,7.94,0,0,1-1.18-.07c-.79,0-1.58,0-2.38,0a22.61,22.61,0,0,1-2.6-.11,13.72,13.72,0,0,0-5,.1,3.42,3.42,0,0,1-1.4.16A10.54,10.54,0,0,0,159,49a3.56,3.56,0,0,1-1.86-.11,13.69,13.69,0,0,0-4.71-.68,8.44,8.44,0,0,0-1.88.26,7.46,7.46,0,0,1-3.32.11c-1.42-.19-2.82-.48-4.24-.69-.55-.08-1.12,0-1.67-.06-.87-.07-1.73-.17-2.6-.28-.71-.08-1.41-.24-2.12-.29a16.55,16.55,0,0,1-5.17-.92,3.72,3.72,0,0,0-1.41-.22,16,16,0,0,1-6-1.36c-.13,0-.17-.35-.25-.53.13,0,.28-.13.4-.1.39.08.77.21,1.15.32a9.42,9.42,0,0,0,1.37.42,38.74,38.74,0,0,1,7.45,1.43c3.45-.14,6.73,1.33,10.19,1.07.38,0,.77.23,1.16.25a19.52,19.52,0,0,0,5,.18,17.19,17.19,0,0,1,5,.17,14.3,14.3,0,0,0,3.81,0,18.88,18.88,0,0,1,2.38-.13,13.61,13.61,0,0,0,3.81-.31,4.14,4.14,0,0,1,1.41-.06c2.63,0,5.28.29,7.89.09,4.17-.33,8.21.45,12.31.86a27.8,27.8,0,0,0,6.44.15A20.88,20.88,0,0,0,199.89,47a6.17,6.17,0,0,0,2.86-2.39c.18-.32.59-.51.89-.75Z"/><path class="cls-5" d="M64.18,71.42a3.64,3.64,0,0,1,2.69.32c2.42.8,4.79,1.74,7.23,2.43,2.07.58,4.22.87,6.33,1.3a15.19,15.19,0,0,1,1.61.41,60.29,60.29,0,0,0,8.58,2c.71.12,1.4.29,2.1.46,1.24.29,2.5.46,3.75.67,1.87.32,3.83.13,5.62,1a4.63,4.63,0,0,0,1.4.26c2.85.35,5.7.67,8.54,1,.85.11,1.68.43,2.54.55,2.92.43,5.84.82,8.76,1.2a24.91,24.91,0,0,0,3.1.25,21.47,21.47,0,0,1,5.24.26c.84.2,1.79-.2,2.56.59.2.19.76,0,1.15,0a13.44,13.44,0,0,1,5,.36,14.27,14.27,0,0,1-5.36.61,7.49,7.49,0,0,1-1.33-.46,5.59,5.59,0,0,0-1.36-.36c-1.43-.05-2.87,0-4.3,0a3,3,0,0,1-1,0c-2.67-1-5.59,0-8.24-1.1a39.37,39.37,0,0,1-9.22-1.25c-.7-.15-1.43-.11-2.14-.22s-1.23-.26-1.84-.42c-.31-.07-.6-.24-.91-.28-1.89-.23-3.79-.37-5.66-.66a47.5,47.5,0,0,1-5.15-1.06,17.07,17.07,0,0,0-4.18-.69,18.82,18.82,0,0,1-5.59-1.19,14.47,14.47,0,0,0-3.21-.84A42.76,42.76,0,0,1,71.17,74C68.89,73.21,66.66,72.26,64.18,71.42Z"/><path class="cls-5" d="M81,37.94a15.2,15.2,0,0,1,3.29.35c2.87.58,5.66,1.49,8.61,1.79,5.07.53,10.13,1,15.19,1.51,1,.1,1.9.29,2.84.41.78.1,1.55.46,2.35.08a.69.69,0,0,1,.47,0c2.48,1,5.18.78,7.73,1.41a5.3,5.3,0,0,1,.67.23c.06,0,.13.14.11.18s-.12.28-.21.29a2.06,2.06,0,0,1-.7,0c-5.89-1.05-11.83-1.62-17.77-2.19-1.33-.13-2.65-.51-4-.53-2.24,0-4.43-.37-6.64-.54a8.56,8.56,0,0,1-1.89-.3,27,27,0,0,0-5.13-1,29,29,0,0,1-4.62-1.12c-.13,0-.17-.38-.27-.57Z"/><path class="cls-5" d="M73.45,35.83a19.89,19.89,0,0,1,6.27,1.54c.43.18.85.39,1.28.58l.06-.07c-.29.07-.62.27-.89.21-1.78-.42-3.55-.87-5.3-1.39a5.57,5.57,0,0,1-1.35-.92Z"/><path class="cls-5" d="M137.74,146.68c1.7.16,3.26.28,4.82.48,1.74.21,3.46.6,5.2.72,2.21.14,4.44.14,6.67.09,3.54-.08,7.09-.25,10.63-.38.19.53-.18.53-.47.56a7.13,7.13,0,0,0-1.14.07,15.54,15.54,0,0,1-3.79.38c-2.06,0-4.13.18-6.2.29a4.37,4.37,0,0,1-1.19.06c-3.4-.82-7-.1-10.37-1.26a9.69,9.69,0,0,0-1.89-.18A3,3,0,0,1,137.74,146.68Z"/><path class="cls-5" d="M132.71,146l-11.49-1.49,0-.27a4.61,4.61,0,0,1,1.09-.15c3,.38,6.09.78,9.13,1.2C131.71,145.37,132,145.63,132.71,146Z"/><path class="cls-5" d="M90,137c2.29.7,4.58,1.4,6.86,2.13.1,0,.14.25.21.38l0,0a23.56,23.56,0,0,1-6.7-1.79c-.19-.07-.25-.47-.38-.72Z"/><path class="cls-5" d="M97,139.48c1.65-.4,3.19.19,4.74.59.4.1.7.54,1,.82l.05,0a20.28,20.28,0,0,1-5.79-1.41Z"/><path class="cls-5" d="M90,136.92a5.54,5.54,0,0,1-4.82-1.41l-.05.05c1.37.28,2.76.53,4.12.85.27.06.48.37.72.56Z"/><path class="cls-5" d="M113.88,143a5.19,5.19,0,0,1-5-1.17Z"/><path class="cls-5" d="M102.82,140.89a7.76,7.76,0,0,1,3.71.67,7.82,7.82,0,0,1-3.66-.72Z"/><path class="cls-5" d="M85.18,135.51A4.74,4.74,0,0,1,82.51,134c1.33.38,2.44.16,2.62,1.57Z"/><path class="cls-5" d="M116.5,143.71c.52,0,1,.11,1.55.18a.2.2,0,0,1,.09.18.21.21,0,0,1-.16.14l-1.53-.14Z"/></g></g></svg>