<svg xmlns="http://www.w3.org/2000/svg" viewBox="0 0 698.95 997.37"><defs><style>.cls-1{fill:#a8d1ef;opacity:0.1;}.cls-2{fill:#d8c9a4;}.cls-3{fill:#f6e3bf;}.cls-4{fill:#d33f3d;}.cls-5{fill:#e98b4e;}.cls-6{fill:#8c3c93;}.cls-13,.cls-7{fill:#80bcf0;}.cls-8{fill:#e4df61;}.cls-9{fill:#97c759;}.cls-10{fill:#e5e2dc;}.cls-11{fill:#fff;}.cls-12{fill:#33302a;}.cls-13{opacity:0.5;}.cls-14{fill:#7a6f62;}.cls-15{fill:#bedbed;opacity:0.8;}</style></defs><g id="Calque_2" data-name="Calque 2"><g id="Calque_1-2" data-name="Calque 1"><path class="cls-1" d="M497.36,137.71c-.16,4.55-1.23,9.06-1.91,13.59A13.13,13.13,0,0,0,495,154c.16,2.36-.84,4.36-1.7,6.43a6.57,6.57,0,0,0-.59,2.32c-.08,4.68-1.88,8.95-3.12,13.36-1.45,5.19-3.79,10.13-4.3,15.58a7.74,7.74,0,0,1-.67,2.34c-1.79,4-2,8.33-3.1,12.47a21.06,21.06,0,0,1-2.05,5.5,15.73,15.73,0,0,0-1.49,5.65A67.9,67.9,0,0,1,475,230.17a76,76,0,0,0-1.8,7.58c-1.22,5-2.32,10.12-3.75,15.1-1.12,4-2.74,7.75-4,11.66-.84,2.65-1.36,5.39-2.12,8.06-.94,3.27-2.08,6.48-3,9.76-1.65,6.24-4.34,12.22-4.73,18.8-.1,1.77-.84,3.49-1.13,5.26-.21,1.22-.1,2.49-.22,3.72-.1.93-.34,1.85-.54,2.9-2.32-.49-4.27-.82-5.78-2.56a6.51,6.51,0,0,0-3-1.57c-5.09-1.49-10.2-2.94-15.33-4.3-6-1.58-12-3-17.94-4.57-2.17-.56-4.3-1.27-6.49-1.74-3-.64-6-1-8.93-1.67-5.17-1.09-10.3-2.37-15.48-3.39-3.69-.73-7.44-1.16-11.16-1.73a8.42,8.42,0,0,1-1.32-.3c-5.66-1.75-11.52-2.08-17.36-2.51-7.18-.53-14.34-1.15-21.53-1.56-4.22-.24-8.46-.14-12.69-.22-1.51,0-3-.08-4.52-.17-4.84-.29-9.68-.63-14.52-.88-2.32-.12-4.66.05-7-.15-2.79-.24-3.08-.59-3-3.37.08-2.22.43-4.44.66-6.66a1.21,1.21,0,0,0,0-.53c-1.21-3.33.79-6.46.58-9.77s.42-6.51.17-9.73c-.47-6,.92-11.78,1.41-17.67.35-4.2.32-8.43.57-12.65.41-7.08.94-14.17,1.34-21.25.13-2.33,0-4.67,0-7,0-4.14-.22-8.29,0-12.42.44-8.17,1-16.35,1.75-24.5.5-5.08,1.55-10.1,2.37-15.15.61-3.72,1.17-7.45,1.91-11.15,1-4.93,2.1-9.84,3.16-14.77a13,13,0,0,0,.42-2.12c.18-4.15,2.1-7.78,3.42-11.58,1.55-4.49,3.32-8.92,5.14-13.31,1-2.41,2.47-4.62,3.43-7,2.15-5.38,5.83-9.77,9.55-14,2.49-2.82,6-4.83,9.27-6.85,4.2-2.6,8.61-4.87,12.95-7.23a17.63,17.63,0,0,1,3-1.23q7.77-2.61,15.56-5.12a12.4,12.4,0,0,1,2.13-.26c5.28-.73,10.6,0,15.88-.39,3.85-.25,7.67-.79,11.51-1.12a16.85,16.85,0,0,1,3.47.16c3.12.38,6.23.81,9.34,1.25,2,.29,4.06.77,6.11.94,5.82.48,11.67.69,17.48,1.33a29.08,29.08,0,0,1,7.21,2.08c4.44,1.75,8.92,3.49,13.17,5.65,3.89,2,8,3.7,10.94,7.24a3.41,3.41,0,0,0,1.31.93c4.23,1.74,7.13,5.09,10.05,8.38,1.49,1.68,2.92,3.42,4.24,5.22,1.7,2.31,3.06,4.87,4.92,7a56.34,56.34,0,0,1,7.51,11.13,8.82,8.82,0,0,1,.51,1q3.13,8.88,6.27,17.77a5.68,5.68,0,0,1,.36,1.57C497,126.22,497.57,132,497.36,137.71Z"/><path d="M698.6,478.34c-.37-2.87-2.44-4.79-4.31-6.69-1.23-1.24-2-2.16-1.58-4.14a8.42,8.42,0,0,0-2.08-7c-.84-1.05-1.58-2.19-2.38-3.27-3-4-5.52-8.32-8.94-11.83-5.65-5.81-11.85-11.07-17.82-16.57-1.32-1.22-2.51-2.6-3.93-3.67a118.63,118.63,0,0,1-12.68-10.79c-1-1-1.83-2.3-3-3-6.86-3.86-12.31-9.68-19.14-13.56-2-2.56-5-3.86-7.7-5.36s-3.75-3.92-4.13-6.76a20.74,20.74,0,0,0-4.1-10.13c-1.37-1.79-2.86-3.48-4.33-5.19s-2.92-3.41-5.09-4.29a39.94,39.94,0,0,1-5.13-2.27c-4.62-2.71-9.7-2.31-14.71-2.37a6.29,6.29,0,0,0-2.49,1c-.64.32-1.2.81-1.83,1.16-1.76,1-3,.7-4.67-.53a32.81,32.81,0,0,0-5.34-3.48c-4.13-1.95-8.55-3.21-12.44-5.72-3.09-2-6.88-2.41-10.07-4.46-3.51-2.25-7.5-3.74-11.28-5.56a155.9,155.9,0,0,0-15.61-6.69c-5.51-1.95-10.82-4.49-16.25-6.69s-10.73-4.1-16-6.33c-3.21-1.36-6.76-1.94-9.61-4.07a55,55,0,0,1-5.08-4.3,5.08,5.08,0,0,0-3.54-1.64c-2-.08-4-.45-6.2-.72.37-1.77.67-3.36,1-4.93.31-1.4.77-2.77,1-4.18a127.66,127.66,0,0,1,3.44-15.36c1.28-4.39,2.6-8.77,3.9-13.15a7.08,7.08,0,0,0,.16-.8c1-5.6,3-10.88,4.83-16.23,1.25-3.74,3.37-7.19,3.5-11.3a18.52,18.52,0,0,1,.71-3.95q2.68-10.47,5.46-20.9c.84-3.13,1.9-6.21,2.7-9.35,1.13-4.43,1.8-9,3.24-13.34,2.19-6.59,4.68-13.07,5.33-20.06a9.36,9.36,0,0,1,.49-1.83q1.58-5.16,3.17-10.32a36.13,36.13,0,0,0,1.1-3.59c.63-3.08.63-6.39,1.82-9.22,2.53-6,2-12.54,3.86-18.61a2.72,2.72,0,0,0,.05-.81c-.1-3.76-.17-7.52-.32-11.28a44.77,44.77,0,0,0-.54-5.9c-.53-2.89-1.18-5.77-1.95-8.6s-1.83-5.83-2.73-8.76a20.24,20.24,0,0,0-.89-3.34,63.12,63.12,0,0,0-4.1-7.27,80.65,80.65,0,0,0-5.53-7c-2.44-2.86-4.06-6.34-7.17-8.71-2.85-2.17-5.2-5-8.12-7.08A76.27,76.27,0,0,0,458.45,60a66.17,66.17,0,0,1-6.6-3.62c-.84-.49-1.5-1.3-2.35-1.73-1.92-.93-3.9-1.74-5.87-2.56-3.48-1.45-7-2.83-10.46-4.32-2.05-.88-4.3-1.59-6-2.95-3.74-3-5.28-7.56-7.54-11.6a8,8,0,0,1-.5-2c1-.27,1.87-.51,2.72-.7a32,32,0,0,0,4.18-.91c5.32-1.93,5.09-5.72,2-8.55-.07-.06-.16-.1-.22-.16a15.82,15.82,0,0,0-6.5-3.76c-.85-.31-1.91-.6-1.73-1.74.24-1.52,0-3.29,1.82-4.22A12.1,12.1,0,0,0,424,9.34c.57-.52,1.35-1.22,1.37-1.87.18-4.8-3.29-8.39-8.28-7.26a3.78,3.78,0,0,0-2.76,5,18.89,18.89,0,0,0,1.62,3c.37.68,1,1.41,1,2.08a30.82,30.82,0,0,1-.82,4.22A1.85,1.85,0,0,1,414,16.2a15.17,15.17,0,0,0-3.76.28c-2.18.56-4.92.46-5.58,3.43-.48,2.15,1.29,5,3.8,6.35.39.22.85.32,1.25.51a17.48,17.48,0,0,1,1.66.89c1.48.94,1.61,1.51.9,3.11a19.1,19.1,0,0,1-14,11.28c-4.18.9-8.56.88-12.85,1.24-1.88.16-3.76.23-5.64.35a6,6,0,0,1-1.86.15,9.73,9.73,0,0,0-5.05.37c-1.66.39-3.38.52-5.06.86-4.15.84-8.33,1.56-12.41,2.65A91.59,91.59,0,0,0,346,51c-4.43,1.7-8.95,3.24-13.18,5.35-4.77,2.38-8.71,6-12.42,9.82a68.93,68.93,0,0,0-5,6.07,42.62,42.62,0,0,0-4.08,5.63c-1.79,3.28-2.94,6.94-4.92,10.08-1.84,2.9-2.1,6.28-3.64,9.23a14.66,14.66,0,0,0-1.28,3.78c-1.25,6.08-2.42,12.17-3.62,18.26-.45,2.29-.85,4.58-1.36,6.85-.73,3.24-1.53,6.47-2.31,9.7-.39,1.65-.85,3.29-1.19,5a53.51,53.51,0,0,0-.9,5.31c-.18,1.83,0,3.69-.21,5.51-.2,2.05-.71,4.07-.88,6.11-.38,4.49-.62,9-.93,13.47-.07,1.08-.27,2.15-.32,3.22-.22,4.57-.31,9.14-.61,13.69-.32,4.92-1,9.83-1.2,14.75-.28,5.55-.1,11.12-.41,16.67-.36,6.36.41,12.78-.85,19.1a9.53,9.53,0,0,0-.35,2.92,26.58,26.58,0,0,1-.64,8.8,41.7,41.7,0,0,0-.92,13.69,50.73,50.73,0,0,1,.24,8.36c-.2,4.07-.68,8.13-1.06,12.4-.25,0-.77.06-1.29.08-3.66.18-7.33.29-11,.57-2.15.16-4.29.56-6.42.9s-4.54.42-6.58,1.22c-4.14,1.6-8.46,1.7-12.74,2.11-4.67.44-9.35.67-14,1.09-2.77.25-5.51.72-8.28,1s-5.37.45-8,.81c-4.64.63-9.32,1.14-13.89,2.11-7.39,1.56-14.9,2.71-21.92,5.7a11.57,11.57,0,0,1-2.35.6c-2.68.57-5.58,0-8.07,1.57-.14.09-.36,0-.53.08l-11,2.85c-1.13.3-2.23.72-3.37.94-5.3,1-10.58,2.07-15.42,4.61-1,.54-1.91.55-2.56-.51-1.29-2.09-3.34-3.19-5.41-4.3a10,10,0,0,1-2.69-1.68,3.6,3.6,0,0,0-3.64-1.08c-1.84.34-3.73.47-5.56.88-2.26.49-4.65.58-6.71,1.89-2.33,1.49-4.89,2.6-6.85,4.68a16.9,16.9,0,0,1-3.57,2.84,21.6,21.6,0,0,0-8,8.18c-1.28,2.28-2.39,4.55-2.07,7.13.24,2-.62,3.19-2,4.35A89.29,89.29,0,0,1,72.5,344.79c-4.23,2.18-8.23,4.81-12.36,7.2-2.49,1.45-4.93,3-7.53,4.19s-4.94,2.5-6.19,5.22a2.81,2.81,0,0,1-.91,1c-3,2.27-6,4.57-9.13,6.75-2.79,2-5.76,3.66-8.5,5.68s-5.6,4.49-8.32,6.83a27.13,27.13,0,0,0-2.51,2.83c-2.48,2.84-4.92,5.7-5,9.62-2.18.95-4.2,1.92-6.29,2.71a7.82,7.82,0,0,0-4.07,3.62,14.67,14.67,0,0,0-.42,13c.78,1.91,1.87,3.7,2.78,5.55,1.28,2.59,2.51,5.16,4.68,7.2,1.57,1.47,3.18,2.61,5.45,2.49,1.42-.07,2.84,0,4.06,0,.86,2,1.41,4,2.54,5.65,2.14,3.09,4.58,6,7,8.9a24.41,24.41,0,0,0,4.1,4.21c3.78,2.76,6.85,6.3,10.43,9.28,2.35,2,4.08,4.94,7.74,4.88.37,0,.75.46,1.14.68,3.38,1.87,6.72,3.83,10.16,5.59,6.65,3.39,13.36,6.67,20,10,.16.08.31.2.46.29,3.81,2,7.55,4.22,11.46,6.05,4.22,2,8.61,3.56,12.9,5.4,3.94,1.7,7.83,3.53,11.76,5.28,2.72,1.21,5.45,2.38,8.19,3.56,3.87,1.66,7.76,3.29,11.62,5,3.44,1.5,6.86,3.06,10.28,4.59,2.68,1.2,5.37,2.39,8,3.63.53.25,1.21.68,1.34,1.15.58,2.23,2.44,2.38,4.17,2.84a29.87,29.87,0,0,1,3.6,1.09c1.64.66,3.2,1.55,4.85,2.18,1.92.73,4,1.16,5.87,2,3.22,1.32,6.37,2.83,9.56,4.25a17,17,0,0,0,2,.75c.92.26,1.88.4,2.8.69,2.8.91,5.59,1.86,8.38,2.81q6.12,2.08,12.22,4.22c3.06,1.07,6,2.39,9.16,3.24,4.73,1.29,9.56,2.24,14.34,3.39,1.3.31,2.56,1.19,3.84,1.18,4.17,0,7.93,1.36,11.72,2.79a43.56,43.56,0,0,0,6.36,2.21c3.75.77,7.15,2.36,10.68,3.68a94.2,94.2,0,0,0,10.38,2.86c1.92.48,4,.47,5.8,1.18,5,1.95,10.28,2.47,15.43,3.61s10.19,1.95,15.31,2.79c7,1.14,14,2.29,21.08,3.21,5.51.71,11.09.47,16.63,1.51,5.24,1,10.68,1,16,1.17,5.09.18,10.19.11,15.28.07,2.4,0,4.83.28,7.15.19a106.79,106.79,0,0,1,15.07.65,98.27,98.27,0,0,0,13.94,0c5.25-.24,10.49-.7,15.73-1.21,2.58-.25,5.13-1.05,7.71-1.18,8.71-.44,17.42-.7,26.13-1,5.22-.19,10.45-.33,15.67-.57,2.31-.1,4.61-.38,6.92-.61,2-.21,4-.52,6.09-.69,4.28-.37,8.58-.55,12.84-1.06,4.55-.55,9.05-1.48,13.59-2.09,1.83-.25,3.76.12,5.58-.19,7.51-1.29,15-2.72,22.49-4.12,3.68-.69,7.51-.65,11-2.4a3.36,3.36,0,0,1,1.32-.18,89.44,89.44,0,0,0,15.81-1.78c3.23-.74,6.64-.82,9.79-1.78,3.48-1.07,7.28-1.07,10.5-3,2.84.84,4.75-1.93,7.54-1.87,1.9,0,3.82-1.18,5.74-1.8,5.1-1.66,10.22-3.29,15.32-5a20.31,20.31,0,0,1,2.76-1.06,64,64,0,0,0,11.32-3.45c6.79-2.48,12.91-6.17,19.08-9.8,4.31-2.52,8.63-5,12.82-7.43l1,.43c2.59,1.18,6,.88,7.54-.92a47.38,47.38,0,0,0,4.69-6.27c2-3.33,3.62-6.84,5.46-10.25.89-1.66,1.91-3.26,2.84-4.9a14.57,14.57,0,0,0,1.67-3.29,29.9,29.9,0,0,0,.92-5.87A31.24,31.24,0,0,0,698.6,478.34ZM575.35,367.48a7.61,7.61,0,0,1,7.33-1.11,38,38,0,0,0,8.13,1.71c3.15.23,5.38,2,7.53,3.82a35.52,35.52,0,0,1,5.79,6,20.76,20.76,0,0,1,4.11,12.88,5.64,5.64,0,0,1-1.9,3.4,9.53,9.53,0,0,1-8.92,2.58c-6.29-1.3-11.19-4.68-15.28-9.46a7.54,7.54,0,0,0-1.56-1.48,16.82,16.82,0,0,1-6.14-8,72.29,72.29,0,0,1-2.38-7.83C573.36,369,574.36,368.25,575.35,367.48Zm-75.28-30.17c1.77.6,3.53,1.26,5.28,1.91.25.09.59.14.71.33,1.31,2,3.54,1.87,5.45,2.58,4.79,1.79,9.53,3.72,14.23,5.74,4.24,1.81,8.19,4.2,12.63,5.66a53.22,53.22,0,0,1,11,5c4.29,2.6,8.92,4.64,13.33,7.06a44.78,44.78,0,0,1,4.64,3.33,42.34,42.34,0,0,0-.33,6.28,26.52,26.52,0,0,0,1.44,5.37c.24.77.73,1.46,1,2.23,1.17,3.64,3.82,6.16,6.35,8.85,5.39,5.74,12.4,7.6,19.8,8.64a7.25,7.25,0,0,1,1.57.26,8.11,8.11,0,0,0,6.32-.33c1.32-.57,2.62-1.18,3.92-1.8a4.17,4.17,0,0,1,4.12,0q4.42,2.54,8.84,5.08c1.09.63,2.2,1.24,3.24,1.94,2.14,1.46,4.24,3,6.36,4.48,3.65,2.6,7.33,5.17,11,7.83,4.83,3.54,9.67,7.07,14.37,10.78,2.45,1.93,4.39,4.53,6.93,6.29,2,1.43,3.25,3.51,5.1,5,1.15.93,2.67,1.4,3.82,2.32,1.81,1.44,3.46,3.09,5.19,4.66l-.82,1.21c.09.12.16.31.28.36,2.49,1.18,3.71,3.53,5.29,5.59,1.94,2.5,3.3,5.43,5.77,7.57.77.66,1,1.94,1.48,2.94l-.44.51a14.9,14.9,0,0,1-2.4-.65c-2.13-.95-4.13-2.3-6.35-2.92-2.54-.72-4.68-2.13-7.05-3.12-5.39-2.27-10.8-4.49-16.19-6.73-.92-.38-1.8-.83-2.72-1.22-3.64-1.54-7.33-3-10.93-4.62-4.42-2-8.76-4.14-13.16-6.17-1-.49-2.18-.8-3.27-1.22l-7.29-2.85c-4.6-1.79-9.18-3.66-13.83-5.33-10-3.59-20-7.08-30-10.58-5.09-1.79-10.18-3.59-15.31-5.26-3.66-1.2-7.4-2.17-11.08-3.31a31.6,31.6,0,0,1-3.33-1.47c2.24-7,.51-13.22-3.29-19.06-1.71-2.63-3.23-5.39-4.77-8.13a123.74,123.74,0,0,0-10-14.39c-2.39-3.11-4.85-6.19-7.44-9.13-2.19-2.49-4.58-4.8-7-7.11-2.83-2.75-5.85-5.33-8.62-8.14-1.85-1.88-3.4-4.06-5.23-6.28A5,5,0,0,1,500.07,337.31Zm69.76,117.16a3.13,3.13,0,0,1,.24-1.3c1.58-3.18,1.77-6.7,2.59-10.06.54-2.19,1.16-4.29,1.5-6.57.43-2.94,1.85-5.72,2.77-8.35,4.35.16,7.67,2.22,11.19,3.78,2.12.93,4.35,1.66,6.56,2.38,4.43,1.43,8.9,2.75,13.32,4.2a50.12,50.12,0,0,1,11,4.57c2,1.2,4.33,1.71,6.49,2.59,3.91,1.58,7.83,3.13,11.69,4.83,3.37,1.48,6.66,3.16,10,4.76a6.9,6.9,0,0,1,.9.76c-.78,2.42-1.5,5-2.43,7.47-.75,2-1.82,3.92-2.61,5.93-.73,1.84-1.24,3.76-1.89,5.62-.75,2.13-1.51,4.24-2.33,6.33a2.12,2.12,0,0,1-2.91,1.22l-13.16-4c-.94-.29-1.88-.53-2.82-.83-8.6-2.71-17.22-5.37-25.79-8.17-4.42-1.45-8.74-3.22-13.16-4.72-3.73-1.27-7.53-2.35-11.15-3.47C569.82,458.78,569.81,456.62,569.83,454.47Zm-4.18-6.36c-.91,3.83-2.12,7.59-3.28,11.67-3.31-.88-6.33-1.72-9.38-2.48-3.92-1-7.85-2-11.81-2.78-6.78-1.4-13.63-2.54-20.39-4a90.17,90.17,0,0,1-10.68-2.57c-3.21-1.12-6.64-1.62-10-2.42s-6.82-1.64-10.22-2.51c-2.35-.6-4.67-1.32-7-1.91-1.67-.42-1.91-.62-1.68-2.39.5-3.82.89-7.66,1.62-11.44.69-3.62,1.77-7.15,2.62-10.74.47-2,.82-4.05,1.22-6.08a8.25,8.25,0,0,1,.27-1.59c1.37-3.38.59-4.29,5.35-3.53,6.73,1.07,13.34,2.72,20.05,3.85,4.66.78,9.21,2.21,13.83,3.27,1.28.3,2.64.23,3.95.44,2.11.33,4.21.7,6.3,1.14a26.82,26.82,0,0,0,3.35,1c5,.34,9.31,2.59,13.87,4.18a8.05,8.05,0,0,0,1.54.48c5,.51,9.17,3.63,14.08,4.39,1.27.19,1.53,1.11,1.28,2.24C568.94,433.55,567.38,440.85,565.65,448.11Zm-108-127.93c3.43.09,6.37,1.11,8.36,4.12a42.33,42.33,0,0,1,5.34,9.91,2.7,2.7,0,0,0,.58,1.2c2.49,2.08,1.91,4.78,1.92,7.54,0,3.56-2,5.19-4.52,7.15-5.74,4.41-11.46,3.16-17.37.9-1.51-.57-2.94-1.35-4.43-2-4.34-1.88-8-4.52-10-9-.38-.81-1.09-1.48-1.41-2.3a14.28,14.28,0,0,1-.52-2.8c0-.07.09-.17.08-.25-1-5.82,3-8.57,7.24-10.54,4-1.89,8.27-3.59,12.87-3.82C456.37,320.29,457,320.23,457.61,320.18ZM418.88,20.94c2.07.41,3.58.65,5,1a4.57,4.57,0,0,1,1.85,1c1.34,1.21,1.23,2.49-.49,3.06a21.68,21.68,0,0,1-5.51.84c-.39,0-1.16-.95-1.19-1.49A34,34,0,0,1,418.88,20.94Zm-9.81,1.6a2.33,2.33,0,0,1-.58-1.89c0-.3.94-.56,1.48-.72a18.06,18.06,0,0,1,2.59-.62c1.59-.24,2.13.26,2,1.87-.1,1.13-.33,2.26-.61,4.12C411.94,24.19,410.42,23.48,409.07,22.54ZM287.69,282.32c.08-2.22.43-4.44.66-6.66a1.21,1.21,0,0,0,0-.53c-1.21-3.33.79-6.46.58-9.77s.42-6.51.17-9.73c-.47-6,.92-11.78,1.41-17.67.35-4.2.32-8.43.57-12.65.41-7.08.94-14.17,1.34-21.25.13-2.33,0-4.67,0-7,0-4.14-.22-8.29,0-12.42.44-8.17,1-16.35,1.75-24.5.5-5.08,1.55-10.1,2.37-15.15.61-3.72,1.17-7.45,1.91-11.15,1-4.93,2.1-9.84,3.16-14.77a13,13,0,0,0,.42-2.12c.18-4.15,2.1-7.78,3.42-11.58,1.55-4.49,3.32-8.92,5.14-13.31,1-2.41,2.47-4.62,3.43-7,2.15-5.38,5.83-9.77,9.55-14,2.49-2.82,6-4.83,9.27-6.85,4.2-2.6,8.61-4.87,12.95-7.23a17.63,17.63,0,0,1,3-1.23q7.77-2.61,15.56-5.12a12.4,12.4,0,0,1,2.13-.26c5.28-.73,10.6,0,15.88-.39,3.85-.25,7.67-.79,11.51-1.12a16.85,16.85,0,0,1,3.47.16c3.12.38,6.23.81,9.34,1.25,2,.29,4.06.77,6.11.94,5.82.48,11.67.69,17.48,1.33a29.08,29.08,0,0,1,7.21,2.08c4.44,1.75,8.92,3.49,13.17,5.65,3.89,2,8,3.7,10.94,7.24a3.41,3.41,0,0,0,1.31.93c4.23,1.74,7.13,5.09,10.05,8.38,1.49,1.68,2.92,3.42,4.24,5.22,1.7,2.31,3.06,4.87,4.92,7a56.34,56.34,0,0,1,7.51,11.13,8.82,8.82,0,0,1,.51,1q3.13,8.88,6.27,17.77a5.68,5.68,0,0,1,.36,1.57c.24,5.75.78,11.51.57,17.24-.16,4.55-1.23,9.06-1.91,13.59A13.13,13.13,0,0,0,495,154c.16,2.36-.84,4.36-1.7,6.43a6.57,6.57,0,0,0-.59,2.32c-.08,4.68-1.88,8.95-3.12,13.36-1.45,5.19-3.79,10.13-4.3,15.58a7.74,7.74,0,0,1-.67,2.34c-1.79,4-2,8.33-3.1,12.47a21.06,21.06,0,0,1-2.05,5.5,15.73,15.73,0,0,0-1.49,5.65A67.9,67.9,0,0,1,475,230.17a76,76,0,0,0-1.8,7.58c-1.22,5-2.32,10.12-3.75,15.1-1.12,4-2.74,7.75-4,11.66-.84,2.65-1.36,5.39-2.12,8.06-.94,3.27-2.08,6.48-3,9.76-1.65,6.24-4.34,12.22-4.73,18.8-.1,1.77-.84,3.49-1.13,5.26-.21,1.22-.1,2.49-.22,3.72-.1.93-.34,1.85-.54,2.9-2.32-.49-4.27-.82-5.78-2.56a6.51,6.51,0,0,0-3-1.57c-5.09-1.49-10.2-2.94-15.33-4.3-6-1.58-12-3-17.94-4.57-2.17-.56-4.3-1.27-6.49-1.74-3-.64-6-1-8.93-1.67-5.17-1.09-10.3-2.37-15.48-3.39-3.69-.73-7.44-1.16-11.16-1.73a8.42,8.42,0,0,1-1.32-.3c-5.66-1.75-11.52-2.08-17.36-2.51-7.18-.53-14.34-1.15-21.53-1.56-4.22-.24-8.46-.14-12.69-.22-1.51,0-3-.08-4.52-.17-4.84-.29-9.68-.63-14.52-.88-2.32-.12-4.66.05-7-.15C287.88,285.45,287.59,285.1,287.69,282.32Zm20.78,25.45c.93,1.77,2.41,3.74,4.74,4.35a2.56,2.56,0,0,1,1.83,2.14c1.87,7-1.43,12-7.51,14.34a42.19,42.19,0,0,1-13,2.63c-5.27-.51-10.55-.88-15.78-1.61-1.79-.24-3.46-1.38-5.17-2.11a31.22,31.22,0,0,0-4.93-2,2.34,2.34,0,0,1-2.08-2.38c-.26-3.89.29-7.57,2.83-10.71,1.47-1.82,2.91-3.67,5.24-4.51a3.07,3.07,0,0,0,1.38-.83c2.26-2.95,5.79-3.91,8.8-5.65a8.73,8.73,0,0,1,3.63-.8c2.6-.21,5.48-1,7.76-.23C300.7,302,305.82,302.71,308.47,307.77Zm-53.53-13.06a29,29,0,0,1,5.83-1.06c4.18-.61,8.35-1.47,12.62-.72a8,8,0,0,0,1.6-.14c3-.14,6-.31,8.86.64a7.69,7.69,0,0,0,4.2.37c.41-.1.93.21,1.4.78-.84.18-1.69.32-2.5.57a26.35,26.35,0,0,0-11.7,6.9c-1.79,1.87-3.77,3.58-5.72,5.31a17.38,17.38,0,0,0-5.91,15.75c.47,3.9,3.25,6.87,7,8.38a112.58,112.58,0,0,0,12.24,4.21c2,.56,4.25.32,6.39.44s4.32.38,6.47.34a87.83,87.83,0,0,0,8.88-.56,7.85,7.85,0,0,0,4.84-2.21,4.6,4.6,0,0,1,1.75-1.25c2.38-.74,3.81-2.67,5.2-4.41a11.86,11.86,0,0,0,2.18-8.34,25.55,25.55,0,0,1-.35-3.22c.2-2.61-.9-4.71-2.3-6.75-1.88-2.73-4.15-5.19-5.44-8.34a6.49,6.49,0,0,0-3.48-3.22c-2.33-1.08-4.47-2.55-7.18-4.14,1-.27,1.55-.61,1.92-.48a11.56,11.56,0,0,0,7.81.45c1.61-.53,3.52-.19,5.29-.21,5.21-.06,10.41-.17,15.61-.11,1.5,0,3,.69,4.48.85,4.56.48,9.14.79,13.69,1.29s9.17.7,13.53,1.88c2.87.78,5.66.46,8.45.91,3.61.59,7.23,1.11,10.81,1.82s7,1.62,10.52,2.36c6.47,1.36,13,2.58,19.43,4,4.2.92,8.34,2.13,12.52,3.16,2.61.64,5.26,1.12,7.86,1.78,2.23.58,4.43,1.25,6.6,2a60.31,60.31,0,0,1,6.37,2.27c.47.22.94.46,1.56.77-1.12,1.83-3,2.44-4.51,3.39-.91.56-1.79,1.16-2.7,1.72-1.66,1-2.72,2.7-4.66,3.49a4.6,4.6,0,0,0-2.78,4.58,4.65,4.65,0,0,1-.51,1.43l.06-.06c-.09,1.77-.16,3.54-.29,5.3s-.67,3.76-.46,5.58a8.75,8.75,0,0,0,1.91,4,6.29,6.29,0,0,1,1.73,3.17,4.44,4.44,0,0,0,2,2.72,48.52,48.52,0,0,0,14.27,6.25,9.55,9.55,0,0,0,2.92.42c2.58-.26,5.07,1.2,7.69.18,1.49-.58,3.18-.67,4.64-1.3a32.53,32.53,0,0,0,4.11-2.51l1.62.79c.05-.49,0-1,.16-1.26.78-1.1,1.46-2.46,2.54-3.12,2.16-1.31,2-3.51,2.44-5.41.76-3.53.32-7.14.06-10.72-.11-1.51-.41-3-.64-4.68.49-.14,1-.49,1.43-.39,2.36.57,4.66,1.45,7,1.83,4.52.73,7.19,4,10.1,6.92,1.63,1.66,3.3,3.28,4.91,5s3.4,3.72,5.14,5.53c1.42,1.49,3,2.85,4.36,4.37,2.42,2.65,4.77,5.36,7.11,8.07,1.75,2,3.44,4.1,5.15,6.15.52.62,1,1.26,1.51,1.88l8.59,10.53a8.82,8.82,0,0,1,.83,1c2.08,3.48,4.1,7,6.21,10.43,3.53,5.81,2.6,10-2.17,15.84-1.38-.37-2.83-.83-4.31-1.15-4.4-.94-8.86-1.65-13.21-2.77-8.11-2.08-16.15-4.42-24.24-6.56-4.09-1.08-8.23-2-12.35-2.94s-8.05-1.89-12.08-2.8c-1.13-.26-2.29-.4-3.43-.64-2.55-.51-5.1-1.05-7.64-1.58-3.79-.78-7.56-1.61-11.36-2.32s-7.38-1.28-11.08-1.9c-7.71-1.3-15.42-2.65-23.15-3.85-4.36-.67-8.76-1-13.13-1.61-2.4-.33-4.77-.87-7.16-1.24-4.83-.76-9.67-1.44-14.5-2.19-3.44-.54-6.84-1.42-10.29-1.64-4.95-.32-9.66-1.85-14.53-2.45s-10-.84-15-1.33c-1.87-.19-3.7-.69-5.55-1-2.31-.4-4.62-.86-6.95-1.08-4-.4-8.07-.52-12.08-1-5.57-.62-11.09-1.59-16.67-2.13-3.83-.37-7.71-.22-11.56-.39-2-.1-4.06-.39-6.09-.59-.17,0-.36-.16-.5-.11-2.9.95-5.65-.26-8.46-.58a15.66,15.66,0,0,0-2.16-.13c-2.22.08-4.44.49-6.63-.46a4.21,4.21,0,0,0-2.14,0,28.05,28.05,0,0,1-8.95-.53c-1.6-.26-3.32.29-5,.45-3.61.33-7.19.64-10.78-.36a12.5,12.5,0,0,0-3.71,0c-.54,0-1.16.32-1.58.14-3.4-1.53-6.84-.24-10.25-.34-2.9-.08-5.87.7-8.7-.57a1.51,1.51,0,0,0-1.06-.1c-3.48,1.34-7-.09-10.62.45-4,.59-8.1.22-12.16.28-3.54.06-7.08.06-10.61.26-1.38.07-1.93-.49-1.88-1.63a47.68,47.68,0,0,1,.53-5.06,16.65,16.65,0,0,1,3.21-7.87c1.24-1.63,2.45-3.28,3.73-4.88.81-1,1.7-2,2.61-2.92a7.7,7.7,0,0,1,1.31-.84c1.35-.88,2.69-1.78,4-2.65a25,25,0,0,0,6-5.39,8.68,8.68,0,0,1,2.64-1.86,33,33,0,0,0,7.26-5.52,53.71,53.71,0,0,1,5.08-4c3.26-2.46,6.61-4.82,9.82-7.35a64.55,64.55,0,0,1,13-8.46c1.14-.52,2.14-1.7,3.27-1.8,2.42-.22,3.71-2.14,5.61-3C246.63,298,250.76,296.27,254.94,294.71ZM481.1,403.39c-.81,4.56-1.59,8.8-2.31,13.05-.7,4.08-1.2,8.19-2.05,12.24-.66,3.12-1.72,6.17-2.67,9.48-3.08-.51-6-.92-8.85-1.47q-6.48-1.23-12.93-2.64c-1.22-.27-2.35-.95-3.57-1.25-2.43-.6-4.9-1.08-7.36-1.59-.53-.11-1.08-.09-1.61-.2-5.88-1.26-11.74-2.59-17.63-3.79-4-.8-8-1.38-11.94-2.13-1.49-.27-2.94-.77-4.42-1.07-7.41-1.52-14.83-3-22.24-4.49l-14-2.83c-.62-.13-1.23-.27-1.86-.35-2.36-.3-2.6-.73-2.29-3.14.45-3.56.67-7.16,1.17-10.72a28.2,28.2,0,0,1,1.52-6.8c1.44-3.49,1.51-7.19,2.18-10.79.42-2.25.5-2.43,2.86-2.26a166.74,166.74,0,0,1,22.33,3.62c4.58,1,9.19,1.73,13.8,2.48,3.54.58,7.11,1,10.65,1.53,1.4.23,2.74.82,4.14,1.06,3.17.54,6.31,1.2,9.6.74,1-.15,2.17.71,3.29.94,3.23.67,6.49,1.18,9.71,1.89,5.62,1.23,11.17,2.88,16.84,3.79a139,139,0,0,1,15.16,3.68A22.33,22.33,0,0,1,481.1,403.39Zm-125.21,5.84a28,28,0,0,1-.78,5.16c-1.68-.22-3-.46-4.32-.56-7-.53-13.77-2.46-20.66-3.71-2.65-.48-5.36-.7-8-1.09-3.64-.53-7.28-1-10.91-1.68-3.45-.61-6.87-1.38-10.31-2-4.59-.87-9.18-1.76-13.79-2.55-6.74-1.16-13.46-2.56-20.25-3.27-4.74-.49-9.31-1.81-14-2.28-1-.1-2,.1-3,0-1.21-.09-2.4-.32-3.75-.52,1.36-8.78,2.65-17.18,4-25.79a8.46,8.46,0,0,1,2.2-.48c6.47.38,12.94.77,19.39,1.27,6.25.49,12.48,1.46,18.72,1.56,3.54.05,6.93,1.1,10.58.65s7.18.24,10.78.52c7.19.55,14.39,1,21.55,1.8,6.07.67,12.1,1.72,18.14,2.63,1.95.29,3.89.67,5.83,1,1.71.32,2.31,1,2.36,2.75a67.12,67.12,0,0,1-1.43,13.92c-.31,1.75-.89,3.45-1.3,5.18A27.19,27.19,0,0,0,355.89,409.23ZM243.64,370c-1.58,8.8-3.12,17.41-4.71,26.27a13.45,13.45,0,0,1-2.25.2c-5.66-.41-11.31-.79-17-1.31-3.49-.32-7-.85-10.44-1.28-.8-.1-1.61-.18-2.42-.23-2.41-.15-4.82-.28-7.23-.41-6.21-.34-12.41-.76-18.62-1a121.23,121.23,0,0,0-13.48,0,47.66,47.66,0,0,1-9.19.3c-.56-3.83-1.66-7.48-.31-11.34a23.91,23.91,0,0,0,1.13-6.52,2,2,0,0,1,2.2-2.18c2.15-.07,4.31.13,6.47.2a12.42,12.42,0,0,0,3.75,0c3-.86,6.06-.81,9.12-1,1.59-.09,3.15.06,4.73-.74.91-.47,2.29-.16,3.43,0,2.55.29,2.68.31,4.76-1,2,1.51,4.28,1.33,6.78.95,4.35-.65,8.85-.41,13.13-1.31,3.6-.76,7.11-.27,10.65-.48a103.19,103.19,0,0,1,10.55.1C237.59,369.33,240.43,369.68,243.64,370ZM95.5,327.61a23.3,23.3,0,0,1,4.06-5.31c3.94-3.53,7.82-7.21,12.61-9.62q4.55-2.28,9.25-4.23a14.52,14.52,0,0,1,3.69-.69c6.3-.81,10.21,4.24,10.83,9.53.12,1-.95,2.21-1.72,3.12a24.49,24.49,0,0,1-3.46,3.29c-3.82,3.08-7.29,6.66-12,8.42-1.26.47-2.48,1-3.7,1.61-3.59,1.68-7.46,1.81-11.29,2.2-1.45.14-3.07-.81-4.34.67-.16.17-1-.11-1.46-.38C96.09,335,94.4,329.44,95.5,327.61ZM20.9,388.48c1.5-1.6,2.92-3.27,4.51-4.78,2.46-2.33,5-4.54,7.53-6.82a3.32,3.32,0,0,0,.94-1.3A5.37,5.37,0,0,1,36.4,373c2.89-2,5.65-4.14,8.53-6.14s5.65-3.73,8.48-5.59c5-3.28,10-6.62,15-9.84,1.74-1.1,3.68-1.89,5.48-2.9,2.66-1.51,5.39-3,7.9-4.69a35.47,35.47,0,0,1,11.33-4.87,5.3,5.3,0,0,1,2.36.15c3,.62,6,1.43,9.25.85a67.47,67.47,0,0,1,7.93-.65c4.56-.26,8.43-2.32,12.16-4.69a42.28,42.28,0,0,0,9.28-8.17,9.1,9.1,0,0,1,1.59-1.45,6.72,6.72,0,0,0,3.33-5.83,2,2,0,0,1,1.42-2c5-2.09,9.67-4.83,15-6.14,3.57-.88,7.15-1.68,10.73-2.52,2.78-.65,5.55-1.34,8.33-1.95,5.17-1.14,10.34-2.31,15.54-3.32,5.38-1.05,10.77-2.1,16.19-2.86,6.68-.93,13.43-1.37,20.08-2.41a87,87,0,0,1,10.18-.57,1.85,1.85,0,0,1,1.42.66c-1.4.84-2.83,1.63-4.2,2.52-5.06,3.29-10.21,6.45-15.1,10-6.13,4.42-12,9.13-18,13.76-2.09,1.62-4.07,3.39-6.14,5-3,2.41-6.07,4.78-9.1,7.17-.85.67-1.68,1.36-2.48,2.09-2,1.89-3.86,4.15-6.16,5.63-5.85,3.74-7.79,10.05-10.86,15.63-.52.95-.37,2.28-.54,3.48-.06.07-.18.31-.3.31-2.83.07-5.39,1.58-8.32,1.29-1.46-.14-3,.48-4.5.67a18.48,18.48,0,0,0-3.36.23,27.37,27.37,0,0,1-12.61,1,4.37,4.37,0,0,0-1.34.11c-4.79.76-9.55,2-14.36,2.17-4.43.14-8.58,1.44-12.89,2C100,372,92.51,373.4,85,374.63c-3.81.61-7.61,1.22-11.4,1.91-3.62.67-7.22,1.44-10.82,2.16-2.38.48-4.75.94-7.11,1.48-1.14.25-2.22.71-3.34,1-4,1-8.09,1.76-12,3.09s-8.09,1.48-11.66,3.82c-1.37.89-3.21,1.12-4.87,1.49a6.39,6.39,0,0,1-2.06-.19l-1.48,2.09A2.24,2.24,0,0,1,20.9,388.48Zm133.59-13.54c-.44,3.57-1.05,7.12-1.51,10.69-.29,2.22-.46,4.45-.7,6.88a21.62,21.62,0,0,1-8.07,1.24c-7,.13-14,.44-21,.7-2.15.08-4.3.23-6.45.35-.54,0-1.09,0-1.62.05q-6.14.84-12.25,1.71-5.47.76-10.93,1.56c-1.47.22-2.93.48-4.35.72-.87-2.84-.61-16.28.3-18.79a3.51,3.51,0,0,1,1.19-.35c3.32.19,6.26-1.55,9.42-1.92,2.68-.31,5-1.65,7.64-2s5.14-.82,7.73-1.13c2.4-.28,4.82-.37,7.23-.63,3-.33,6-.76,9-1.14.18,0,.39-.18.52-.12,3.05,1.32,6.23,0,9.34.41,1.55.21,3.19-.31,4.79-.4,2.59-.16,5.19-.31,7.78-.33C154.28,372.46,154.72,373,154.49,374.94Zm-75.14,5.63v19.55c-2.07.59-3.87,1.17-5.7,1.6-3.67.84-7.35,1.66-11,2.38a145.6,145.6,0,0,0-25.71,7.5,4.26,4.26,0,0,1-.88.06c-2.05-2.88-1.14-6.32-1.88-9.4A83.28,83.28,0,0,1,33,392.84a31,31,0,0,1,7.53-2.93c3.49-.75,6.86-2.06,10.31-3,4.74-1.29,9.5-2.55,14.29-3.68,4-.94,8.09-1.68,12.15-2.48A20.25,20.25,0,0,1,79.35,380.57ZM16.06,420.46a2.49,2.49,0,0,0-1.35,2.8h0l0,.05,1.79,1.21-1,1.09c-1.21-.61-1.09-1.43-.78-2.3h0v0c-2,0-3-1.34-3.79-2.86-1.17-2.11-2.32-4.24-3.52-6.33-1.63-2.84-1.38-5.86-.84-8.9.3-1.67,1.54-2.56,3-3.19,4.37-1.87,8.72-3.78,13.1-5.62,1.3-.55,2.67-.93,4.16-1.44a34.89,34.89,0,0,1,1.39,3.74c.94,3.93,1.83,7.88,2.63,11.85.63,3.11-.06,4-3.05,4.93-1.87.61-3.64,1.52-5.45,2.3C20.26,418.64,18.15,419.52,16.06,420.46Zm654.27,91.4a61.58,61.58,0,0,1-6.51,4.24c-4.09,2.54-8.23,5-12.31,7.58-1.66,1.05-3.14,2.43-4.88,3.33a43,43,0,0,1-6.66,2.74c-4,1.3-8.08,2.36-12.08,3.64s-7.64,2.71-11.5,3.92c-4.72,1.48-9.45,2.94-14.24,4.13-3.64.91-7.55.92-11,2.16-4.55,1.6-9.5,1-13.91,3.13-1.49.72-3.32.73-5,1-3.79.68-7.58,1.4-11.39,2a86.81,86.81,0,0,1-9.6,1.2c-7.16.28-14.14,1.65-21.14,2.93-.09,0-.18.11-.25.09-2.77-.93-5.1.5-7.6,1.28a25.65,25.65,0,0,1-5.06.61,46.41,46.41,0,0,1-5.37.5c-2.69,0-5.39-.22-8.06-.51a75.68,75.68,0,0,0-13.63.08c-1.79.13-3.6,0-5.41,0a11.89,11.89,0,0,0-2.68.17,96.24,96.24,0,0,1-21.31,2.67c-4.55.09-9.11.2-13.65.46-1.78.1-3.54.9-5.31.93-7.55.16-15.08,1.14-22.64.39a17.54,17.54,0,0,0-1.87.21,27.34,27.34,0,0,1-4.25-.1c-1.58-.24-2.84-.65-4.51.46-1.31.87-3.48.5-5.27.54-1.35,0-2.7-.28-4.05-.28-1.6,0-3.19.19-4.79.25s-3.42.17-5.12.14c-3.69-.08-7.37-.26-11.06-.35-3.24-.08-6.48,0-9.71-.14s-6.43-.32-9.64-.5c-5.93-.34-11.87-.57-17.67-2a6.79,6.79,0,0,0-2.42-.11c-2.4.28-4.6-.48-6.88-1-3.57-.85-7.19-1.53-10.79-2.25-6.69-1.33-13.35-2.84-20.08-3.86-2.37-.36-4.38-1.63-6.78-1.77a43,43,0,0,1-6.81-1.14c-3.67-.83-7.31-1.8-11-2.72-5.31-1.33-10.59-2.78-15.93-4-6.58-1.48-13.05-3.31-19.52-5.21-3.11-.92-6.12-2.32-9.51-2.63-2.51-.23-4.87-1.8-7.37-2.54-3.25-1-6.56-1.77-9.87-2.53-3.69-.85-6.86-3-10.61-3.81-4.09-.9-8-2.59-12-4-4.41-1.58-8.82-3.13-13.16-4.88-4.73-1.9-9.31-4.2-14.09-6a101.75,101.75,0,0,1-9.52-3.69c-2.25-1.11-4.48-2.27-6.78-3.26-1.63-.7-3.37-1.15-5.06-1.73-1.5-.53-3-1.09-4.49-1.64a1.93,1.93,0,0,1-.71-.37c-2.76-2.7-6.47-3.43-9.87-4.79-2.42-1-4.84-1.91-7.24-2.94-3.7-1.58-7.39-3.19-11.06-4.86-2.2-1-4.32-2.18-6.53-3.17-2.86-1.28-5.81-2.36-8.66-3.68-3.82-1.76-7.57-3.7-11.38-5.48-1.29-.6-2.79-.79-4-1.44q-11.64-6-23.18-12.25a53.45,53.45,0,0,1-5.18-3.44,78.17,78.17,0,0,1-13-11.14A81.16,81.16,0,0,1,27.5,433.55a38.43,38.43,0,0,1-4.77-12.87c7.67-2.74,15-5.48,22.48-7.95,1.83-.61,3.65-1.42,5.91-1,1.6.27,3.47-1,5.21-1.59A23.81,23.81,0,0,1,59,409c6.84-1.42,13.68-2.84,20.54-4.13,3.06-.58,6.17-.85,9.26-1.3,4.33-.64,8.64-1.39,13-1.94,1.85-.23,3.75,0,5.61-.11q7.25-.44,14.48-1c2.41-.19,4.81-.53,7.23-.76,1.25-.12,2.51-.16,3.77-.23l18.29-1.06.54,0c4.94.06,9.87.15,14.8.17,1.88,0,3.76-.25,5.64-.24a109.07,109.07,0,0,1,11.43.23c3.75.41,7.57.17,11.35.4,5,.32,10,.82,15,1.25,2.69.24,5.38.49,8.06.77,2.06.22,4.11.51,6.16.75,1.15.14,2.31.27,3.47.37a12.18,12.18,0,0,1,1.35,0c3.17.54,6.34,1.08,9.49,1.71,2.1.41,4.15,1.14,6.35.55a1.61,1.61,0,0,1,1.29.15c1.36,1.2,2.75.7,4.31.52a34.56,34.56,0,0,1,7.26.07c3.4.34,6.76,1,10.15,1.43,2.75.36,5.51.61,8.25,1a33.9,33.9,0,0,1,3.44.72c.52.12,1,.48,1.54.44,4.3-.42,8.26,1.39,12.43,1.89,6.41.77,12.74,2.25,19.1,3.45s13,2.49,19.53,3.75c1,.19,1.91.55,2.88.71,4,.68,8,1.3,12,2a13.19,13.19,0,0,1,2.85.7c4.06,1.67,8.44,1.54,12.65,2.31,4.55.84,9.18.94,13.72,2.08s9.07,1.14,13.55,2c3.49.65,6.87,1.83,10.31,2.76a10.49,10.49,0,0,0,2.33.48c3,.12,6.15-.47,9.06,1a.45.45,0,0,0,.26,0c4.5-.2,8.63,1.46,12.9,2.46,4,.94,8.15,1.48,12.19,2.39,6.75,1.52,13.46,3.2,20.2,4.78,3.39.8,6.8,1.52,10.2,2.26,3.94.86,7.86,1.81,11.81,2.53,3.27.6,6.59.83,9.86,1.41,1.64.29,3.19,1.07,4.81,1.51,2.42.66,4.87,1.18,7.3,1.81.77.2,1.5.61,2.27.81,4.23,1.08,8.48,2.1,12.71,3.18,3.65.93,7.26,2.07,10.94,2.81a92.25,92.25,0,0,1,9.3,2.48c1.52.48,3.16.5,4.72.86,4,.92,8,1.91,12,2.89a15.17,15.17,0,0,0,3.1.87c4.23.09,8.07,1.8,12.11,2.67,5,1.08,9.93,2.51,14.87,3.87,3.72,1,7.38,2.27,11.11,3.28,4.57,1.23,9.17,2.32,13.77,3.47.25.06.59,0,.79.08,4.09,2.44,8.92,2.65,13.22,4.58,3.74,1.68,7.84,2.59,11.76,3.91,1.36.45,2.64,1.11,4,1.65,3.64,1.49,7.27,3,10.94,4.42,3,1.18,6.38,1.76,9,3.52,2.37,1.63,5.53,2,7.3,4.53.23.34.84.77,1.1.68,2.44-.85,3.36,1.22,4.59,2.45,1,1,1.88,1.85,3.31,1.5C674.83,509,672.22,510.32,670.33,511.86ZM674,499.27c-3.35-2-6.48-3.87-9.66-5.68-1.39-.8-2.86-1.44-4.31-2.13a7.69,7.69,0,0,1-1.25-.46c-3.63-2.72-8.19-3-12.17-4.74-1.19-.53-2.32-1.17-3.59-1.82a16.12,16.12,0,0,1,1.34-2.45c1.78-2.16,2.38-4.84,3.22-7.38,1.6-4.84,3-9.75,4.46-14.63a1.67,1.67,0,0,1,2.3-1.24,5.12,5.12,0,0,1,1.52.56c5.26,3.6,11.65,4.55,17.23,7.42,3.33,1.72,7,2.77,10.45,4.27,2.48,1.08,2.67,2,1.55,4.45-1,2.28-2,4.58-2.91,6.92A114.42,114.42,0,0,1,674,499.27Zm19.22-18.2c-.49,3.36-1,6.73-1.66,10.07a14.38,14.38,0,0,1-1.43,3.46c-2.6,5.32-5.24,10.62-7.82,15.95-.53,1.08-.94,2.15-2.62,2.23a8.2,8.2,0,0,1,.44-1.42,2.88,2.88,0,0,0-.16-3.07,24.92,24.92,0,0,1-2.11-3.41,18.34,18.34,0,0,1-.66-3.85c1.56-2.76,3.27-5.7,4.9-8.68.6-1.09,1-2.28,1.53-3.42.92-2,1.89-4,2.77-6.06.58-1.33,1-2.76,1.58-4.08a32.36,32.36,0,0,1,1.84-3C693.08,477.17,693.66,478.07,693.23,481.07Z"/><path class="cls-2" d="M22.73,420.68c7.67-2.74,15-5.48,22.48-7.95,1.83-.61,3.65-1.42,5.91-1,1.6.27,3.47-1,5.21-1.59A23.81,23.81,0,0,1,59,409c6.84-1.42,13.68-2.84,20.54-4.13,3.06-.58,6.17-.85,9.26-1.3,4.33-.64,8.64-1.39,13-1.94,1.85-.24,3.75,0,5.61-.11q7.25-.44,14.48-1c2.41-.19,4.81-.53,7.22-.76,1.26-.12,2.52-.16,3.78-.23l18.29-1.06.54,0c4.93.06,9.87.15,14.8.17,1.88,0,3.76-.25,5.64-.24a109.07,109.07,0,0,1,11.43.23c3.75.41,7.57.16,11.35.4,5,.32,10,.82,15,1.25,2.69.24,5.38.49,8.06.77,2.06.22,4.1.51,6.16.75,1.15.14,2.31.26,3.47.36.45,0,.91-.08,1.35,0,3.17.54,6.34,1.08,9.49,1.71,2.1.41,4.15,1.14,6.35.55a1.61,1.61,0,0,1,1.29.15c1.36,1.2,2.75.7,4.31.52a34.56,34.56,0,0,1,7.26.07c3.4.33,6.76,1,10.15,1.43,2.75.36,5.51.61,8.25,1a33.9,33.9,0,0,1,3.44.72c.52.12,1,.48,1.54.43,4.3-.41,8.26,1.4,12.43,1.9,6.41.77,12.74,2.25,19.1,3.45s13,2.49,19.53,3.75c1,.19,1.91.54,2.88.71,4,.68,8,1.3,12,2a13.19,13.19,0,0,1,2.85.7c4.06,1.67,8.44,1.54,12.65,2.31,4.55.84,9.18.94,13.72,2.08s9.07,1.14,13.55,2c3.49.65,6.87,1.83,10.31,2.76a10.49,10.49,0,0,0,2.33.48c3,.12,6.15-.48,9.06,1a.45.45,0,0,0,.26,0c4.5-.2,8.63,1.46,12.9,2.46,4,.94,8.15,1.48,12.19,2.39,6.75,1.52,13.46,3.2,20.2,4.78,3.39.79,6.8,1.52,10.2,2.26,3.94.86,7.86,1.81,11.81,2.53,3.27.6,6.59.82,9.86,1.41,1.64.29,3.19,1.07,4.81,1.51,2.42.66,4.87,1.18,7.3,1.81.77.2,1.49.61,2.27.81,4.23,1.08,8.48,2.1,12.71,3.18,3.65.93,7.26,2.07,10.94,2.81a92.25,92.25,0,0,1,9.3,2.48c1.52.48,3.16.5,4.72.86,4,.92,8,1.9,12,2.89a15.17,15.17,0,0,0,3.1.87c4.23.09,8.07,1.8,12.11,2.67,5,1.08,9.93,2.51,14.87,3.87,3.72,1,7.38,2.27,11.11,3.27,4.57,1.24,9.17,2.33,13.77,3.48.25.06.58,0,.79.08,4.09,2.43,8.92,2.65,13.22,4.58,3.74,1.68,7.84,2.59,11.76,3.9,1.36.46,2.64,1.12,4,1.66,3.64,1.49,7.27,3,10.93,4.42,3,1.18,6.39,1.76,9,3.52,2.37,1.63,5.53,2,7.3,4.53.23.34.84.77,1.1.68,2.44-.85,3.36,1.22,4.59,2.45,1,1,1.88,1.85,3.31,1.5,1,3.47-1.58,4.84-3.47,6.38a60,60,0,0,1-6.51,4.23c-4.09,2.55-8.23,5-12.31,7.59-1.66,1.05-3.14,2.43-4.88,3.33a43,43,0,0,1-6.66,2.74c-4,1.3-8.08,2.36-12.08,3.64s-7.64,2.71-11.5,3.92c-4.72,1.48-9.45,2.94-14.24,4.13-3.64.91-7.55.92-11,2.16-4.55,1.6-9.5,1-13.91,3.13-1.49.72-3.32.73-5,1-3.79.69-7.58,1.41-11.39,2a84.51,84.51,0,0,1-9.6,1.21c-7.16.28-14.14,1.65-21.14,2.93-.09,0-.19.11-.25.09-2.77-.94-5.1.5-7.6,1.28a26.42,26.42,0,0,1-5.06.61,46.41,46.41,0,0,1-5.37.5c-2.69,0-5.39-.22-8.06-.52a76.61,76.61,0,0,0-13.63.09c-1.79.12-3.6,0-5.41,0a11.89,11.89,0,0,0-2.68.17,96.24,96.24,0,0,1-21.31,2.67c-4.55.09-9.11.2-13.65.46-1.78.1-3.54.9-5.31.93-7.55.16-15.08,1.14-22.64.39a17.54,17.54,0,0,0-1.87.21,27.5,27.5,0,0,1-4.26-.1c-1.57-.24-2.83-.65-4.5.46-1.31.87-3.48.5-5.27.54-1.35,0-2.7-.28-4.05-.28-1.6,0-3.19.18-4.8.25s-3.41.17-5.11.14c-3.69-.08-7.37-.26-11.06-.35-3.24-.08-6.48,0-9.71-.14s-6.43-.33-9.64-.51c-5.93-.33-11.87-.56-17.67-2a6.79,6.79,0,0,0-2.42-.11c-2.4.28-4.6-.48-6.88-1-3.57-.86-7.19-1.53-10.79-2.25-6.69-1.33-13.35-2.84-20.08-3.86-2.37-.36-4.38-1.63-6.78-1.77a43,43,0,0,1-6.81-1.14c-3.67-.83-7.31-1.8-11-2.72-5.31-1.33-10.59-2.78-15.93-4-6.58-1.48-13.05-3.31-19.52-5.21-3.11-.92-6.12-2.32-9.51-2.63-2.51-.23-4.87-1.8-7.37-2.55-3.25-1-6.56-1.76-9.87-2.52-3.69-.85-6.86-3-10.61-3.81-4.09-.9-8-2.59-12-4-4.41-1.58-8.82-3.13-13.16-4.88-4.73-1.9-9.31-4.2-14.09-6a101.75,101.75,0,0,1-9.52-3.69c-2.25-1.11-4.48-2.27-6.78-3.26-1.63-.7-3.37-1.15-5.06-1.73-1.5-.53-3-1.09-4.49-1.64a1.93,1.93,0,0,1-.71-.37c-2.76-2.7-6.47-3.43-9.87-4.79-2.42-1-4.84-1.91-7.24-2.94-3.7-1.58-7.39-3.19-11.06-4.86-2.2-1-4.32-2.18-6.53-3.17-2.86-1.28-5.81-2.37-8.66-3.68-3.82-1.76-7.57-3.7-11.38-5.48-1.29-.6-2.79-.79-4-1.44q-11.64-6-23.18-12.25a53.45,53.45,0,0,1-5.18-3.44,78.64,78.64,0,0,1-13-11.14A81.16,81.16,0,0,1,27.5,433.55,38.43,38.43,0,0,1,22.73,420.68ZM421,542.7c-.33-1.08-.62-2-.9-3-.82-2.71-2.15-4.84-5.16-5.66a8.94,8.94,0,0,1-4.2-2.19c-1.67-1.83-4-2.4-6-3.38-5.7-2.79-11.65-5.11-17.53-7.52-3.42-1.41-6.87-2.74-10.36-3.93-2.19-.75-4.69-.79-6.69-1.84-4-2.11-8.44-2.5-12.66-3.64-6.33-1.7-12.91-2.11-19.36-3.25a175.8,175.8,0,0,0-22.59-2.1c-6.81-.31-13.66-.09-20.49.1-6.1.16-12.18.79-18.28.83-5,0-9.61,2.3-14.6,2.09-.25,0-.51.19-.77.25-3.58.84-7.18,1.6-10.74,2.52a7.22,7.22,0,0,0-5.29,4.37,16,16,0,0,0-.56,2.53c3.86,4.66,3.8,4.8,9.12,7.14,8.28,3.64,16,8.39,24.4,11.77,4.09,1.64,8,3.7,12.4,4.5a24.59,24.59,0,0,1,2.5.95,27.59,27.59,0,0,0,3.13.65c.61.09,1.26,0,1.86.1,3.06.68,6.12,1.41,9.17,2.15.87.21,1.7.57,2.58.73,5.49,1,11,2.05,16.47,3a113.63,113.63,0,0,0,12,1.82c3.91.25,7.86,1.36,11.82.21.31-.09.7.09,1.06.11,2.73.18,5.49,1,8.15-.43a1.59,1.59,0,0,1,.79,0c3,.11,5.92.3,8.88.31,3.92,0,7.85-.37,11.74-.12,3.52.23,7-.18,10.48,0a2.17,2.17,0,0,0,1-.24c2.29-1.21,4.86-1,7.29-1.34a48.4,48.4,0,0,0,10.7-2.5A24.48,24.48,0,0,1,415.8,546,6.38,6.38,0,0,0,421,542.7Zm-77-63.56c4.22-.21,8.45-.29,12.65-.66a51.77,51.77,0,0,0,9-1.45A135.06,135.06,0,0,0,379,472.7c3.2-1.23,6.69-2.21,8.5-5.73.74-1.43,1-2.71.13-4.05-1.68-2.61-3.43-5.19-5.18-7.76-.18-.27-.59-.39-.9-.55-3-1.52-6-3.25-9.13-4.5-4.58-1.82-9.28-3.38-14-4.88-2.28-.73-4.73-.91-7-1.64a24,24,0,0,0-10.16-.74,10.31,10.31,0,0,1-2.41.14,37.52,37.52,0,0,0-9.92.33,164,164,0,0,0-18.52,3.18c-2.35.58-4.53,1.18-5.93,3.22-1.19,1.74-2.62,3.54-3.1,5.51-.79,3.24,1.55,7.09,4.57,8.72a14.28,14.28,0,0,1,1.89,1.41c.76.61,1.48,1.28,2.26,1.87,4.11,3.08,8.95,4.82,13.51,7C330,477.36,336.9,478.65,344,479.14ZM561.27,513c-.28.84-.91,1.27-2.13.92A13.6,13.6,0,0,0,552,514a14.19,14.19,0,0,1-2.7.11,33.69,33.69,0,0,0-4,.33c-5.83,1.06-11.61,2.33-16.86,5.23-5,2.75-10.65,4.3-14.52,9a14.15,14.15,0,0,0-2.83,6,2.41,2.41,0,0,0,.86,2,9.77,9.77,0,0,0,3.63,1.68c3.67.66,7.39,1.11,11.1,1.58a36.55,36.55,0,0,0,4.55.27c3.61,0,7.21-.09,10.81-.19,5.58-.14,11.11-.44,16.58-2,4.43-1.27,8.67-3,13-4.52a33,33,0,0,0,8.35-4.84c3.69-2.72,4.85-7.92,2.36-11.16-1.09-1.41-2.89-2.31-4.46-3.3s-3-2-4.8-.68c-.23.16-.71,0-1.06-.05a19.18,19.18,0,0,0-8,0A8.48,8.48,0,0,1,561.27,513ZM102.74,442.66v-.11c-.91,0-1.82-.06-2.71,0-2.84.25-5.71,4.09-4,6.74s3.07,5.87,5.84,7.9a7.9,7.9,0,0,1,1.15,1.09,51.42,51.42,0,0,0,12.27,10.23,126.72,126.72,0,0,0,13.64,7c1.84.83,3.68.72,5.5,1.12,4.44,1,8.76,2.64,13.45,2.22a6.89,6.89,0,0,1,1.81.43c3.16.62,6.31,1.14,9.5.09,3-1,4.18-2.65,3.61-5.81-.45-2.47-1.09-4.93-3.26-6.62-2.74-2.12-5.37-4.39-8.18-6.4-1.89-1.36-4-2.33-6-3.58a107.24,107.24,0,0,0-24.56-11.68c-1.2-.39-2.33-1-3.52-1.38-3.51-1.15-7.06-2.08-10.81-1.59C105.24,442.44,104,442.54,102.74,442.66Z"/><path class="cls-2" d="M431.13,331.33c-.09,1.77-.16,3.54-.29,5.3s-.67,3.76-.46,5.58a8.75,8.75,0,0,0,1.91,4,6.29,6.29,0,0,1,1.73,3.17,4.44,4.44,0,0,0,2,2.72,48.52,48.52,0,0,0,14.27,6.25,9.55,9.55,0,0,0,2.92.42c2.58-.26,5.07,1.2,7.69.18,1.49-.58,3.18-.67,4.64-1.3a32.53,32.53,0,0,0,4.11-2.51l1.62.79c.05-.49,0-1,.16-1.26.78-1.1,1.46-2.46,2.54-3.12,2.16-1.31,2-3.51,2.44-5.41.76-3.53.32-7.14.06-10.72-.11-1.51-.41-3-.64-4.68.48-.14,1-.49,1.43-.39,2.36.56,4.66,1.45,7,1.83,4.52.73,7.19,4,10.1,6.92,1.63,1.66,3.3,3.28,4.91,5s3.39,3.71,5.14,5.53c1.42,1.49,3,2.85,4.36,4.37,2.42,2.65,4.77,5.36,7.11,8.07,1.75,2,3.44,4.1,5.15,6.15.52.62,1,1.25,1.51,1.87q4.29,5.28,8.59,10.54a8.82,8.82,0,0,1,.83,1c2.08,3.48,4.1,7,6.21,10.43,3.53,5.8,2.6,10-2.17,15.84-1.38-.37-2.83-.83-4.31-1.15-4.4-.94-8.86-1.65-13.21-2.77-8.11-2.08-16.15-4.42-24.24-6.56-4.09-1.08-8.23-2-12.35-2.94s-8.05-1.89-12.08-2.8c-1.13-.26-2.29-.41-3.43-.64-2.55-.51-5.1-1.05-7.64-1.58-3.79-.78-7.56-1.61-11.36-2.32s-7.38-1.28-11.08-1.9c-7.71-1.3-15.42-2.65-23.15-3.85-4.36-.67-8.76-1-13.13-1.62-2.4-.32-4.77-.86-7.16-1.23-4.83-.76-9.67-1.44-14.5-2.19-3.44-.54-6.84-1.42-10.29-1.64-4.95-.32-9.66-1.85-14.53-2.45s-10-.84-15-1.33c-1.87-.19-3.7-.69-5.55-1-2.32-.4-4.62-.86-6.95-1.08-4-.4-8.07-.52-12.08-1-5.57-.62-11.09-1.59-16.67-2.13-3.83-.37-7.71-.22-11.56-.39-2-.1-4.06-.39-6.09-.59-.17,0-.36-.16-.5-.12-2.9.95-5.65-.26-8.46-.57a15.66,15.66,0,0,0-2.16-.13c-2.22.08-4.44.49-6.63-.46a4.21,4.21,0,0,0-2.14,0,28.05,28.05,0,0,1-8.95-.53c-1.6-.26-3.32.29-5,.45-3.61.33-7.19.64-10.78-.36a12.5,12.5,0,0,0-3.71,0c-.54,0-1.16.32-1.59.14-3.39-1.53-6.83-.24-10.24-.34-2.9-.08-5.87.7-8.7-.57a1.51,1.51,0,0,0-1.06-.1c-3.48,1.34-7-.09-10.62.44-4,.6-8.1.23-12.16.29-3.54.06-7.08.06-10.62.25-1.37.08-1.92-.48-1.87-1.62a47.86,47.86,0,0,1,.53-5.07,16.65,16.65,0,0,1,3.21-7.86c1.24-1.63,2.45-3.28,3.73-4.88a38,38,0,0,1,2.61-2.92,7.7,7.7,0,0,1,1.31-.84c1.35-.88,2.69-1.79,4-2.65a25,25,0,0,0,6-5.39,8.51,8.51,0,0,1,2.64-1.86,33,33,0,0,0,7.26-5.52,53.71,53.71,0,0,1,5.08-4c3.26-2.46,6.61-4.82,9.82-7.35a64.55,64.55,0,0,1,13-8.46c1.14-.52,2.14-1.7,3.27-1.8,2.42-.22,3.71-2.14,5.61-3,4-1.91,8.17-3.66,12.35-5.22a29,29,0,0,1,5.83-1.06c4.18-.61,8.35-1.47,12.62-.72a8,8,0,0,0,1.6-.14c3-.14,6-.31,8.86.64a7.59,7.59,0,0,0,4.2.36c.41-.09.93.22,1.4.79-.84.18-1.69.32-2.5.57a26.43,26.43,0,0,0-11.7,6.89c-1.79,1.88-3.77,3.59-5.72,5.32a17.38,17.38,0,0,0-5.91,15.75c.47,3.9,3.24,6.87,7,8.38a112.58,112.58,0,0,0,12.24,4.21c2,.56,4.25.32,6.39.44s4.32.38,6.47.34a87.83,87.83,0,0,0,8.88-.56,7.85,7.85,0,0,0,4.84-2.21,4.6,4.6,0,0,1,1.75-1.25c2.38-.74,3.81-2.67,5.2-4.41a11.86,11.86,0,0,0,2.18-8.34,25.55,25.55,0,0,1-.35-3.22c.2-2.61-.9-4.71-2.3-6.75-1.88-2.73-4.15-5.19-5.44-8.34a6.48,6.48,0,0,0-3.49-3.22c-2.32-1.08-4.46-2.55-7.17-4.14,1-.27,1.55-.61,1.92-.48a11.62,11.62,0,0,0,7.81.45c1.61-.53,3.52-.2,5.29-.21,5.21-.06,10.41-.17,15.61-.11,1.5,0,3,.69,4.48.85,4.56.48,9.14.79,13.69,1.29s9.17.7,13.53,1.88c2.87.78,5.66.45,8.45.91,3.61.59,7.23,1.11,10.81,1.82s7,1.62,10.52,2.36c6.47,1.36,13,2.58,19.43,4,4.2.93,8.34,2.14,12.52,3.17,2.61.64,5.26,1.12,7.86,1.78,2.23.58,4.43,1.25,6.6,2a60.31,60.31,0,0,1,6.37,2.27c.47.22.94.46,1.56.77-1.12,1.83-3,2.44-4.51,3.39-.91.56-1.79,1.16-2.7,1.72-1.66,1-2.72,2.7-4.66,3.49a4.6,4.6,0,0,0-2.78,4.58,4.65,4.65,0,0,1-.51,1.43M189.12,353.14c0-2-.85-3.42-2.31-3.81-3.13-.82-3.6-.65-5,1.83-.92,1.65-.89,2.64.12,3.9a5.62,5.62,0,0,0,5.14,1.54C188.33,356.18,189.08,354.92,189.12,353.14ZM535,400.65a16.92,16.92,0,0,0-.76-2.65c-.51-1.22-2-2.09-3-1.56a7.53,7.53,0,0,0-3.15,2.62c-.77,1.36-.13,3.08.87,4.16.74.8,1.31,2.19,3,1.89C533.86,404.76,535,403.44,535,400.65Z"/><path class="cls-3" d="M20.9,388.48c1.5-1.6,2.92-3.28,4.51-4.78,2.46-2.33,5-4.54,7.53-6.82a3.32,3.32,0,0,0,.94-1.3A5.37,5.37,0,0,1,36.4,373c2.89-2,5.65-4.15,8.53-6.14s5.65-3.73,8.48-5.59c5-3.28,10-6.62,15-9.84,1.73-1.1,3.68-1.89,5.48-2.9,2.66-1.51,5.39-3,7.9-4.69a35.15,35.15,0,0,1,11.33-4.87,5.3,5.3,0,0,1,2.36.15c3,.62,6,1.43,9.25.85a67.47,67.47,0,0,1,7.93-.65c4.56-.26,8.43-2.32,12.16-4.69a42.28,42.28,0,0,0,9.28-8.17,9.1,9.1,0,0,1,1.59-1.45,6.72,6.72,0,0,0,3.33-5.83,2,2,0,0,1,1.42-2c5-2.09,9.67-4.83,15-6.14,3.57-.88,7.15-1.68,10.73-2.52,2.78-.65,5.55-1.34,8.33-1.95,5.17-1.14,10.34-2.31,15.54-3.32,5.38-1.05,10.76-2.1,16.19-2.86,6.68-.93,13.43-1.37,20.08-2.41a89.21,89.21,0,0,1,10.18-.58,1.91,1.91,0,0,1,1.42.67c-1.4.83-2.83,1.62-4.2,2.52-5.06,3.29-10.21,6.45-15.1,10-6.13,4.42-12,9.13-18,13.76-2.1,1.62-4.07,3.39-6.14,5-3,2.41-6.07,4.78-9.1,7.17-.85.67-1.68,1.36-2.48,2.09-2,1.88-3.86,4.15-6.17,5.63-5.84,3.74-7.78,10.05-10.85,15.63-.52.95-.37,2.28-.54,3.48-.06.07-.18.31-.3.31-2.83.07-5.39,1.58-8.32,1.29-1.46-.14-3,.48-4.5.67a18.48,18.48,0,0,0-3.36.23,27.37,27.37,0,0,1-12.61,1,4.37,4.37,0,0,0-1.34.11c-4.79.76-9.55,2-14.36,2.17-4.43.14-8.58,1.44-12.89,2C100,372,92.51,373.4,85,374.62c-3.81.62-7.61,1.23-11.4,1.92-3.62.67-7.22,1.44-10.82,2.16-2.38.48-4.75.94-7.11,1.48-1.14.25-2.22.71-3.34,1-4,1-8.09,1.75-12,3.09s-8.09,1.48-11.66,3.82c-1.37.89-3.21,1.11-4.87,1.49a6.39,6.39,0,0,1-2.06-.19Zm142.38-31.9c2.52-.14,3.26-.79,3.05-3.19a7.81,7.81,0,0,0-.85-3.05,4.32,4.32,0,0,0-4.61-2,3.29,3.29,0,0,0-2.9,2.77,12.59,12.59,0,0,1-.55,1.52,1.59,1.59,0,0,0,.89,2.23C159.94,355.46,161.62,356,163.28,356.58Z"/><path class="cls-3" d="M567.3,368.92a42.34,42.34,0,0,0-.33,6.28,26.52,26.52,0,0,0,1.44,5.37c.24.77.73,1.46,1,2.23,1.17,3.64,3.82,6.16,6.35,8.85,5.39,5.74,12.4,7.6,19.8,8.64a7.25,7.25,0,0,1,1.57.26,8.16,8.16,0,0,0,6.32-.33c1.32-.57,2.62-1.18,3.92-1.8a4.17,4.17,0,0,1,4.12,0q4.42,2.54,8.84,5.08c1.09.63,2.2,1.24,3.24,1.94,2.14,1.46,4.24,3,6.35,4.48,3.66,2.6,7.34,5.17,11,7.83,4.83,3.54,9.67,7.07,14.37,10.78,2.45,1.93,4.39,4.53,6.93,6.29,2,1.43,3.25,3.51,5.1,5,1.15.92,2.66,1.4,3.82,2.32,1.81,1.44,3.46,3.09,5.19,4.66l-.82,1.21c.09.12.16.31.28.36,2.49,1.18,3.71,3.53,5.29,5.58,1.94,2.51,3.3,5.44,5.77,7.58.77.66,1,1.94,1.47,2.94l-.43.51a14.9,14.9,0,0,1-2.4-.65c-2.13-.95-4.13-2.3-6.35-2.92-2.54-.72-4.68-2.13-7.05-3.12-5.39-2.27-10.8-4.49-16.19-6.73-.92-.38-1.8-.83-2.72-1.22-3.64-1.54-7.33-3-10.93-4.62-4.42-2-8.76-4.14-13.16-6.18-1-.48-2.18-.8-3.27-1.22l-7.29-2.84c-4.6-1.79-9.18-3.67-13.83-5.33-10-3.59-20-7.08-30-10.58-5.09-1.79-10.18-3.59-15.31-5.26-3.66-1.2-7.4-2.17-11.08-3.31a31.6,31.6,0,0,1-3.33-1.47c2.24-7,.51-13.22-3.29-19.06-1.71-2.63-3.23-5.39-4.77-8.13a123.74,123.74,0,0,0-10-14.39c-2.39-3.11-4.85-6.19-7.44-9.13-2.19-2.49-4.58-4.81-7-7.11-2.83-2.75-5.85-5.33-8.62-8.14-1.85-1.88-3.4-4.06-5.23-6.28a5,5,0,0,1,1.46,0c1.77.6,3.53,1.26,5.28,1.91.25.09.59.14.71.32,1.31,2,3.54,1.88,5.45,2.59,4.79,1.79,9.53,3.72,14.23,5.74,4.24,1.81,8.19,4.2,12.63,5.66a52.69,52.69,0,0,1,11,5c4.29,2.6,8.92,4.64,13.33,7.06A44.78,44.78,0,0,1,567.3,368.92Zm-16.76,36.83c0,2.58,1.43,4,4,4.06,1.55,0,3.46-2.47,3.47-4.56a4,4,0,0,0-3.4-3.58A4.08,4.08,0,0,0,550.54,405.75Z"/><path class="cls-4" d="M481.1,403.39c-.81,4.56-1.59,8.8-2.31,13.05-.7,4.08-1.2,8.19-2.05,12.24-.66,3.12-1.72,6.17-2.67,9.48-3.08-.51-6-.92-8.85-1.47q-6.48-1.23-12.93-2.64c-1.22-.27-2.35-.95-3.57-1.25-2.43-.6-4.9-1.08-7.36-1.59-.53-.11-1.08-.09-1.61-.2-5.88-1.26-11.74-2.59-17.63-3.79-4-.8-8-1.39-11.94-2.13-1.49-.27-2.94-.77-4.42-1.07-7.41-1.52-14.83-3-22.24-4.5l-14-2.82c-.62-.13-1.23-.27-1.86-.35-2.36-.3-2.6-.73-2.29-3.14.45-3.56.67-7.16,1.17-10.72a28.2,28.2,0,0,1,1.52-6.8c1.44-3.49,1.51-7.19,2.18-10.79.42-2.25.5-2.43,2.86-2.26a166.74,166.74,0,0,1,22.33,3.62c4.58,1,9.19,1.73,13.8,2.48,3.54.58,7.11,1,10.65,1.53,1.4.23,2.74.82,4.14,1.06,3.17.54,6.31,1.2,9.6.74,1-.15,2.17.71,3.29.94,3.23.67,6.49,1.18,9.71,1.89,5.62,1.23,11.17,2.88,16.84,3.78a141.33,141.33,0,0,1,15.16,3.69A22.33,22.33,0,0,1,481.1,403.39Z"/><path class="cls-5" d="M355.11,414.39c-1.68-.22-3-.46-4.32-.56-7-.53-13.77-2.46-20.66-3.71-2.65-.48-5.36-.7-8-1.09-3.64-.53-7.28-1-10.91-1.68-3.45-.61-6.87-1.38-10.31-2-4.59-.88-9.18-1.76-13.79-2.55-6.74-1.16-13.46-2.56-20.25-3.27-4.74-.49-9.31-1.81-14-2.29-1-.09-2,.11-3,0-1.21-.09-2.4-.32-3.75-.52,1.36-8.78,2.65-17.18,4-25.79a8.63,8.63,0,0,1,2.21-.48c6.47.38,12.94.77,19.39,1.27,6.25.49,12.48,1.46,18.72,1.55,3.54.06,6.93,1.11,10.58.66s7.18.24,10.78.52c7.19.55,14.39,1,21.55,1.8,6.07.67,12.1,1.72,18.14,2.63,1.95.29,3.89.67,5.83,1,1.71.32,2.31,1,2.36,2.75a67.12,67.12,0,0,1-1.43,13.92c-.31,1.75-.89,3.45-1.3,5.18a27.19,27.19,0,0,0-1,7.47A28,28,0,0,1,355.11,414.39Z"/><path class="cls-6" d="M562.37,459.78c-3.31-.88-6.33-1.72-9.38-2.48-3.93-1-7.85-2-11.81-2.78-6.78-1.4-13.63-2.54-20.39-4a92.17,92.17,0,0,1-10.68-2.57c-3.21-1.12-6.64-1.62-10-2.42s-6.82-1.64-10.23-2.51c-2.34-.6-4.66-1.32-7-1.91-1.67-.42-1.91-.62-1.68-2.39.5-3.82.89-7.66,1.62-11.44.69-3.62,1.77-7.15,2.61-10.74.48-2,.83-4.05,1.23-6.08a8.25,8.25,0,0,1,.27-1.59c1.37-3.38.59-4.29,5.35-3.53,6.73,1.07,13.34,2.72,20.05,3.85,4.66.78,9.21,2.21,13.83,3.27,1.28.29,2.64.23,3.95.43q3.17.5,6.3,1.15a26.82,26.82,0,0,0,3.35,1c5,.34,9.31,2.59,13.87,4.17a7.25,7.25,0,0,0,1.54.49c5,.51,9.17,3.63,14.08,4.39,1.27.19,1.53,1.11,1.28,2.24-1.63,7.29-3.19,14.59-4.92,21.85C564.74,451.94,563.53,455.7,562.37,459.78Z"/><path class="cls-7" d="M569.82,461.41c0-2.63,0-4.79,0-6.94a3.13,3.13,0,0,1,.24-1.3c1.58-3.19,1.77-6.7,2.59-10.06.54-2.19,1.16-4.29,1.5-6.57.43-2.94,1.85-5.72,2.77-8.35,4.35.16,7.67,2.22,11.19,3.78,2.12.93,4.35,1.66,6.56,2.38,4.43,1.43,8.9,2.75,13.32,4.2a50.12,50.12,0,0,1,11,4.57c2,1.2,4.33,1.71,6.49,2.59,3.91,1.58,7.83,3.13,11.69,4.83,3.37,1.48,6.66,3.16,10,4.76a6.9,6.9,0,0,1,.9.76c-.78,2.42-1.5,5-2.43,7.47-.75,2-1.82,3.92-2.61,5.93-.73,1.84-1.24,3.76-1.89,5.62-.75,2.12-1.51,4.24-2.33,6.33a2.12,2.12,0,0,1-2.91,1.22l-13.16-4c-.94-.29-1.88-.54-2.82-.83-8.6-2.71-17.22-5.37-25.79-8.17-4.43-1.45-8.75-3.22-13.16-4.72C577.24,463.61,573.44,462.53,569.82,461.41Z"/><path class="cls-8" d="M243.64,370c-1.58,8.81-3.12,17.42-4.71,26.28a12.49,12.49,0,0,1-2.25.19c-5.66-.4-11.32-.78-17-1.3-3.49-.32-7-.85-10.44-1.28-.8-.1-1.61-.18-2.42-.23-2.41-.15-4.82-.28-7.23-.41-6.21-.34-12.41-.76-18.62-1a121.23,121.23,0,0,0-13.48,0,47.66,47.66,0,0,1-9.19.3c-.56-3.83-1.66-7.48-.31-11.34a23.91,23.91,0,0,0,1.13-6.52,2,2,0,0,1,2.2-2.18c2.15-.07,4.31.13,6.47.2a12.42,12.42,0,0,0,3.75,0c3-.87,6.06-.81,9.12-1,1.59-.08,3.15.07,4.73-.74.91-.46,2.29-.16,3.43,0,2.55.29,2.68.31,4.76-1,2,1.51,4.28,1.33,6.78.95,4.35-.65,8.85-.41,13.13-1.31,3.6-.76,7.11-.27,10.65-.48a103.19,103.19,0,0,1,10.55.1C237.59,369.33,240.43,369.68,243.64,370Z"/><path class="cls-9" d="M152.28,392.5a21.43,21.43,0,0,1-8.07,1.25c-7,.13-14,.44-21,.7-2.15.08-4.3.23-6.45.35-.54,0-1.09,0-1.62.05q-6.14.84-12.25,1.71-5.47.76-10.93,1.56c-1.47.22-2.93.48-4.35.72-.87-2.84-.61-16.28.3-18.79a3.51,3.51,0,0,1,1.19-.35c3.32.19,6.26-1.55,9.42-1.92,2.68-.31,5-1.65,7.64-2s5.14-.82,7.73-1.13c2.4-.28,4.82-.37,7.23-.63,3-.33,6-.76,9-1.14.18,0,.39-.18.52-.13,3.05,1.33,6.23,0,9.34.42,1.55.21,3.19-.31,4.79-.4,2.59-.16,5.19-.31,7.78-.33,1.7,0,2.14.55,1.91,2.47-.44,3.57-1.05,7.12-1.51,10.69C152.69,387.85,152.52,390.08,152.28,392.5Z"/><path class="cls-9" d="M674,499.27c-3.35-2-6.48-3.87-9.66-5.68-1.39-.8-2.86-1.44-4.31-2.13a6.88,6.88,0,0,1-1.25-.47c-3.63-2.71-8.19-3-12.17-4.73-1.19-.53-2.32-1.17-3.59-1.82a16.12,16.12,0,0,1,1.34-2.45c1.78-2.16,2.38-4.84,3.22-7.38,1.6-4.84,3-9.75,4.46-14.63a1.68,1.68,0,0,1,2.3-1.25,5.43,5.43,0,0,1,1.52.57c5.26,3.6,11.65,4.55,17.23,7.42,3.33,1.72,7,2.77,10.45,4.27,2.48,1.08,2.67,2,1.55,4.45-1,2.28-2,4.58-2.91,6.92A114.42,114.42,0,0,1,674,499.27Z"/><path class="cls-7" d="M36,411.66c-2.05-2.88-1.14-6.32-1.88-9.4A83.28,83.28,0,0,1,33,392.84a31,31,0,0,1,7.53-2.93c3.49-.75,6.86-2.06,10.31-3,4.74-1.29,9.5-2.56,14.29-3.68,4-.94,8.09-1.68,12.15-2.48a20.25,20.25,0,0,1,2.11-.17v19.55c-2.07.58-3.87,1.17-5.7,1.6-3.67.84-7.35,1.66-11,2.38a145.6,145.6,0,0,0-25.71,7.5A4.26,4.26,0,0,1,36,411.66Z"/><path class="cls-10" d="M294.56,331.23c-5.27-.51-10.55-.88-15.78-1.61-1.79-.24-3.46-1.38-5.17-2.11a32.25,32.25,0,0,0-4.93-2,2.32,2.32,0,0,1-2.08-2.38c-.26-3.88.29-7.56,2.83-10.71,1.47-1.81,2.91-3.66,5.24-4.5a3.16,3.16,0,0,0,1.38-.83c2.26-2.95,5.79-3.91,8.8-5.65a8.73,8.73,0,0,1,3.63-.8c2.6-.21,5.48-1,7.76-.23,4.46,1.6,9.58,2.34,12.23,7.4.93,1.77,2.41,3.74,4.74,4.35a2.56,2.56,0,0,1,1.83,2.14c1.87,7-1.43,12-7.51,14.34A42.19,42.19,0,0,1,294.56,331.23Z"/><path class="cls-10" d="M457.61,320.18c3.43.09,6.37,1.11,8.36,4.12a42.33,42.33,0,0,1,5.34,9.91,2.7,2.7,0,0,0,.58,1.2c2.49,2.08,1.91,4.78,1.92,7.54,0,3.56-2,5.19-4.52,7.15-5.74,4.41-11.46,3.16-17.37.9-1.51-.57-2.94-1.35-4.43-2-4.34-1.88-8-4.52-10-9-.38-.81-1.09-1.48-1.41-2.3a14.42,14.42,0,0,1-.52-2.8c0-.08.09-.17.08-.25-1-5.82,3-8.57,7.24-10.54,4-1.89,8.27-3.59,12.87-3.83C456.37,320.29,457,320.23,457.61,320.18Z"/><path class="cls-10" d="M572.06,370c1.3-1,2.3-1.75,3.29-2.52a7.58,7.58,0,0,1,7.33-1.11,37.35,37.35,0,0,0,8.13,1.7c3.15.24,5.38,2,7.53,3.83a35.52,35.52,0,0,1,5.79,6,20.76,20.76,0,0,1,4.11,12.88,5.64,5.64,0,0,1-1.9,3.4,9.53,9.53,0,0,1-8.92,2.58c-6.29-1.3-11.19-4.68-15.28-9.46a7.54,7.54,0,0,0-1.56-1.48,16.82,16.82,0,0,1-6.14-8A72.29,72.29,0,0,1,572.06,370Z"/><path class="cls-10" d="M103.73,335.92c-1.45.15-3.07-.8-4.34.68-.16.17-1-.11-1.46-.38-1.84-1.18-3.53-6.78-2.43-8.61a23.3,23.3,0,0,1,4.06-5.31c3.94-3.53,7.82-7.21,12.61-9.62q4.55-2.28,9.25-4.23a14.52,14.52,0,0,1,3.69-.69c6.3-.81,10.21,4.24,10.83,9.53.12,1-.95,2.21-1.72,3.12a24.49,24.49,0,0,1-3.46,3.29c-3.82,3.08-7.29,6.66-12,8.42-1.26.47-2.48,1-3.7,1.61C111.43,335.41,107.56,335.54,103.73,335.92Z"/><path class="cls-6" d="M14.76,423.24c-2,0-3-1.31-3.84-2.84-1.17-2.11-2.32-4.24-3.52-6.33-1.64-2.84-1.38-5.86-.84-8.9.3-1.67,1.54-2.56,3-3.19,4.37-1.87,8.72-3.78,13.1-5.62,1.3-.55,2.67-.93,4.16-1.44a34.89,34.89,0,0,1,1.39,3.74c.94,3.93,1.83,7.88,2.63,11.85.63,3.1-.06,4-3.05,4.93-1.87.6-3.64,1.52-5.45,2.3-2.1.9-4.21,1.77-6.3,2.72a2.52,2.52,0,0,0-1.35,2.84Z"/><path class="cls-8" d="M677.21,501c1.56-2.76,3.27-5.7,4.9-8.68.6-1.09,1-2.28,1.53-3.42.92-2,1.89-4,2.77-6.06.58-1.33,1-2.76,1.58-4.08a32.36,32.36,0,0,1,1.84-3c3.25,1.38,3.83,2.28,3.4,5.28-.49,3.36-1,6.73-1.66,10.07a14.38,14.38,0,0,1-1.43,3.46c-2.6,5.32-5.24,10.62-7.82,15.95-.53,1.08-.94,2.15-2.62,2.23a8.2,8.2,0,0,1,.44-1.42,2.88,2.88,0,0,0-.16-3.07,24.92,24.92,0,0,1-2.11-3.41A18.46,18.46,0,0,1,677.21,501Z"/><path d="M14.71,423.3l1.81,1.22-1,1.08c-1.23-.61-1.08-1.45-.76-2.35Z"/><path class="cls-11" d="M20.9,388.48l.84.91-1.48,2.09A2.23,2.23,0,0,1,20.9,388.48Z"/><path d="M421,542.7A6.38,6.38,0,0,1,415.8,546a24.48,24.48,0,0,0-5.41,1.66,48.4,48.4,0,0,1-10.7,2.5c-2.43.35-5,.13-7.29,1.34a2.17,2.17,0,0,1-1,.24c-3.49-.17-7,.24-10.48,0-3.89-.25-7.82.13-11.74.12-3,0-5.92-.2-8.88-.31a1.59,1.59,0,0,0-.79,0c-2.66,1.44-5.42.61-8.15.43-.36,0-.75-.2-1.06-.11-4,1.15-7.91,0-11.82-.21a113.63,113.63,0,0,1-12-1.82c-5.5-1-11-2-16.47-3-.88-.16-1.71-.52-2.58-.73-3.05-.74-6.11-1.47-9.17-2.15-.6-.14-1.25,0-1.86-.1a27.59,27.59,0,0,1-3.13-.65,24.59,24.59,0,0,0-2.5-.95c-4.4-.8-8.31-2.86-12.4-4.5-8.4-3.38-16.12-8.13-24.4-11.77-5.32-2.34-5.26-2.48-9.12-7.14a16,16,0,0,1,.56-2.53,7.22,7.22,0,0,1,5.29-4.37c3.56-.92,7.16-1.68,10.74-2.52.26-.06.52-.26.77-.25,5,.21,9.6-2.06,14.6-2.09,6.1,0,12.18-.67,18.28-.83,6.83-.19,13.68-.41,20.49-.1a175.8,175.8,0,0,1,22.59,2.1c6.45,1.14,13,1.55,19.36,3.25,4.22,1.14,8.65,1.53,12.66,3.64,2,1,4.5,1.09,6.69,1.84,3.49,1.19,6.94,2.52,10.36,3.93,5.88,2.41,11.83,4.73,17.53,7.52,2,1,4.3,1.55,6,3.38a8.94,8.94,0,0,0,4.2,2.19c3,.82,4.34,2.95,5.16,5.66C420.39,540.69,420.68,541.62,421,542.7ZM250,517.58c2.82,2.49,4.89,5.34,8.36,6.34,1.19.34,2.47.37,3.62.79,1.6.58,3.07,1.51,4.67,2.1,4.3,1.57,8.66,3,13,4.56,3.12,1.13,6.14,2.55,9.3,3.56,2.37.76,4.91,1.62,7.33,1.49,7.31-.4,14,1.86,20.69,4.18a27.72,27.72,0,0,0,7.25,2c2,.14,4,.89,6,1.22,3.81.63,7.48,2,11.42,1.9a22.75,22.75,0,0,1,4.81.29c4.71.86,9.5-.34,14.2.61a8,8,0,0,0,1.87-.14c1.36-.06,2.71-.15,4.06-.13q5.81.1,11.6.29c3.13.1,6.26.35,9.38.34a34,34,0,0,0,6.12-.61c2.19-.41,4.31-1.51,6.5-1.61,5.24-.25,10.13-1.8,15-3.45,1.83-.62,2.18-1.55.69-2.52-2.54-1.65-4.53-4.87-8.4-3.55-.28.09-.74-.38-1.13-.56a85.75,85.75,0,0,0-8.3-3.78c-7.36-2.49-14.71-5-22.21-7-2.17-.58-4.31-1.31-6.51-1.75-3.15-.63-6.35-1-9.51-1.61-1.93-.36-3.81-1-5.74-1.4s-3.68-.63-5.52-1c-.52-.1-1.12-.53-1.53-.38-2.07.77-3.89-.41-5.81-.66-1.29-.16-2.52-.69-3.8-1s-2.46-.41-3.7-.57-2.49-.23-3.73-.38c-3.46-.42-7,.18-10.42-1.14a18.36,18.36,0,0,0-5.51-1.24c-2.94-.15-5.87-.11-8.83-.48-5.17-.64-10.39-1-15.6-1.15A79.82,79.82,0,0,0,272,513c-2.55.5-5,2.18-7.79.84a1.33,1.33,0,0,0-1.05.15c-2,1.17-4.28,1.07-6.41,1.61-1.78.44-3.41,1.56-5.4,1C251.05,516.56,250.62,517.11,250,517.58Z"/><path d="M344,479.14c-7.1-.49-14-1.78-20.39-4.88-4.56-2.21-9.4-3.95-13.51-7-.78-.59-1.5-1.26-2.26-1.87A14.28,14.28,0,0,0,306,464c-3-1.63-5.36-5.48-4.57-8.72.48-2,1.91-3.77,3.1-5.51,1.4-2,3.58-2.64,5.93-3.22a164,164,0,0,1,18.52-3.18,37.52,37.52,0,0,1,9.92-.33,10.31,10.31,0,0,0,2.41-.14,24,24,0,0,1,10.16.74c2.28.73,4.73.91,7,1.64,4.71,1.5,9.41,3.06,14,4.88,3.14,1.25,6.09,3,9.13,4.5.31.16.72.28.9.55,1.75,2.57,3.5,5.15,5.18,7.76.87,1.34.61,2.62-.13,4.05-1.81,3.52-5.3,4.5-8.5,5.73A135.06,135.06,0,0,1,365.69,477a51.77,51.77,0,0,1-9,1.45C352.45,478.85,348.22,478.93,344,479.14Zm4.17-4.86v-.08c.81-.05,1.63-.05,2.43-.16,6.61-.86,13.22-1.71,19.82-2.61a29.63,29.63,0,0,0,10.5-3.23,3.25,3.25,0,0,0,1.39-1.15,5.69,5.69,0,0,0-2.69-7.32c-4.51-1.93-8.8-4.35-13.44-6-3.12-1.12-6.16-2.45-9.25-3.67-.58-.23-1.27-.63-1.79-.49-2.4.65-4.53-.63-6.73-1a70.39,70.39,0,0,0-17.18-1.26,108.91,108.91,0,0,0-11.48,1.61c-3.71.67-7.38,1.53-11,2.48a4.85,4.85,0,0,0-2.25,1.79c-1.16,1.5-1.08,2.18.31,3.47,6.75,6.27,14,11.77,22.88,14.76a50.6,50.6,0,0,0,8.53,2.47A89.25,89.25,0,0,0,348.17,474.28Z"/><path d="M561.27,513a8.48,8.48,0,0,0,2.63.37,19.18,19.18,0,0,1,8,0c.35.08.83.21,1.06.05,1.84-1.31,3.35-.23,4.8.68s3.37,1.89,4.46,3.3c2.49,3.24,1.33,8.44-2.36,11.16a33,33,0,0,1-8.35,4.84c-4.31,1.56-8.55,3.25-13,4.52-5.47,1.56-11,1.86-16.58,2-3.6.1-7.2.17-10.81.19a36.55,36.55,0,0,1-4.55-.27c-3.71-.47-7.43-.92-11.1-1.58a9.77,9.77,0,0,1-3.63-1.68,2.41,2.41,0,0,1-.86-2,14.15,14.15,0,0,1,2.83-6c3.87-4.68,9.54-6.23,14.52-9,5.25-2.9,11-4.17,16.86-5.23a33.69,33.69,0,0,1,4-.33A14.19,14.19,0,0,0,552,514a13.6,13.6,0,0,1,7.19-.05C560.36,514.28,561,513.85,561.27,513ZM539.7,536.64l13.81-2.38a30.51,30.51,0,0,0,5-.89c2.86-1,5.55-2.54,8.42-3.52,4.7-1.61,8.88-3.76,12-7.85.85-1.12,1.31-2.26.71-3a3.62,3.62,0,0,0-3.07-.9c-1.26.28-2.28.7-3.52-.13a3.88,3.88,0,0,0-2.12-.15c-2.69.13-5.4.22-8.08.48-3,.29-5.89,1-8.84,1.07-5.93.21-11.5,2.13-17.24,3.21-4,.75-7.36,3.33-11.42,3.91-.42.06-.8.44-1.22.56a33.44,33.44,0,0,1-3.88,1c-1.64.26-3.8,2.41-3.73,4,0,1,.37,2,1.6,2.19s2.31.32,3.47.43a17.92,17.92,0,0,1,3.21.21C529.67,536.16,534.56,537.21,539.7,536.64Z"/><path d="M102.74,442.66c1.25-.12,2.5-.22,3.75-.38,3.75-.49,7.3.44,10.81,1.59,1.19.4,2.32,1,3.52,1.38a107.24,107.24,0,0,1,24.56,11.68c2,1.25,4.12,2.22,6,3.58,2.81,2,5.44,4.28,8.18,6.4,2.17,1.69,2.81,4.15,3.26,6.62.57,3.16-.59,4.81-3.61,5.81-3.19,1.05-6.34.53-9.5-.09a6.89,6.89,0,0,0-1.81-.43c-4.69.42-9-1.25-13.45-2.22-1.82-.4-3.66-.29-5.5-1.12a126.72,126.72,0,0,1-13.64-7,51.42,51.42,0,0,1-12.27-10.23,7.9,7.9,0,0,0-1.15-1.09c-2.77-2-4-5.17-5.84-7.9s1.12-6.49,4-6.74c.89-.08,1.8,0,2.71,0Zm-3.94,5.87c.73,1,1.32,1.89,2,2.7a20.51,20.51,0,0,0,2.61,2.66c3.28,2.65,6.61,5.23,9.95,7.81a26,26,0,0,0,3.54,2.49c3.66,1.93,7.32,3.87,11.09,5.59,6.44,2.94,13.11,5.08,20.32,5a8.63,8.63,0,0,1,2.86.62c2,.71,4,1.59,6.27,1.3,1.62-.2,2.32-.83,2.23-2.44a7.11,7.11,0,0,0-3.64-6.22c-2.64-1.5-5.23-3.11-7.79-4.75a63,63,0,0,0-11.8-6.44c-5.64-2.09-11.2-4.37-16.8-6.56-5-2-10-4-15.45-4.37C101.67,445.69,100,446.31,98.8,448.53Z"/><path d="M189.12,353.14c0,1.78-.79,3-2,3.46a5.62,5.62,0,0,1-5.14-1.54c-1-1.26-1-2.25-.12-3.9,1.38-2.48,1.85-2.65,5-1.83C188.27,349.72,189.16,351.18,189.12,353.14Z"/><path d="M535,400.65c0,2.79-1.09,4.11-3.09,4.46-1.68.3-2.25-1.09-3-1.89-1-1.08-1.64-2.8-.87-4.16a7.53,7.53,0,0,1,3.15-2.62c1-.53,2.53.34,3,1.56A16.92,16.92,0,0,1,535,400.65Zm-3.1-1.15-.81.2c-.27.82-.52,1.64,1.26,2C532.11,400.79,532,400.14,531.85,399.5Z"/><path d="M163.28,356.58c-1.66-.59-3.34-1.12-5-1.77a1.59,1.59,0,0,1-.89-2.23,12.59,12.59,0,0,0,.55-1.52,3.29,3.29,0,0,1,2.9-2.77,4.32,4.32,0,0,1,4.61,2,7.81,7.81,0,0,1,.85,3.05C166.54,355.79,165.8,356.44,163.28,356.58Zm-.05-3.95c-.5-.74-1.07-1.3-2.08-.75a.72.72,0,0,0-.21.68c.49.94,1.28.67,2,.42C163,353,163.07,352.85,163.23,352.63Z"/><path d="M550.54,405.75a4.08,4.08,0,0,1,4.09-4.08,4,4,0,0,1,3.4,3.58c0,2.09-1.92,4.59-3.47,4.56C552,409.75,550.56,408.33,550.54,405.75Z"/><path class="cls-12" d="M250,517.58c.63-.47,1.06-1,1.31-1,2,.57,3.62-.55,5.4-1,2.13-.54,4.42-.44,6.41-1.61a1.33,1.33,0,0,1,1.05-.15c2.78,1.34,5.24-.34,7.79-.84a79.82,79.82,0,0,1,17.68-1.88c5.21.17,10.43.51,15.6,1.15,3,.37,5.89.33,8.83.48a18.36,18.36,0,0,1,5.51,1.24c3.41,1.32,7,.72,10.42,1.14,1.24.15,2.49.23,3.73.38s2.48.31,3.7.57,2.51.79,3.8,1c1.92.25,3.74,1.43,5.81.66.41-.15,1,.28,1.53.38,1.84.33,3.7.58,5.52,1s3.81,1,5.74,1.4c3.16.6,6.36,1,9.51,1.61,2.2.44,4.34,1.17,6.51,1.75,7.5,2,14.85,4.56,22.21,7a85.75,85.75,0,0,1,8.3,3.78c.39.18.85.65,1.13.56,3.87-1.32,5.86,1.9,8.4,3.55,1.49,1,1.14,1.9-.69,2.52-4.89,1.65-9.78,3.2-15,3.45-2.19.1-4.31,1.2-6.5,1.61a34,34,0,0,1-6.12.61c-3.12,0-6.25-.24-9.38-.34q-5.79-.18-11.6-.29c-1.35,0-2.7.07-4.06.13a8,8,0,0,1-1.87.14c-4.7-1-9.49.25-14.2-.61a22.75,22.75,0,0,0-4.81-.29c-3.94.12-7.61-1.27-11.42-1.9-2-.33-4-1.08-6-1.22a27.72,27.72,0,0,1-7.25-2c-6.69-2.32-13.38-4.58-20.69-4.18-2.42.13-5-.73-7.33-1.49-3.16-1-6.18-2.43-9.3-3.56-4.3-1.57-8.66-3-13-4.56-1.6-.59-3.07-1.52-4.67-2.1-1.15-.42-2.43-.45-3.62-.79C254.88,522.92,252.81,520.07,250,517.58Z"/><path class="cls-13" d="M249.9,517.37s34-15,86-4,53,13,64,16,16.82,8.35,16.91,10.17S441.9,997.37,441.9,997.37h-272Z"/><path class="cls-14" d="M348.17,474.28a89.25,89.25,0,0,1-10-.43,50.6,50.6,0,0,1-8.53-2.47c-8.86-3-16.13-8.49-22.88-14.76-1.39-1.29-1.47-2-.31-3.47a4.85,4.85,0,0,1,2.25-1.79c3.64-.95,7.31-1.81,11-2.48a108.91,108.91,0,0,1,11.48-1.61,70.39,70.39,0,0,1,17.18,1.26c2.2.39,4.33,1.67,6.73,1,.52-.14,1.21.26,1.79.49,3.09,1.22,6.13,2.55,9.25,3.67,4.64,1.67,8.93,4.09,13.44,6a5.69,5.69,0,0,1,2.69,7.32,3.25,3.25,0,0,1-1.39,1.15,29.63,29.63,0,0,1-10.5,3.23c-6.6.9-13.21,1.75-19.82,2.61-.8.11-1.62.11-2.43.16Z"/><path class="cls-14" d="M539.7,536.64c-5.14.57-10-.48-14.91-1.79a17.92,17.92,0,0,0-3.21-.21c-1.16-.11-2.32-.25-3.47-.43s-1.55-1.15-1.6-2.19c-.07-1.59,2.09-3.74,3.73-4a33.44,33.44,0,0,0,3.88-1c.42-.12.8-.5,1.22-.56,4.06-.58,7.46-3.16,11.42-3.91,5.74-1.08,11.31-3,17.24-3.21,3-.1,5.88-.78,8.84-1.07,2.68-.26,5.39-.35,8.08-.48A3.88,3.88,0,0,1,573,518c1.24.83,2.26.41,3.52.13a3.62,3.62,0,0,1,3.07.9c.6.76.14,1.9-.71,3-3.1,4.09-7.28,6.24-12,7.85-2.87,1-5.56,2.49-8.42,3.52a30.51,30.51,0,0,1-5,.89Z"/><path class="cls-14" d="M98.8,448.53c1.24-2.22,2.87-2.84,5.41-2.66,5.5.39,10.45,2.41,15.45,4.37,5.6,2.19,11.16,4.47,16.8,6.56a63,63,0,0,1,11.8,6.44c2.56,1.64,5.15,3.25,7.79,4.75a7.11,7.11,0,0,1,3.64,6.22c.09,1.61-.61,2.24-2.23,2.44-2.24.29-4.23-.59-6.27-1.3a8.63,8.63,0,0,0-2.86-.62c-7.21.13-13.88-2-20.32-5-3.77-1.72-7.43-3.66-11.09-5.59a26,26,0,0,1-3.54-2.49c-3.34-2.58-6.67-5.16-9.95-7.81a20.51,20.51,0,0,1-2.61-2.66C100.12,450.42,99.53,449.52,98.8,448.53Z"/><path class="cls-11" d="M531.85,399.5c.13.64.26,1.29.45,2.2-1.78-.36-1.53-1.18-1.26-2Z"/><path class="cls-11" d="M163.23,352.63c-.16.22-.19.33-.25.35-.76.25-1.55.52-2-.42a.72.72,0,0,1,.21-.68C162.16,351.33,162.73,351.89,163.23,352.63Z"/><path class="cls-15" d="M441.81,82.58a33.51,33.51,0,0,1,14.55,8.22,39.23,39.23,0,0,1,9.64,14,46.58,46.58,0,0,1,2.37,8.23,45.37,45.37,0,0,1,.74,8.45A50.44,50.44,0,0,1,466.42,138a118.86,118.86,0,0,0-.43-16.29,67.87,67.87,0,0,0-1.33-7.84,57,57,0,0,0-2.37-7.51A48.45,48.45,0,0,0,454.13,93,51.89,51.89,0,0,0,441.81,82.58Z"/></g></g></svg>